<?xml version="1.0" encoding="utf-8"?>
<!DOCTYPE svg PUBLIC "-//W3C//DTD SVG 1.0//EN" "http://www.w3.org/TR/2001/REC-SVG-20010904/DTD/svg10.dtd">
<svg version="1.0" xmlns="http://www.w3.org/2000/svg" width="1721px" height="320px" viewBox="0 0 1721 320" preserveAspectRatio="xMidYMid meet">
 <g fill="#f6693d">
  <path d="M1357.25 287.65 c-8.65 -1.30 -17.40 -5.30 -24.20 -11.10 -7.75 -6.60 -17.55 -21.25 -24.05 -36.05 -14.05 -31.85 -16 -64.60 -5.10 -85.75 2.35 -4.55 7.15 -9.45 9.70 -9.95 6.05 -1.10 12.40 7.50 13.45 18.15 0.35 3.80 0.70 4.85 3.85 11.25 9.15 18.45 22.80 34.40 42.65 49.80 9.30 7.25 13.05 14.40 15 28.70 0.75 5.90 0.35 9.60 -1.75 15.50 -1.90 5.30 -3.80 8.65 -6.40 11.15 -5.05 4.85 -17.20 9.20 -23.15 8.30z"/>
  <path d="M463 283.05 c-17.15 -2.50 -30.85 -15.90 -32.30 -31.55 -0.55 -5.90 1.35 -13.45 5.75 -22.75 5.60 -11.70 10.30 -15.45 26.10 -20.75 11.90 -4.05 19.55 -7.30 25.95 -11.05 2.75 -1.60 14 -9.30 17.75 -12.10 5.55 -4.20 13.80 -12.40 16.40 -16.30 1.20 -1.80 3.15 -5.10 4.30 -7.30 3.90 -7.50 7.60 -11.25 11.95 -12.05 4.45 -0.85 9.60 3.05 11.55 8.85 3.80 11.20 3.05 32.10 -1.60 45.70 -9.25 27 -29.40 53.90 -51.85 69.35 -11.50 7.90 -23.60 11.45 -34 9.95z"/>
  <path d="M1131.75 259.95 c-12.60 -1.25 -22.05 -4.35 -33 -10.85 -10.90 -6.45 -22.65 -17.85 -33.30 -32.20 -4.65 -6.25 -7.60 -10.70 -14.70 -21.90 -2.65 -4.20 -5.75 -9.35 -16 -26.75 -15.15 -25.75 -20.10 -33.65 -27.80 -44.75 -16.55 -23.80 -35.05 -41.05 -54.35 -50.70 -22.60 -11.30 -46.05 -15.55 -75.35 -13.55 -5.50 0.35 -18.25 1.70 -19.15 2.05 -1.40 0.45 -21.75 2.20 -32.60 2.75 -12.80 0.65 -42.20 0.35 -48 -0.55 -6.20 -0.90 -17.15 -4.45 -27.50 -8.85 -7.65 -3.25 -9.05 -4.05 -21.75 -11.80 -20.20 -12.40 -27.60 -15.35 -41.45 -16.80 -5.10 -0.55 -20.90 -0.55 -27.80 0 -44.55 3.55 -89.05 21.35 -135.10 54.05 -14.50 10.30 -24.30 18.70 -54.40 46.65 -31.95 29.65 -54 48.35 -73.90 62.65 -6.35 4.60 -19.70 13.45 -24.60 16.35 -1.80 1.05 -3.80 2.30 -4.50 2.75 -0.70 0.45 -2.70 1.65 -4.50 2.60 -1.80 0.95 -5.30 2.90 -7.80 4.30 -13.85 7.70 -30.70 14.90 -43.25 18.50 -13.15 3.75 -22.20 5.10 -36.80 5.45 -23.10 0.55 -33.30 -1.45 -50.90 -10.10 -11.50 -5.65 -18.20 -10.15 -24.80 -16.70 -9.90 -9.90 -15.20 -20.20 -17.65 -34.55 -1 -5.80 -1 -11.30 -0.05 -19.90 2.90 -25.70 10 -37.90 27.10 -46.55 7.70 -3.85 16.20 -6.25 34.40 -9.55 28.95 -5.35 34.30 -7.10 40.80 -13.50 3.65 -3.55 5.90 -7.50 7.15 -12.35 2.25 -8.70 -0.20 -16.70 -7.20 -23.75 -5.25 -5.25 -8.95 -7.05 -15.25 -7.30 -5.45 -0.25 -10.20 0.75 -19.25 4.15 -25.45 9.45 -28.50 9.95 -55 9.60 -15.65 -0.20 -18.30 -0.35 -22.60 -1.30 -15.95 -3.50 -37.60 -12.15 -67.05 -26.90 -29.70 -14.80 -44.15 -21.20 -62.35 -27.45 l-9.20 -3.20 841.70 0.05 841.75 0.05 -5.25 2.55 c-10 4.90 -25.55 10.35 -35.30 12.35 -9.45 1.95 -30.90 4.50 -38 4.50 -11.95 0 -23.05 5.90 -27.55 14.70 -3.30 6.50 -3.60 10.60 -1.15 15.25 3.85 7.15 8.15 9.35 24.75 12.55 14.90 2.85 20.10 4.40 26.40 7.65 6.60 3.35 10.75 8.45 14.30 17.50 1.20 3.10 1.75 10.50 1.15 15.90 -1.90 17.35 -8.95 28.05 -23.65 35.90 -10.05 5.35 -15.40 6.55 -29.20 6.55 -15.30 0 -22.65 -1.30 -35.25 -6.35 -24.85 -9.90 -48.65 -26.70 -84.75 -59.90 -23.20 -21.30 -35.95 -28.70 -61.45 -35.70 -15.90 -4.35 -14.30 -4.20 -48.30 -4.30 -16.65 -0.05 -32.85 -0.25 -36 -0.45 -27.30 -1.65 -44.65 -5.25 -70.25 -14.45 -26.20 -9.45 -31.40 -10.35 -59.75 -10.70 -34.55 -0.45 -45.10 0.95 -83.75 10.95 -20.20 5.20 -31.30 9.50 -38.30 14.85 -15.75 11.90 -23.45 26.45 -23.45 44.25 0 15.60 6.10 29.25 18.15 40.65 13.75 12.95 26.40 16.95 60.35 19.15 14.80 1 22.40 2.40 28.25 5.35 14.25 7.25 23.95 20.15 27.05 35.95 1.15 5.80 1.15 15.95 0.05 21.70 -5.45 28 -27 49.10 -54.30 53.30 -5.15 0.75 -21.50 0.85 -28.80 0.15z"/>
  <path d="M623.55 254.75 c-10.30 -2.90 -13.50 -8.90 -11.25 -20.80 0.95 -5 2.50 -8.20 5.10 -10.30 2.15 -1.75 8.30 -5.45 12.85 -7.75 10.70 -5.45 20.15 -14.40 25 -23.80 2.15 -4.15 4.65 -6.60 6.70 -6.60 1.65 0 3.80 1.55 4.75 3.40 1 2.05 2.25 7.50 2.60 11.40 1.45 17.15 -15.60 46.45 -31.15 53.55 -3.55 1.65 -10.45 2.05 -14.60 0.90z"/>
  <path d="M951.25 251.80 c-10.35 -2.50 -18.25 -10.45 -22.70 -22.65 -3.05 -8.30 -3.10 -14.75 -0.30 -28.60 2.30 -11.55 3.15 -22.30 2.95 -37.15 -0.25 -16.15 -1.45 -23.65 -5.35 -33.75 -0.95 -2.40 -2.65 -6.85 -3.85 -9.85 -3.35 -8.80 -3.20 -13 0.70 -16.75 5.80 -5.65 18.15 -2 30.95 9.10 14.75 12.85 28.45 40.75 33.30 67.65 4.45 24.85 1.45 45.10 -8.65 58.55 -4.70 6.25 -11.80 11.25 -18.75 13.35 -3.15 0.95 -4.85 0.95 -8.30 0.10z"/>
  <path d="M1662.85 245.25 c-13.35 -2.55 -27.10 -10.60 -36 -21.15 -7.85 -9.30 -11.85 -17.55 -11.85 -24.30 0 -3.75 1.10 -6 3.85 -7.95 2.45 -1.75 3.25 -1.50 8.30 2.45 6.20 4.85 14.20 8 22.85 9 1.80 0.20 9.20 0.40 16.50 0.40 15.60 0.05 16.05 0.15 21.20 5.45 8.60 8.80 8.85 21.15 0.65 29.40 -6.15 6.15 -15.50 8.60 -25.50 6.70z"/>
  <path d="M50.65 240.80 c-11.20 -2.85 -18.60 -13.05 -16.65 -22.90 1.20 -6.10 4.60 -10.90 9.40 -13.25 l2.85 -1.40 13.50 0.15 c7.85 0.10 15.05 -0.05 17.20 -0.40 5.65 -0.80 10.75 -2.75 16.65 -6.35 6.15 -3.75 7.70 -4.05 9.80 -1.95 1.20 1.20 1.35 1.75 1.50 5.45 0.15 3.50 -0.05 4.75 -1.30 8.45 -2.10 6.25 -4.20 9.50 -9.60 14.90 -7.40 7.40 -16.40 13 -26.30 16.25 -4.80 1.60 -12.95 2.10 -17.05 1.05z"/>
  <path d="M1495.45 238.05 c-5.60 -1.25 -9.70 -2.95 -13.85 -5.75 -14.95 -9.95 -31.30 -31.85 -38.85 -52.05 -8.55 -22.85 -9.95 -41.40 -4.25 -56.15 2.45 -6.45 5 -9.10 8.95 -9.50 2.85 -0.25 5.70 1.05 7.80 3.50 0.75 0.90 3.25 5.55 5.55 10.35 4.85 10 6.75 12.65 16.20 22.05 10.75 10.75 17.25 15.75 28.50 21.75 12.10 6.55 17.05 9.85 20.10 13.50 6.05 7.30 9.35 21.10 7.35 30.85 -1.85 9.10 -9.15 17.50 -18.20 20.90 -4.30 1.60 -13.30 1.85 -19.30 0.55z"/>
  <path d="M773.30 211 c-11.20 -1.80 -20.35 -6.45 -27.45 -13.95 -5.45 -5.85 -9.10 -12.55 -10.40 -19.30 -0.75 -3.80 -0.60 -11.15 0.30 -15.05 1.05 -4.60 4.65 -11.80 7.60 -15.25 4.90 -5.65 11.35 -10.25 16.90 -12.10 4.25 -1.40 10.55 -1.25 21.75 0.45 11.40 1.80 24.55 1.95 34 0.50 20.15 -3.05 29.55 -6.60 41.45 -15.65 2.90 -2.20 6.80 -4 9.60 -4.40 4.65 -0.70 9.05 2.45 10.40 7.50 2.50 9.20 -2.85 27.15 -12.05 40.35 -15.20 21.90 -43.45 40.30 -70.60 45.95 -5.30 1.10 -17.15 1.60 -21.50 0.95z"/>
  <path d="M100.05 139.55 c-8 -3 -13.65 -9.75 -15.05 -18.05 -0.95 -5.60 1.15 -12.70 5.25 -17.80 1.90 -2.30 7.55 -6.35 12.20 -8.65 4.55 -2.30 14 -5.35 19.50 -6.25 2.60 -0.45 7.20 -0.80 10.25 -0.80 6.50 0 8.55 0.70 11.45 3.90 1.65 1.90 1.85 2.40 1.85 4.80 0 12.60 -18.50 38.25 -30.75 42.55 -3.85 1.40 -11.35 1.50 -14.70 0.30z"/>
  <path d="M642.75 132.20 c-0.55 -0.15 -2.45 -0.60 -4.25 -1 -4.30 -1.05 -9.65 -3.65 -12.90 -6.35 -4.65 -3.85 -8.75 -10.25 -10.40 -16.35 -1.35 -4.90 -1.25 -13.20 0.25 -18 2.25 -7.25 6.40 -14 10.95 -17.65 9.50 -7.60 32.70 -16.50 49.60 -19.05 12.10 -1.85 21.20 1 24.65 7.70 1.35 2.55 1.40 3.10 1.20 7 -0.40 7.75 -5.35 19.40 -13.20 31.15 -4.80 7.20 -8.15 11.30 -14.65 18.05 -5.55 5.75 -9.45 9 -12.75 10.65 -5.20 2.65 -15.10 4.70 -18.50 3.85z"/>
  <path d="M1376.90 126.90 c-1.85 -0.15 -4.50 -0.70 -5.90 -1.15 -10.95 -3.65 -25.70 -24.65 -29.30 -41.75 -1.65 -7.80 -1 -17.40 1.50 -21.75 3.15 -5.65 7.15 -4.55 10.80 2.95 2.20 4.60 4.05 7.10 8.60 11.70 5.40 5.45 11.65 10.10 19.40 14.60 6.55 3.75 9.95 6.55 11.50 9.55 2.25 4.35 2.45 13.75 0.40 18.50 -2.40 5.70 -8.30 8.25 -17 7.35z"/>
  <path d="M1211 120.95 c-5 -0.75 -11 -3.05 -15 -5.70 -7.20 -4.80 -21.15 -19.50 -27.50 -28.95 -3.45 -5.20 -7.70 -14.05 -9.05 -19.05 -0.65 -2.30 -1.10 -5.60 -1.15 -7.75 -0.10 -7 2.45 -10.65 9.05 -13 3.05 -1.10 4.15 -1.25 10.90 -1.25 14.10 0.05 32.45 4.40 46.15 11 11.80 5.65 19.10 13.55 21.45 23.10 1.05 4.45 1.05 15.85 0 19.30 -2.70 8.50 -12.35 18.30 -21.05 21.35 -3.30 1.20 -9.50 1.60 -13.80 0.95z"/>
  <path d="M34 79.20 c-5.20 -1 -9.50 -3.25 -12.50 -6.50 -2.70 -2.95 -4.10 -6.15 -4.40 -10.20 -0.20 -2.85 -0.05 -3.65 1.10 -5.90 1.45 -2.85 5.20 -6.15 8.10 -7.10 2.70 -0.90 6 -0.40 10.70 1.70 7.20 3.20 8.80 3.45 21.65 3.15 10.65 -0.20 11.45 -0.15 12.60 0.75 0.65 0.50 1.35 1.70 1.55 2.70 0.70 3.80 -4.50 10.70 -11.55 15.30 -4.65 3 -5 3.15 -9.55 4.70 -3.25 1.10 -5.05 1.35 -10.20 1.45 -3.45 0.10 -6.80 0.05 -7.50 -0.05z"/>
  <path d="M1694.65 69.55 c-6.95 -1.75 -17.75 -14.50 -19.70 -23.35 -0.80 -3.45 0.05 -6.55 2.05 -7.55 2.65 -1.35 12.55 -0.35 19.30 1.85 9.05 3.05 15.75 10.30 15.05 16.30 -0.40 3.55 -2.95 8.25 -5.45 10 -3.60 2.55 -7.85 3.60 -11.25 2.75z"/>
 </g>
</svg>