<?xml version="1.0" encoding="UTF-8" standalone="no"?>
<svg
   version="1.0"
   width="2048px"
   height="2048px"
   viewBox="0 0 2048 2048"
   preserveAspectRatio="xMidYMid meet"
   id="svg464"
   sodipodi:docname="Photo.svg"
   xml:space="preserve"
   inkscape:version="1.2.2 (732a01da63, 2022-12-09)"
   xmlns:inkscape="http://www.inkscape.org/namespaces/inkscape"
   xmlns:sodipodi="http://sodipodi.sourceforge.net/DTD/sodipodi-0.dtd"
   xmlns="http://www.w3.org/2000/svg"
   xmlns:svg="http://www.w3.org/2000/svg"><defs
     id="defs468"><filter
       id="mask-powermask-path-effect5258_inverse"
       inkscape:label="filtermask-powermask-path-effect5258"
       style="color-interpolation-filters:sRGB"
       height="100"
       width="100"
       x="-50"
       y="-50"><feColorMatrix
         id="mask-powermask-path-effect5258_primitive1"
         values="1"
         type="saturate"
         result="fbSourceGraphic" /><feColorMatrix
         id="mask-powermask-path-effect5258_primitive2"
         values="-1 0 0 0 1 0 -1 0 0 1 0 0 -1 0 1 0 0 0 1 0 "
         in="fbSourceGraphic" /></filter><filter
       id="mask-powermask-path-effect5263_inverse"
       inkscape:label="filtermask-powermask-path-effect5263"
       style="color-interpolation-filters:sRGB"
       height="100"
       width="100"
       x="-50"
       y="-50"><feColorMatrix
         id="mask-powermask-path-effect5263_primitive1"
         values="1"
         type="saturate"
         result="fbSourceGraphic" /><feColorMatrix
         id="mask-powermask-path-effect5263_primitive2"
         values="-1 0 0 0 1 0 -1 0 0 1 0 0 -1 0 1 0 0 0 1 0 "
         in="fbSourceGraphic" /></filter><filter
       id="mask-powermask-path-effect5268_inverse"
       inkscape:label="filtermask-powermask-path-effect5268"
       style="color-interpolation-filters:sRGB"
       height="100"
       width="100"
       x="-50"
       y="-50"><feColorMatrix
         id="mask-powermask-path-effect5268_primitive1"
         values="1"
         type="saturate"
         result="fbSourceGraphic" /><feColorMatrix
         id="mask-powermask-path-effect5268_primitive2"
         values="-1 0 0 0 1 0 -1 0 0 1 0 0 -1 0 1 0 0 0 1 0 "
         in="fbSourceGraphic" /></filter><mask
       maskUnits="userSpaceOnUse"
       id="mask5369"><path
         d="m 1667.9814,132.24221 c 158.14,171.35693 145.2785,583.29405 239.4204,821.92166 94.1419,238.17223 179.009,520.43393 70.0268,680.88223 -108.5183,160.9027 -410.8857,200.9012 -678.4717,266.3531 -267.5858,65.9065 -499.92646,157.7211 -722.06456,121.8135 -222.1383,-35.4531 -434.5376,-199.0831 -510.129505,-402.7116 -75.5917998,-204.0828 -15.3038,-448.6187 54.723005,-666.79175 70.0268,-217.71934 148.865,-408.62096 291.2374,-582.70507 142.3727,-173.62958 347.8156,-330.4416 557.8962,-334.98688 209.61666,-4.99981 539.05446,-74.6776 697.65816,96.22481"
         fill="#ffffff"
         id="path5371"
         style="display:inline;stroke-width:4.59117"
         sodipodi:nodetypes="cccccccccc" /></mask><mask
       maskUnits="userSpaceOnUse"
       id="mask5373"><path
         d="m 1667.9814,132.24221 c 158.14,171.35693 145.2785,583.29405 239.4204,821.92166 94.1419,238.17223 179.009,520.43393 70.0268,680.88223 -108.5183,160.9027 -410.8857,200.9012 -678.4717,266.3531 -267.5858,65.9065 -499.92646,157.7211 -722.06456,121.8135 -222.1383,-35.4531 -434.5376,-199.0831 -510.129505,-402.7116 -75.5917998,-204.0828 -15.3038,-448.6187 54.723005,-666.79175 70.0268,-217.71934 148.865,-408.62096 291.2374,-582.70507 142.3727,-173.62958 347.8156,-330.4416 557.8962,-334.98688 209.61666,-4.99981 539.05446,-74.6776 697.65816,96.22481"
         fill="#ffffff"
         id="path5375"
         style="display:inline;stroke-width:4.59117"
         sodipodi:nodetypes="cccccccccc" /></mask><mask
       maskUnits="userSpaceOnUse"
       id="mask5377"><path
         d="m 1667.9814,132.24221 c 158.14,171.35693 145.2785,583.29405 239.4204,821.92166 94.1419,238.17223 179.009,520.43393 70.0268,680.88223 -108.5183,160.9027 -410.8857,200.9012 -678.4717,266.3531 -267.5858,65.9065 -499.92646,157.7211 -722.06456,121.8135 -222.1383,-35.4531 -434.5376,-199.0831 -510.129505,-402.7116 -75.5917998,-204.0828 -15.3038,-448.6187 54.723005,-666.79175 70.0268,-217.71934 148.865,-408.62096 291.2374,-582.70507 142.3727,-173.62958 347.8156,-330.4416 557.8962,-334.98688 209.61666,-4.99981 539.05446,-74.6776 697.65816,96.22481"
         fill="#ffffff"
         id="path5379"
         style="display:inline;stroke-width:4.59117"
         sodipodi:nodetypes="cccccccccc" /></mask><mask
       maskUnits="userSpaceOnUse"
       id="mask5381"><path
         d="m 1667.9814,132.24221 c 158.14,171.35693 145.2785,583.29405 239.4204,821.92166 94.1419,238.17223 179.009,520.43393 70.0268,680.88223 -108.5183,160.9027 -410.8857,200.9012 -678.4717,266.3531 -267.5858,65.9065 -499.92646,157.7211 -722.06456,121.8135 -222.1383,-35.4531 -434.5376,-199.0831 -510.129505,-402.7116 -75.5917998,-204.0828 -15.3038,-448.6187 54.723005,-666.79175 70.0268,-217.71934 148.865,-408.62096 291.2374,-582.70507 142.3727,-173.62958 347.8156,-330.4416 557.8962,-334.98688 209.61666,-4.99981 539.05446,-74.6776 697.65816,96.22481"
         fill="#ffffff"
         id="path5383"
         style="display:inline;stroke-width:4.59117"
         sodipodi:nodetypes="cccccccccc" /></mask><mask
       maskUnits="userSpaceOnUse"
       id="mask5385"><path
         d="m 1667.9814,132.24221 c 158.14,171.35693 145.2785,583.29405 239.4204,821.92166 94.1419,238.17223 179.009,520.43393 70.0268,680.88223 -108.5183,160.9027 -410.8857,200.9012 -678.4717,266.3531 -267.5858,65.9065 -499.92646,157.7211 -722.06456,121.8135 -222.1383,-35.4531 -434.5376,-199.0831 -510.129505,-402.7116 -75.5917998,-204.0828 -15.3038,-448.6187 54.723005,-666.79175 70.0268,-217.71934 148.865,-408.62096 291.2374,-582.70507 142.3727,-173.62958 347.8156,-330.4416 557.8962,-334.98688 209.61666,-4.99981 539.05446,-74.6776 697.65816,96.22481"
         fill="#ffffff"
         id="path5387"
         style="display:inline;stroke-width:4.59117"
         sodipodi:nodetypes="cccccccccc" /></mask><mask
       maskUnits="userSpaceOnUse"
       id="mask5389"><path
         d="m 1667.9814,132.24221 c 158.14,171.35693 145.2785,583.29405 239.4204,821.92166 94.1419,238.17223 179.009,520.43393 70.0268,680.88223 -108.5183,160.9027 -410.8857,200.9012 -678.4717,266.3531 -267.5858,65.9065 -499.92646,157.7211 -722.06456,121.8135 -222.1383,-35.4531 -434.5376,-199.0831 -510.129505,-402.7116 -75.5917998,-204.0828 -15.3038,-448.6187 54.723005,-666.79175 70.0268,-217.71934 148.865,-408.62096 291.2374,-582.70507 142.3727,-173.62958 347.8156,-330.4416 557.8962,-334.98688 209.61666,-4.99981 539.05446,-74.6776 697.65816,96.22481"
         fill="#ffffff"
         id="path5391"
         style="display:inline;stroke-width:4.59117"
         sodipodi:nodetypes="cccccccccc" /></mask></defs><sodipodi:namedview
     id="namedview466"
     pagecolor="#ffffff"
     bordercolor="#000000"
     borderopacity="0.25"
     inkscape:showpageshadow="2"
     inkscape:pageopacity="0.0"
     inkscape:pagecheckerboard="true"
     inkscape:deskcolor="#d1d1d1"
     showgrid="false"
     inkscape:zoom="0.22392792"
     inkscape:cx="772.57004"
     inkscape:cy="1426.7984"
     inkscape:window-width="1278"
     inkscape:window-height="1000"
     inkscape:window-x="-7"
     inkscape:window-y="0"
     inkscape:window-maximized="0"
     inkscape:current-layer="g434" /><path
     d="m 1670.9865,131.21735 c 158.14,171.35693 145.2785,583.29405 239.4204,821.92166 94.1419,238.17219 179.009,520.43389 70.0268,680.88219 -108.5183,160.9028 -410.8857,200.9013 -678.4717,266.3532 -267.5858,65.9065 -499.92656,157.7211 -722.06466,121.8135 C 357.75907,1986.7348 145.35977,1823.1048 69.767858,1619.4762 -5.8239317,1415.3934 54.464058,1170.8575 124.49087,952.68449 194.51767,734.96515 273.35587,544.06353 415.72827,369.97942 558.10094,196.34984 763.54384,39.537814 973.62444,34.992534 c 209.61676,-4.99981 539.05456,-74.6776 697.65826,96.224816"
     fill="#ffffff"
     id="path3167-2"
     style="display:inline;stroke-width:4.59117"
     sodipodi:nodetypes="cccccccccc" /><g
     fill="#f65e1e"
     id="g322"><path
       d="M0 1880.5 l0 -167.5 11.8 0 c6.4 0 17.5 0.7 24.5 1.6 10.3 1.3 13.3 1.4 15.2 0.4 2.4 -1.3 8.4 -0.5 18.9 2.6 2.7 0.8 5 1.3 5.1 1.1 0.1 -0.1 4.4 -6 9.6 -13.2 5.2 -7.1 14.2 -19.7 19.9 -28 14.5 -20.8 32.5 -44.8 44.2 -58.7 8.9 -10.6 32.9 -36.8 36 -39.3 0.7 -0.6 5.1 -4.4 9.8 -8.5 21.6 -19.1 39.4 -31 67.5 -45.2 11 -5.5 23.1 -12.1 26.9 -14.6 21.6 -14.3 34.6 -36.7 43.1 -74.2 l3.2 -14.5 3.4 -0.3 c3.4 -0.2 3.4 -0.2 7.3 8.8 15.2 35.5 51.3 77.1 87.9 101.6 21.1 14.1 46.3 24.9 61.1 26.1 l6.8 0.6 -1.2 -2.4 c-7.1 -13.4 -27.6 -34.3 -50.8 -51.9 -9 -6.8 -19.9 -15.7 -24.3 -19.8 -6.9 -6.4 -7.9 -7.9 -7.9 -10.8 0 -5.8 4.1 -4.8 19.7 5.2 24.6 15.5 43.5 24.6 63.6 30.4 27.9 8 55.9 7.7 64.1 -0.9 l2.5 -2.6 -2 -3.2 c-4.4 -6.9 -20.7 -17 -42.2 -26.2 -24.4 -10.5 -46.4 -23 -67.7 -38.4 -7.3 -5.3 -8 -6.1 -8 -9.3 0 -3.2 0.2 -3.4 3.3 -3.4 1.7 0 7 1.3 11.7 2.9 12.2 4.2 31.4 9.7 40.1 11.5 11.1 2.3 25.1 3.8 26.1 2.8 1.3 -1.3 -13 -10.1 -31 -19.2 -16.2 -8.1 -16.2 -8.1 -16.2 -11.6 0 -4.2 1 -4.3 15.3 -1.2 16.1 3.5 44.7 2.8 44.7 -1.1 0 -1.7 -10.4 -5.3 -29.4 -10.1 -10.7 -2.7 -21.4 -5.7 -23.8 -6.6 -15.5 -5.8 -14.8 -5.4 -14.8 -9 0 -3.3 0.1 -3.4 4.3 -3.4 2.3 0 7.8 0.7 12.2 1.6 12.8 2.6 29.9 2.2 41.7 -1 5.4 -1.4 11.3 -3.2 13 -4 l3.3 -1.4 -6 -2.7 c-11.5 -5.1 -13.1 -5.9 -21.5 -10.9 -26.1 -15.2 -45.8 -37.2 -60 -67.1 -6.8 -14.3 -12 -28.9 -12 -33.9 0 -3.4 0.2 -3.6 3.3 -3.6 3 0 3.4 0.5 7.5 8.4 9.1 17.8 21.4 34 44.5 58.6 l8 8.5 -5.7 -11 c-6.8 -13.4 -14.7 -24.5 -32.4 -45.8 -24.2 -29.2 -30.9 -38.5 -35.5 -49.8 -2.1 -5.2 -2.2 -6.7 -2.3 -37.4 -0.2 -48.3 -1.8 -54.2 -24.2 -89.8 -4.1 -6.6 -9 -15.3 -10.9 -19.4 l-3.6 -7.5 0.6 -15.6 c0.3 -8.6 1.5 -23.1 2.7 -32.2 4 -32.8 3.6 -58.2 -1.1 -73.7 -2.7 -8.5 -4.4 -11.1 -8.2 -12.1 l-3 -0.8 5 -4.4 c2.7 -2.5 11.1 -8.2 18.6 -12.8 7.4 -4.5 17.1 -10.9 21.5 -14.1 18.2 -13.5 50 -48.1 134.9 -146.7 l12.2 -14.1 8 2.7 c4.4 1.5 7.7 2.2 7.3 1.6 -0.3 -0.6 -2.4 -3.7 -4.5 -7 l-3.9 -5.8 3.3 -3.3 3.4 -3.3 12.5 0.9 c19.1 1.4 32 4.4 47.5 11.3 l6 2.7 -8.1 -8.3 c-20.7 -21.2 -27.4 -30.1 -27.4 -36.3 0 -2.4 1.1 -3.2 11.2 -8 6.2 -2.9 20.2 -9 31 -13.5 22.1 -9.2 34 -16 53.3 -30.5 l13 -9.7 -0.3 -57.4 -0.2 -57.3 4.2 -0.3 4.3 -0.3 0.3 -20.2 0.2 -20.2 -3.7 -2.8 c-2.1 -1.5 -4.1 -3.2 -4.5 -3.8 -0.4 -0.5 -0.7 -30.9 -0.5 -67.5 l0.2 -66.5 4.8 -2.3 4.7 -2.2 0 -36 c0 -33.6 0.1 -36 1.8 -36 0.9 0.1 7.1 1.6 13.7 3.4 l12 3.4 0 165.5 0 165.6 -3.1 3.3 c-1.7 1.8 -7 8.3 -11.7 14.4 -10.2 13.2 -16.9 19.4 -21.1 19.4 -4.4 0 -1.9 2.2 8.7 7.4 23.2 11.3 48.4 11.7 69 0.9 5.4 -2.8 10.3 -6.8 19.4 -15.7 7.7 -7.5 14.4 -13.1 18 -15 5.9 -3.2 15.3 -9.4 15.3 -10.1 0 -0.2 -2 0.3 -4.5 1.2 -6.7 2.2 -24 1.5 -27.7 -1.2 -6 -4.5 -8.5 -15.4 -6.9 -29.7 1.9 -16.5 9.1 -31.6 21.1 -44.1 l6.7 -7.1 6.4 1.8 c19.3 5.3 36.4 22.5 45 45.2 2.6 6.7 3.6 8.3 4.9 7.9 1.4 -0.4 2 0.6 3 5.2 1.8 8.6 2.5 33.7 1 43.4 -3.8 26.1 -24.3 68.3 -49.9 102.4 -22.5 30.2 -52.1 59.9 -81.8 82.2 l-11.3 8.5 0 332.9 0 332.9 -4.1 0 c-3.3 0 -12.1 -2.1 -24.1 -5.6 -1.7 -0.5 -1.8 -3.2 -1.8 -38.3 0 -29.3 0.3 -38.9 1.4 -43.1 11.9 -46 12.4 -91.6 1.6 -143.5 -2.1 -9.9 -2.1 -11.9 -2.7 -218.5 l-0.5 -208.5 -8.3 -1.2 c-4.5 -0.6 -11 -1.9 -14.3 -2.7 -3.3 -0.9 -6.5 -1.6 -7 -1.6 -0.6 0 0.5 2.6 2.4 5.8 9.2 15.3 10.6 36.4 3.4 53.3 -5.4 12.8 -11.3 20.4 -30 38.9 -23.8 23.4 -24.5 24.5 -35.5 54.4 -9.2 24.8 -20.7 38.5 -38.3 45.8 -4.9 2 -4.1 1.9 7.8 -0.9 10.4 -2.4 37.2 -2.9 46.5 -0.8 15.4 3.4 31 13.7 42 27.7 10.1 12.8 18.5 33 21.7 52.2 1.7 10 1.6 38.2 -0.2 49.1 -2.8 17.7 -2 31.6 4.5 79 5.5 39.4 6.2 47.1 7.5 79.5 1.6 41 -2.2 88.8 -9.6 120.9 -2.3 10.1 -7.3 38.5 -8.9 50.5 -4 29.6 1.1 65 13.9 98.3 3.5 8.8 10.2 23.6 9.1 19.8 -4.8 -16.1 -5.8 -21.7 -6.2 -35.7 l-0.5 -14.8 2.7 0 c1.5 0 8.2 1.6 14.9 3.6 l12.2 3.6 1.3 8.7 c3.4 23.6 14.7 44.9 33.8 63.2 17.7 17 37.7 27.1 64.3 32.6 7.9 1.6 23.2 1.7 203.3 2 l194.8 0.3 -0.3 13.8 -0.3 13.7 -99.7 0.3 c-54.9 0.1 -99.8 0.4 -99.8 0.6 0 0.2 2.5 6.6 5.6 14.2 10.5 26.3 13.6 36.7 14.2 48.1 l0.5 10.2 -3.6 4.2 c-5.3 6.2 -6.1 9.3 -4.7 19.7 2.4 18.5 8 37.4 17.2 58.2 8.4 19.1 8.4 19.7 -4.9 48 -12.8 27.3 -21.6 48.4 -30.2 72.1 -5.3 14.7 -10 22.7 -17.3 29.4 -5.2 4.9 -6.5 5.5 -14.6 7.4 -20.7 4.9 -42 4.9 -62.2 0 -4.6 -1.1 -9 -1.7 -9.7 -1.5 -2.3 0.9 -1.4 -3.5 1.7 -8.3 3.8 -5.9 14 -16 21 -20.6 3.3 -2.2 4.5 -3.4 3 -3 -4.7 1.3 -14.9 6.3 -20.8 10.3 -5.7 3.9 -16.2 14.4 -16.2 16.3 0 0.5 -1.1 0.9 -2.4 0.9 -1.8 0 -2.3 -0.4 -2 -1.8 0.4 -1.4 -0.8 -2.1 -6.8 -3.7 l-7.3 -2 -0.3 -8.8 c-0.3 -8.3 -0.1 -9.2 2.8 -14.2 6.9 -12 19.2 -22.6 35.5 -30.5 16.1 -7.9 29.7 -11.6 51 -14 9.9 -1.1 10 -1.1 13.9 -5.3 9.8 -10.6 28 -34.4 36.1 -47.4 l5.4 -8.5 -4.4 -8.2 c-6.1 -11.4 -12.2 -27.1 -15.6 -40.6 -1.6 -6.3 -5.2 -26.6 -7.9 -45 -6.4 -42.6 -9.8 -64.8 -11.1 -72.7 l-1.1 -6.3 -47 0 c-42.5 0 -47.3 0.2 -49.9 1.7 -2.6 1.6 -4.9 1.6 -29.1 0.5 -33.2 -1.5 -53.8 -4.2 -78.3 -10.3 -19.5 -4.8 -33.3 -11.9 -46.6 -23.8 l-5.7 -5.1 4.8 7.9 c5.1 8.7 9.5 20.9 11.2 31.7 1.7 10.9 0.5 38.3 -2.1 47.5 -4.8 17.5 -13.4 33.7 -26.7 50.3 -11.9 14.7 -21.8 21.5 -31.6 21.6 -8.3 0 -12.6 -2.9 -14.7 -10 -0.5 -1.9 -1.7 -9 -2.5 -15.6 -2.6 -20.1 -6.4 -30.1 -14.8 -39 -6 -6.3 -11.9 -9 -17.9 -8 -13.4 2.1 -30.9 19.2 -41.3 40.2 -5.4 11.1 -7.4 16.9 -12.5 36.8 -8 30.8 -17.7 44.7 -43.1 61.6 -16.3 10.9 -45.7 43.9 -69.1 77.7 -5.6 8.1 -15.1 21.7 -21.1 30 -5.9 8.4 -10.8 15.7 -10.8 16.2 0 0.5 0.7 1.4 1.5 2.1 1.1 0.9 1.2 1.7 0.4 3.2 -0.9 1.6 -0.4 2.7 2.5 6.1 7.1 8.3 23.2 28.3 25.5 31.5 l2.2 3.2 -258 0 -258.1 0 0 -167.5z"
       id="path264"
       style="fill:#f6693d;fill-opacity:1"
       mask="url(#mask5389)" /><path
       d="M1122 2043.9 c9.4 -8.3 26.1 -17.9 40.7 -23.5 15.2 -5.7 41.4 -11.6 69.3 -15.4 8.5 -1.2 15.6 -2.3 15.6 -2.3 0.1 -0.1 2.9 -7.1 6.3 -15.6 9.4 -23.3 20.2 -44.3 31.3 -60.9 5.9 -8.8 6.5 -10.2 4.4 -10.2 -3 0 -1.6 -2.6 5.5 -10.4 6.7 -7.2 7.4 -7.7 10.7 -7.4 3.1 0.3 3.8 0.8 4.9 3.8 0.7 1.9 9.6 26.1 19.8 53.7 17.3 46.8 20.5 57.3 17.5 57.3 -0.5 0 -1 -0.7 -1 -1.5 0 -2.2 -0.6 -1.9 -7 2.8 -3.1 2.3 -7.8 5.4 -10.3 6.9 -3.8 2.2 -5.4 4.3 -11.3 14.7 l-6.8 12.1 -97 0 -97.1 -0.1 4.5 -4z"
       id="path266"
       style="fill:#f6693d;fill-opacity:1"
       mask="url(#mask5385)" /><path
       d="M1482 2040.8 c0 -4 -0.5 -12.5 -1 -18.8 -3.3 -36.6 -9.5 -60.2 -26.5 -100 -17.1 -40.2 -20.8 -54.8 -22.5 -89.5 -1.4 -27.7 -2.6 -38.8 -6.2 -54.4 -6.7 -30 -17.4 -55.3 -31.1 -73.7 -8.8 -11.7 -17.1 -19.4 -34.8 -32.2 -20.6 -14.9 -29 -25.5 -34 -42.2 -1.9 -6.6 -2.2 -10.9 -2.9 -37 -0.6 -26 -0.9 -30.2 -2.7 -35 -4.9 -13.3 -10.7 -20.6 -26.2 -32.5 -9.7 -7.5 -14.9 -13.7 -17 -20.5 -0.6 -1.9 -2.2 -9.6 -3.5 -17 -1.4 -7.4 -3.9 -17.8 -5.5 -23.1 -5.6 -18.2 -6.3 -28.1 -2.6 -35.3 0.8 -1.6 1.5 -2.9 1.5 -3.1 0 -0.1 -3.6 -0.5 -8.1 -0.8 -10.3 -0.7 -14.6 -3.2 -18.4 -11.1 -2.6 -5.3 -2.7 -6.2 -2.3 -16.8 0.4 -12.4 1.7 -16.2 8.1 -23.5 2.3 -2.7 2.7 -3.4 1.2 -2.8 -1.1 0.5 -7.3 1.1 -13.7 1.3 -11 0.3 -12.1 0.2 -17.5 -2.3 -6.8 -3.1 -11.1 -6.9 -16.5 -14.8 -7 -10.3 -9.1 -16 -8.6 -23.2 1.1 -13 10.4 -26.7 24.6 -36.4 3.5 -2.4 6.2 -4.4 6 -4.6 -0.2 -0.1 -3.4 0.4 -7.1 1.1 -4.8 1 -12.2 1.4 -24.5 1.2 l-17.6 -0.3 -1.8 -8.2 c-1 -4.6 -4.5 -15.8 -7.9 -25 -9.6 -26.5 -11.1 -33.2 -11.6 -51.4 -0.5 -13.7 -0.3 -16.4 1.6 -23.3 1.2 -4.3 3 -9.5 4.1 -11.6 1.9 -3.6 2.4 -4 9.7 -5.7 5.9 -1.4 11.8 -1.8 24.3 -1.8 18.3 0 26.4 1.5 40 7.6 6.5 2.9 7.2 3.6 11.5 10.5 7.8 12.4 25.7 51.7 29.5 64.7 1.7 5.8 1.9 6 1.9 2.4 0.2 -9 -5.3 -28.3 -13.3 -46.4 -2 -4.5 -3.6 -9.6 -3.6 -11.3 l0 -3.2 9.2 8.3 c16.5 15.1 42.5 45 61.7 71.1 3.6 4.8 6.6 8.6 6.8 8.4 0.2 -0.2 -0.6 -2.8 -1.7 -5.7 -2.5 -6.4 -2.3 -6.2 6.7 6.1 38.1 52.3 52.1 77.8 63.8 116.3 3.1 10.4 4.2 12.8 5.9 13.2 5.3 1.1 31.8 4.6 32.8 4.3 0.6 -0.2 -1.9 -2.2 -5.5 -4.3 -6.5 -3.8 -6.7 -4.1 -6.7 -7.8 l0 -4 8.8 0.7 c12.1 0.9 13 -0.3 3.2 -4.3 -7.8 -3.2 -8 -3.3 -8 -6.7 0 -3.3 0.1 -3.4 4.3 -3.3 2.3 0 7.6 0.6 11.7 1.3 7.4 1.4 7.4 1.4 5 -0.6 -10.2 -7.9 -12 -9.9 -12 -13.4 0 -3.3 0.1 -3.4 3.8 -3.4 2 0 5.7 1 8.2 2.1 6.3 2.9 16.5 6 15.1 4.6 -0.6 -0.6 -1.1 -2.8 -1.1 -4.9 0 -3.7 0.1 -3.8 3.5 -3.8 2 0 5 0.7 6.8 1.6 3.2 1.7 3.2 1.6 1.5 -0.3 -1 -1.1 -1.8 -3.4 -1.8 -5.1 0 -3 0.2 -3.2 3.8 -3.2 5 0 16.1 7.2 27.1 17.6 8 7.5 9.4 8.2 6.6 3.4 -0.8 -1.4 -1.4 -4 -1.5 -5.7 0 -3.1 0.2 -3.3 3.5 -3.3 3.4 0 4 0.6 13.4 13.4 15.3 20.6 27.1 39.5 27.1 43.4 l0 3.2 -70.5 0 c-38.8 0 -70.5 0.2 -70.5 0.5 0 1.1 19.8 35.8 27.2 47.8 21.8 35 55.8 79.7 60.7 79.7 5.6 0 28.5 -14.5 37.4 -23.8 3.5 -3.6 4.1 -5.1 7.3 -18.1 10.9 -45.3 26.3 -78.8 55.2 -120.4 l7.7 -11.2 0.5 -555 0.5 -554.9 14 -4.3 c7.7 -2.3 15.9 -4.2 18.3 -4.3 l4.3 0 -0.3 39 c-0.3 33.4 -0.5 39.2 -1.8 40 -1.3 0.8 -1.5 11.7 -1.5 88.4 0 68.7 0.3 87.8 1.3 88.8 0.9 0.9 1.2 51.3 1.2 245.1 0 163.4 0.3 243.6 1 243.2 0.6 -0.3 1.7 -2 2.6 -3.7 1.4 -2.7 1.4 -3.1 0 -4.7 -1.4 -1.6 -1.6 -10 -1.6 -77.4 0 -66.6 0.2 -75.7 1.5 -75.7 0.8 0 1.5 0.6 1.5 1.3 0 0.7 2.6 2.1 5.8 3.1 22 7 41.8 24.5 51.7 45.8 1.8 4.1 4.4 12.1 5.5 17.9 3.8 18 1.6 34.5 -6.6 50.4 l-4.3 8.4 18.4 24.5 c21.6 28.8 29.4 39.9 36.2 52.1 12.3 21.8 16.8 37.5 19.7 68.6 4 42.3 4.9 63.7 5.2 114.9 0.3 60.3 1.3 74.4 7.9 102.6 5.4 23.1 13.1 43.6 27.4 72.7 5.5 11.1 11.1 23.6 12.5 27.7 7.8 23.2 10.3 56.5 7.5 98.8 l-1 16.3 5.1 5.6 c15.3 16.7 23.8 36.3 26.1 60.3 1.1 11.7 0.7 21.6 -2.2 46 -2.1 18.6 -2.5 47.2 -0.8 66.5 2.8 33.2 10.7 90.1 22.8 164.5 4.8 29.5 7.5 49.4 9.6 69.5 1.6 16.2 5.5 70.7 5.5 77.4 l0 4.1 -212.5 0 -212.5 0 0 -7.2z m96.3 -426.2 c3.2 -1.4 3.1 -1.4 -3.4 -1.5 -13.6 -0.2 -22.8 -5.3 -34 -18.9 -6.2 -7.5 -7 -8.9 -6.7 -12.1 0.3 -3.3 0.6 -3.6 4.5 -4.3 9.9 -1.6 18.1 -9.3 31.4 -29.3 4.4 -6.6 6.6 -10.2 4.8 -8 -6.3 7.8 -19.7 20.1 -26 23.8 -9.1 5.4 -15.2 6.9 -25.8 6.5 l-8.9 -0.3 4.9 7 c13.8 20 28.5 33 42.7 37.6 6.1 2 11.1 1.8 16.5 -0.5z m57.6 -251.3 l9.1 -9.8 -6.7 -0.8 c-4.6 -0.5 -7.4 -1.4 -8.9 -2.8 l-2.2 -2.1 -0.6 2.9 c-0.3 1.5 -1 6.6 -1.6 11.3 -0.6 4.7 -1.3 9.5 -1.6 10.8 -0.4 2 -0.2 2.2 1.5 1.3 1 -0.6 6 -5.5 11 -10.8z"
       id="path268"
       style="fill:#f6693d;fill-opacity:1"
       mask="url(#mask5381)" /><path
       d="M1231.7 1844.4 c-3.3 -0.8 -7.1 -2.3 -8.7 -3.4 -3.9 -2.8 -8.5 -10.4 -10.5 -17.4 -2.4 -8.1 -1.6 -22.9 1.5 -30.6 3.7 -9.5 12.9 -22 24.5 -33.6 13.1 -13.2 20.4 -18.4 25.6 -18.4 3.3 0 3.7 0.3 4.3 3.1 0.3 1.7 0.6 5 0.6 7.3 0 11.2 6 42.2 12.2 63.1 2.3 7.7 4.4 16.3 4.6 19.1 l0.4 5.1 -5.2 2.2 c-2.9 1.2 -8.2 2.9 -11.9 3.7 -8.5 1.8 -29.7 1.7 -37.4 -0.2z"
       id="path270"
       style="fill:#f6693d;fill-opacity:1" /><path
       d="M751.3 1540.8 l-10.3 -3.1 0 -19.3 0 -19.4 2.5 0 c3.2 0 24.6 5.9 26.3 7.2 0.9 0.8 1.2 5.9 1.2 19.4 l0 18.4 -4.7 -0.1 c-2.7 -0.1 -9.4 -1.5 -15 -3.1z"
       id="path272"
       style="fill:#f6693d;fill-opacity:1" /><path
       d="M1562 1343.9 c-6.9 -3.7 -19 -9.9 -27 -13.6 -8 -3.7 -15 -7.1 -15.6 -7.5 -0.6 -0.5 -1.4 -4.7 -1.8 -9.4 -3.6 -43.7 -21.8 -98.8 -45.8 -138.2 -4.2 -6.9 -5.4 -14.1 -2 -12.3 0.9 0.6 10.4 1.9 21 3.1 26.7 2.8 55.9 8.6 85 16.6 1.6 0.5 2.2 0.2 2.2 -1 0 -0.9 0.7 -1.6 1.5 -1.6 1.3 0 1.5 10.2 1.5 85.5 l0 85.5 -3.2 -0.1 c-2 -0.1 -8.2 -2.8 -15.8 -7z"
       id="path274"
       style="fill:#f6693d;fill-opacity:1" /><path
       d="M1069.5 1130.2 c0.6 -0.6 4.8 -2.2 9.5 -3.6 4.7 -1.4 16.1 -5 25.4 -8.1 18.7 -6.1 17.6 -5.8 17.6 -4.6 0 1.6 -10.4 8 -17.1 10.5 -9.7 3.6 -38 8.2 -35.4 5.8z"
       id="path276"
       style="fill:#f6693d;fill-opacity:1" /><path
       d="M1049.5 1127.4 c-1.1 -0.3 -3 -0.7 -4.2 -1 -1.8 -0.3 -2.3 -1.1 -2.3 -3.7 0 -2.8 0.5 -3.6 3.5 -5 2 -0.9 4.9 -1.7 6.5 -1.7 1.6 0 3.2 -0.4 3.5 -1 0.3 -0.5 1.3 -1 2.2 -1 0.9 0 5.9 -2 11.2 -4.5 l9.5 -4.6 -4.4 -2.6 c-7.3 -4.3 -10.6 -7.1 -15 -12.7 l-4 -5.3 -1.1 -21.9 c-0.5 -12 -0.7 -23.2 -0.3 -24.9 1 -4.4 8.9 -17.9 16 -27 7.3 -9.4 18.3 -20.3 27.4 -26.9 7.1 -5.3 7 -5.3 8.4 3 l0.7 4.2 -7.3 6 c-9.4 7.6 -23.6 22.6 -28.8 30.3 -4.6 6.6 -10 17.6 -10 19.9 0.1 0.8 1.2 -1.2 2.6 -4.5 3.5 -8.2 10.2 -17.3 20.4 -27.9 8 -8.3 22.2 -20.6 23.9 -20.6 0.6 0 4.4 13.5 3.8 13.5 -0.1 0 -2.9 1.3 -6.2 3 -4.1 2 -9 5.9 -15.3 12.2 -5.2 5.1 -9.9 9.3 -10.5 9.3 -0.7 0 -3.1 0.9 -5.4 1.9 -4.4 2 -6.7 4.8 -7.8 9.4 -0.6 2.4 -0.5 2.7 1.9 2.7 1.9 0 2.6 0.5 2.6 2 0 1.1 -0.9 2.4 -1.9 2.8 -1.9 0.7 -1.9 0.8 0.4 6.6 3.4 8.4 9.1 16.2 15 20.7 11.4 8.6 21.2 9 32.5 1.4 2.9 -1.9 5.4 -3.5 5.7 -3.5 0.2 0 3.1 1.8 6.4 4.1 3.3 2.2 7.3 4.5 8.9 5.1 1.7 0.5 3 1.6 3 2.3 0 3.6 -15.2 13.1 -23.8 15 -2 0.4 -5.3 2.7 -8.5 5.8 -2.8 2.9 -7.9 6.6 -11.2 8.3 -7.4 3.9 -18.2 7.7 -19.4 6.9 -0.5 -0.3 -3.3 0.4 -6.3 1.6 -5.2 2 -17.9 3.4 -22.3 2.3z m37.7 -8.3 c5.6 -3.3 16.5 -10.9 20.3 -14.3 0.5 -0.4 0 -0.8 -1.3 -0.8 -1.3 0 -5 2.5 -9 6.3 -3.7 3.4 -9.5 7.7 -12.8 9.4 -3.2 1.8 -5.4 3.3 -4.9 3.3 0.6 0 4 -1.8 7.7 -3.9z"
       id="path278"
       style="fill:#f6693d;fill-opacity:1" /><path
       d="M1194.5 1087.1 c-3.6 -0.9 -9.9 -4.1 -9.2 -4.7 0.2 -0.2 2.4 0.3 4.8 1.2 6.1 2.2 20.6 2.9 31.7 1.5 13.6 -1.7 22.6 -5.4 32.4 -13.2 l2.6 -2.2 2.8 2.2 c4.2 3.3 10 4.4 22.7 4.3 10.9 -0.2 11.7 -0.1 11.7 1.7 0 1.6 -1 1.9 -7.2 2.3 -5.4 0.4 -7.6 0.2 -8.4 -0.8 -0.9 -1.2 -1.6 -1.2 -4 0.1 -10.2 5.1 -67.7 10.5 -79.9 7.6z"
       id="path280"
       style="fill:#f6693d;fill-opacity:1" /><path
       d="M1342.2 1082.6 c1 -0.7 3.4 -4.8 5.5 -9.2 3.4 -7.1 3.8 -8.7 3.8 -16 0 -7.2 -0.3 -8.6 -3 -12.9 -4.1 -6.7 -9.9 -10.8 -18.9 -13.6 -9.7 -3 -10 -4.9 -0.8 -4.9 7.1 0 15.1 1.9 21.3 5 9.8 5 18.9 17.2 18.9 25.2 0 9.4 -16.6 27.8 -24.9 27.8 -3.2 -0.1 -3.4 -0.2 -1.9 -1.4z"
       id="path282"
       style="fill:#f6693d;fill-opacity:1" /><path
       d="M1052 1070.5 l0 -8.6 -4.8 0.7 c-4.2 0.5 -5.5 0.2 -9.3 -2.1 -8.9 -5.5 -9.1 -5.8 -8.4 -15.5 2.3 -34 15.1 -59.4 39 -77 5.6 -4.1 21.5 -12.5 21.5 -11.3 -0.1 0.5 -3 3 -6.6 5.7 -6.8 5.1 -14.4 14.4 -19.4 23.9 -6.4 11.8 -11 29.8 -11 42.7 0 3.8 -0.5 8.1 -1 9.6 -0.6 1.6 -0.7 3 -0.2 3.3 1.2 0.8 2.3 37.1 1.1 37.1 -0.5 0 -0.9 -3.8 -0.9 -8.5z"
       id="path284"
       style="fill:#f6693d;fill-opacity:1" /><path
       d="M1187.3 1049.9 c0.7 -12.5 2.8 -21.4 6.7 -28.6 l2.8 -5.3 -5.2 0 c-3.9 0 -5.7 -0.5 -6.9 -1.8 -1 -1 -1.7 -2.2 -1.7 -2.6 0 -0.4 2.7 -3.6 5.9 -7 6.3 -6.5 8.1 -9.8 8.1 -14.7 0 -4.1 -2.2 -7.1 -8.8 -12 -3.1 -2.3 -7.6 -6 -9.9 -8.2 -6.8 -6.5 -5.6 -11.2 3.6 -13.7 5.8 -1.5 8.6 -3.5 10.1 -7 1.4 -3.5 0.8 -5.5 -3.6 -12.1 -4.5 -6.8 -4.6 -11.1 -0.1 -16.8 7.6 -10 7.7 -10.2 7.7 -15.7 0 -2.9 -0.9 -9 -2 -13.6 -1.1 -4.6 -2 -11.1 -2 -14.5 0 -5.3 0.3 -6.3 1.8 -6.3 0.9 0 2.7 1.7 3.9 3.9 1.3 2.2 6.9 8.1 12.5 13.3 23.5 21.3 26.8 26.1 27.5 39.7 0.4 8 0.3 9 -2.4 14.1 -1.9 3.7 -4.7 7 -8.8 10.3 -6.8 5.4 -10.5 10.8 -10.5 15.3 0 1.7 1.1 6.8 2.5 11.4 1.7 5.5 2.5 10.8 2.5 15.5 0 6.8 -0.3 7.6 -4 13.1 -2.1 3.2 -3.7 6 -3.5 6.2 1.2 1.3 24.4 -6.8 42.3 -14.7 5.1 -2.3 10.8 -4.1 12.7 -4.1 3.3 0 3.5 0.2 3.5 3.3 0 2.6 -0.6 3.6 -3.2 5.1 -8.5 4.9 -34 21.4 -39.8 25.8 -4.9 3.7 -7.2 4.8 -9.6 4.6 -4.2 -0.3 -8.1 2.7 -21.8 16.6 l-10.9 11.1 0.6 -10.6z"
       id="path286"
       style="fill:#f6693d;fill-opacity:1" /><path
       d="M1377.4 1048.8 c-10.4 -20.9 -23.7 -32.7 -51 -45.4 -12.2 -5.7 -12.4 -5.8 -12.4 -9.1 0 -3.1 0.2 -3.3 3.4 -3.3 1.9 0 7.4 1 12.3 2.1 16.5 4.1 29.8 2.6 33.9 -3.7 1.4 -2 1.3 -2.7 -1.1 -7.4 -1.9 -3.8 -2.5 -6.3 -2.3 -9.7 0.3 -4.4 0.5 -4.7 4.2 -5.9 5.9 -2.1 10.6 -5.3 10 -6.9 -0.3 -0.8 -4 -4.1 -8.3 -7.4 -23.1 -17.8 -24.5 -27.6 -8.6 -59.6 4.1 -8.2 8.3 -18 9.2 -21.7 1.3 -5 2.2 -6.8 3.4 -6.8 1.9 0 2.5 3 3.5 17.3 0.5 6.1 0.1 12.3 -1.1 20.2 -3.5 23.3 -1.6 32.3 10.4 48.8 6.7 9.2 9.5 14.9 8.6 17.7 -0.6 1.9 -6.6 7.6 -10 9.5 -1.7 1 -1.4 1.9 3.5 11.5 13.2 25.8 14.1 27.8 15.5 35.5 2.1 10.9 0.8 17.1 -4.7 23.1 -2.7 2.9 -5.2 4.6 -7.5 5 -2.3 0.4 -3.3 1.1 -2.9 2 0.4 1 -0.2 1.4 -1.9 1.4 -2.1 0 -3.1 -1.2 -6.1 -7.2z"
       id="path288"
       style="fill:#f6693d;fill-opacity:1" /><path
       d="M1020.1 1037.8 c-3.2 -6.8 -6 -14.7 -10.7 -30.6 -0.3 -1 -0.8 -1 -2.5 -0.1 l-2.2 1.1 2.3 -3.2 c7.3 -10.3 31 -31.3 46.8 -41.5 13.6 -8.7 37.4 -19 51.2 -22 3.2 -0.7 3.2 -0.7 2.5 2.6 -1.2 6.3 -1.5 6.7 -5.3 7.3 -6.5 1.2 -19.5 5.7 -25.3 8.8 -24.8 13.1 -43.7 41.5 -47.9 71.8 -2.2 16.5 -3.4 17.3 -8.9 5.8z"
       id="path290"
       style="fill:#f6693d;fill-opacity:1" /><path
       d="M1054.4 1026.9 c3.3 -30.8 15.5 -53.8 35.6 -66.8 5.8 -3.8 14.7 -7.8 15.3 -7 0.2 0.2 0 5.7 -0.3 12.1 l-0.5 11.7 -7 4.9 c-13.9 9.7 -28.7 26.4 -37 41.7 -6 11 -7 11.5 -6.1 3.4z"
       id="path292"
       style="fill:#f6693d;fill-opacity:1" /><path
       d="M1085 1031.5 c0 -3.2 14.7 -16.3 22.9 -20.5 l4.4 -2.2 -0.6 6.8 c-1.1 11.6 -5.3 15.3 -18.1 16.1 -4.7 0.3 -8.6 0.2 -8.6 -0.2z"
       id="path294"
       style="fill:#f6693d;fill-opacity:1" /><path
       d="M993 1006.2 c-2.8 -1.4 -4.5 -3.6 -8.7 -11.7 -11.9 -23 -35.4 -76.2 -45.7 -103.9 -6.2 -16.6 -12.1 -42.6 -13.3 -59.1 -0.5 -7.2 -0.3 -8.2 1.5 -9.8 4.7 -4.3 17 -6 25.4 -3.6 6.4 1.7 15.3 10.9 19.8 20.3 5 10.6 6.4 17.6 6.4 32.1 -0.1 13 -1.3 19.1 -6.3 31.3 l-2.9 7.1 5 7.1 c2.7 4 7.7 11.5 11 16.7 5.6 8.9 5.8 9.6 4.1 10.8 -1.7 1.3 -1.7 1.4 0.2 0.9 1.6 -0.4 2.5 0.4 4.1 3.8 l2.1 4.3 -0.4 -5.5 c-0.4 -5.2 -0.3 -5.6 2.4 -7.2 1.9 -1.2 2.3 -1.8 1.1 -1.8 -0.9 0 -2 0.5 -2.3 1 -1.8 2.9 -2.5 0 -2.5 -10.3 0 -18.1 2.8 -28.7 9.7 -37.4 6.3 -7.9 14.6 -11.4 32.8 -13.8 6.1 -0.9 13.8 -2.5 17.3 -3.6 25.1 -8.4 53.6 -44.3 72.5 -91.7 9.2 -22.9 16.7 -32.3 31.5 -39.3 4.8 -2.3 12.8 -6.1 17.7 -8.5 5 -2.3 12 -6.8 15.7 -9.8 5.8 -4.8 10.8 -7.1 10.8 -5 0 0.3 -1.5 3.4 -3.2 6.7 -2.2 4.1 -7.9 11 -17.3 20.7 -16.6 17.3 -20.8 23.8 -30.6 47.5 -7.7 18.6 -11.7 25.3 -24.9 41.6 -16.8 20.9 -19.4 30.6 -15 55.8 2.6 14.7 2.6 14.4 -0.7 13.8 l-2.8 -0.6 2.8 1.2 c2.8 1.1 3.3 3.3 2.1 9.4 l-0.6 3 -22.6 0.6 c-12.5 0.3 -27.2 1.3 -32.7 2.1 -13.7 2.1 -24.8 4.6 -26 5.8 -0.7 0.7 -0.3 0.8 1 0.4 1.1 -0.3 9.2 -1.7 18 -3.1 16 -2.6 50.2 -4.2 58.3 -2.8 l3.4 0.6 -0.7 4.6 c-1.1 7.9 -2.5 12.1 -4 12.1 -3.2 0 -26.6 8.4 -36.3 13 -21.6 10.3 -43.7 27.5 -59.2 45.8 -9.4 11.2 -11 11.9 -18 8.4z"
       id="path296"
       style="fill:#f6693d;fill-opacity:1" /><path
       d="M1386.1 874.3 c-1.2 -4.3 -3.3 -14.5 -4.7 -22.7 -2.4 -13.9 -2.5 -15 -1 -18.5 2.9 -6.7 12.3 -32.6 13 -35.8 0.7 -2.9 1.1 -3.3 4.2 -3.3 l3.4 0 0 9.5 c0 10.5 -2.5 31.8 -7 58.7 -1.7 9.9 -3 18.4 -3 18.9 0 0.5 -0.6 0.9 -1.4 0.9 -0.9 0 -2.2 -2.8 -3.5 -7.7z"
       id="path298"
       style="fill:#f6693d;fill-opacity:1" /><path
       d="M1344.5 792.8 c-3.8 -4 -11.9 -12.8 -17.8 -19.5 -23.9 -26.9 -32.9 -33 -58.4 -39.8 -24.8 -6.6 -36.3 -18.2 -48.4 -48.8 -2.2 -5.6 -4.3 -10.8 -4.6 -11.4 -0.3 -0.9 0.4 -1.3 2.1 -1.3 2.1 0 2.6 0.5 2.6 2.5 0 1.4 0.4 2.5 0.9 2.5 0.4 0 3 4.4 5.6 9.8 5.9 11.8 11.6 20.6 16.4 25 5 4.6 15.2 9.6 25.7 12.6 28.7 8.1 39.5 15.2 58.7 38.5 6.2 7.5 13.4 15.8 16 18.6 4.3 4.4 4.6 5 2.8 5.3 -2.8 0.4 -2.7 2.2 0.2 2.2 3 0.1 5.9 4.3 5.5 8.1 l-0.3 3.1 -7 -7.4z"
       id="path300"
       style="fill:#f6693d;fill-opacity:1" /><path
       d="M1025.3 743.5 c-7.6 -2.1 -12.2 -4.7 -17 -9.7 -4.4 -4.5 -8.2 -11.7 -8.3 -15.5 0 -1.3 -0.4 -2.3 -1 -2.3 -1.3 0 -1.3 -8.5 0.1 -13.4 2.1 -7.6 15.4 -18.6 22.7 -18.6 3.1 0 3.2 0.1 3.2 4 0 2.3 -0.7 5.4 -1.5 7 -0.9 1.6 -1.8 4.9 -2.1 7.2 -1.2 9.5 9.4 21.8 18.8 21.8 9.5 0 20 -10.4 18.3 -18.2 -2 -8.9 -7.3 -16.6 -12.6 -18.3 -1.4 -0.5 -1.9 -1.6 -1.9 -4.1 l0 -3.4 9 0 c8.9 0 9 0 13 3.7 4.7 4.1 10.9 14.1 11.6 18.7 0.5 2.5 0.3 2.8 -0.6 1.6 -1 -1.2 -1.1 -1 -0.6 1 3.6 14.7 -0.5 24 -14.9 34.4 l-7 5.1 -12 0.2 c-8.2 0.2 -13.7 -0.2 -17.2 -1.2z"
       id="path302"
       style="fill:#f6693d;fill-opacity:1" /><path
       d="M1338.7 723.9 c-6 -1.4 -12.9 -5.4 -17.4 -10.1 -4.3 -4.4 -9.3 -13.7 -9.3 -17.3 0 -1.7 -0.2 -1.7 -1 -0.5 -1.7 2.7 -1.2 -9.9 0.6 -13.7 2.4 -4.9 9.8 -10.3 14.1 -10.3 l3.5 0 -0.6 4.8 c-0.3 2.6 -0.8 6.5 -1.2 8.8 -1.1 7.5 5.4 16.3 15 19.9 5.9 2.3 10.2 1.4 15.4 -3.1 5.6 -4.7 7 -9.5 4.9 -15.9 -1.9 -5.5 -6.7 -11.8 -10.8 -14.2 -2.5 -1.5 -2.9 -2.3 -2.7 -5.3 0.3 -3.2 0.6 -3.5 3.8 -3.8 1.9 -0.2 5.9 -0.1 8.8 0.3 4.5 0.6 6 1.3 9.3 4.7 2.1 2.2 5.3 7 7.1 10.5 2.9 6 3.2 7.5 3.6 18.3 0.4 11 0.3 12.2 -2.1 17.4 -2.2 4.7 -3.3 6 -6.9 7.6 -5.5 2.5 -7.7 2.6 -4.7 0.1 2.1 -1.7 1.6 -1.7 -4.6 0.5 -7.4 2.5 -17.5 3 -24.8 1.3z"
       id="path304"
       style="fill:#f6693d;fill-opacity:1" /><path
       d="M1652 627 c0 -68.7 0.2 -78 1.5 -78 0.8 0 1.5 0.6 1.5 1.3 0 0.8 3.1 1.9 8.3 2.9 12.6 2.7 21.7 7.7 31.3 17.2 10.8 10.9 16.6 22.3 19.1 37.4 1.5 9.5 1.5 10.9 0 20.3 -2.1 12.4 -6.3 21.7 -13.9 30.6 -2.9 3.5 -14.2 14.6 -25 24.9 -10.9 10.2 -19.8 19.2 -19.8 20 0 0.8 -0.7 1.4 -1.5 1.4 -1.3 0 -1.5 -9.3 -1.5 -78z"
       id="path306"
       style="fill:#f6693d;fill-opacity:1" /><path
       d="M1087.5 670.6 c-3.6 -1.7 -7.7 -6 -13.7 -14.7 -5.4 -7.6 -11.6 -13.5 -16.4 -15.5 -1.9 -0.8 -6.6 -2.1 -10.6 -2.9 -8.3 -1.8 -13.2 -4.5 -15.3 -8.5 -2.2 -4.3 -1.8 -23 0.5 -23 1.4 0 16.4 10.1 24 16.2 l7.5 6 -6 -5.7 c-3.3 -3 -10 -8.3 -15 -11.7 -4.9 -3.4 -9.2 -6.3 -9.5 -6.5 -0.2 -0.2 0.5 -2 1.5 -4 2.5 -4.6 10.1 -10.4 19 -14.4 6.7 -3 7 -3 8.2 -1.3 0.7 1.1 1.9 2.8 2.8 3.9 1.4 1.9 1.4 1.8 0.4 -1 -0.5 -1.6 -1.5 -3.5 -2 -4.1 -1.1 -1.3 4 -2.7 17.1 -4.5 20.4 -2.9 33.8 3.5 44.3 21.2 5.6 9.6 7.9 17.6 8.4 30.4 0.4 9.7 0.2 11.7 -1.8 17 -2.8 7.6 -11.8 16.9 -20.2 21 -7 3.4 -18.3 4.4 -23.2 2.1z"
       id="path308"
       style="fill:#f6693d;fill-opacity:1" /><path
       d="M1281.9 656 c-12.2 -2.2 -33 -18.5 -39.4 -30.9 -1.4 -2.8 -1.6 -5.3 -1.3 -13.5 0.3 -8.8 0.8 -11 3.5 -16.8 4.2 -9 10.8 -15.8 18.6 -19.4 5.6 -2.6 7.3 -2.8 17.2 -2.9 12.5 0 19 1.4 29 6 10 4.7 16.3 9.2 21.2 15.3 6.9 8.4 6.8 9.1 -1.8 18 -12.7 13.1 -14.8 16.1 -4.4 6.2 5.4 -5.2 10.3 -9.9 10.7 -10.5 0.4 -0.5 1 -0.6 1.5 -0.2 1.3 1.3 1.5 13.1 0.4 17.5 -2.3 8.2 -20.5 24.6 -32.5 29.1 -6.1 2.3 -16.4 3.3 -22.7 2.1z"
       id="path310"
       style="fill:#f6693d;fill-opacity:1" /><path
       d="M1614.6 259.2 c-0.2 -0.4 -0.2 -6.9 0.1 -14.4 l0.6 -13.6 3.4 -0.7 c1.9 -0.3 8.5 -2.2 14.8 -4.1 6.2 -1.9 12.7 -3.4 14.4 -3.4 l3.1 0 0 14.3 0 14.2 -15.3 4.3 c-14.9 4.1 -20.1 5 -21.1 3.4z"
       id="path312"
       style="fill:#f6693d;fill-opacity:1" /><path
       d="M752.3 256.2 l-9.3 -2.5 0 -13.3 c0 -7.3 -0.3 -13.9 -0.6 -14.8 -0.9 -2.2 1.8 -2.1 11.7 0.8 4.6 1.3 10.3 2.9 12.7 3.5 l4.2 1.2 0 13.9 0 14 -4.7 -0.1 c-2.7 0 -9 -1.2 -14 -2.7z"
       id="path314"
       style="fill:#f6693d;fill-opacity:1" /><path
       d="M1030.7 235.6 c-7.8 -2.9 -11.6 -9.2 -11.7 -19.1 0 -12.9 6.9 -19.5 20.3 -19.5 8 0 13.3 2.3 16.9 7.2 1.9 2.8 2.4 4.8 2.6 12.3 0.3 8.1 0.1 9.4 -2 12.4 -1.3 1.9 -3.8 4.4 -5.6 5.4 -4.4 2.6 -15.3 3.3 -20.5 1.3z"
       id="path316"
       style="fill:#f6693d;fill-opacity:1" /><path
       d="M1107.7 233.3 c-0.4 -0.3 -0.7 -2.8 -0.7 -5.5 l0 -4.8 73.5 -0.2 c40.4 -0.2 78.1 -0.3 83.8 -0.3 l10.2 0 0 5.5 0 5.5 -83.1 0.3 c-45.7 0.1 -83.4 -0.1 -83.7 -0.5z"
       id="path318"
       style="fill:#f6693d;fill-opacity:1" /><path
       d="M1614.6 215.8 c-0.3 -1.3 -0.6 -3.5 -0.6 -4.9 0 -9.8 -9.5 -34.4 -18 -46.9 -16.4 -24.2 -44.6 -42.5 -75.5 -49.1 -18.4 -3.9 -31.7 -4 -341 -3.6 -332.8 0.4 -306.1 -0.2 -328.2 7.2 -43.5 14.6 -74 49.9 -79.8 92.8 -0.6 4.5 -0.8 4.7 -3.8 4.7 -3.3 0 -6.1 -0.7 -18 -4.1 l-6.9 -2 0.4 -21.2 c0.5 -23.8 1.3 -28 7.8 -41.2 14.3 -28.9 51.1 -54.2 90.5 -62.2 8.6 -1.7 24.7 -1.8 352.5 -1.8 327.8 0 343.9 0.1 352.5 1.8 26.9 5.4 47.7 16.5 66.5 35.6 11.7 11.7 17.6 20.1 26 36.6 7.7 15.2 10.9 25.5 12.2 39.4 0.5 6.2 0.6 11.7 0.1 12.1 -1.3 1.3 -29.6 9 -33 9 -2.3 0 -3.2 -0.5 -3.7 -2.2z"
       id="path320"
       style="fill:#f6693d;fill-opacity:1" /></g><g
     fill="#081c5f"
     id="g434"><path
       d="M939.4 2012.5 c-1 -2.4 0.2 -8 3 -14 5.9 -12.9 23 -25.6 40.8 -30.5 9.6 -2.6 25.8 -5.2 29.4 -4.8 2.4 0.2 1.6 0.7 -4.1 2.6 -3.9 1.3 -11.5 4.7 -16.9 7.5 -10.9 5.7 -22.4 15.5 -28.1 24 -3.2 4.7 -5.1 6.1 -18.7 14.1 -4.2 2.4 -4.9 2.6 -5.4 1.1z"
       id="path326"
       style="fill:#022863;fill-opacity:1"
       mask="url(#mask5377)" /><path
       d="M905 1999.4 c2.4 -6.3 9.2 -14 16.3 -18.6 3.3 -2.1 5.6 -4.6 7.2 -7.9 3 -5.9 4.7 -7.2 3.4 -2.7 -1.2 4.2 -1.2 15.9 0 19 0.9 2.4 0.8 2.4 -5.7 2.4 -7.6 0 -12.7 2.1 -17.6 7.3 -3.6 3.8 -4.9 4 -3.6 0.5z"
       id="path328"
       style="fill:#022863;fill-opacity:1" /><path
       d="M942 1966 c0 -1.7 13.5 -13 18.9 -15.9 10.8 -5.7 16.9 -7.1 29.8 -7 11.3 0.1 11.6 0.2 7.3 1.4 -2.5 0.7 -7.8 2 -11.9 2.9 -10.5 2.3 -26.5 8.9 -36 14.6 -4.4 2.7 -8.1 4.5 -8.1 4z"
       id="path330"
       style="fill:#022863;fill-opacity:1" /><path
       d="M1267.7 1768.3 c-0.3 -0.5 -0.8 -3.8 -1.2 -7.5 -0.7 -6.4 -0.6 -6.8 1.3 -6.8 2.2 0 3.2 3.3 3.2 10.6 0 3.2 -0.4 4.4 -1.4 4.4 -0.8 0 -1.7 -0.3 -1.9 -0.7z"
       id="path332"
       style="fill:#022863;fill-opacity:1" /><path
       d="M700.8 1749.6 c-1.8 -1.4 -2.6 -7.6 -0.9 -7.6 0.9 0 8.1 7.6 8.1 8.5 0 1.1 -5.6 0.4 -7.2 -0.9z"
       id="path334"
       style="fill:#022863;fill-opacity:1" /><path
       d="M52.3 1717.2 c-2.2 -0.7 -2.2 -0.8 1.2 -4.7 3.1 -3.6 3.4 -3.8 3.5 -1.7 0 1.2 0.5 2.2 1 2.2 0.6 0 1 1.1 1 2.5 0 2.6 -1.8 3.1 -6.7 1.7z"
       id="path336"
       style="fill:#022863;fill-opacity:1" /><path
       d="M1265 1669.5 c0 -1.3 -23.9 -1.5 -194.7 -1.8 -180.1 -0.3 -195.4 -0.4 -203.3 -2 -26.6 -5.5 -46.6 -15.6 -64.3 -32.6 -19.1 -18.3 -30.4 -39.6 -33.8 -63.2 l-1.3 -8.7 -11.5 -3.4 c-10.7 -3.2 -11.6 -3.3 -11.9 -1.6 -0.4 2.1 -1.3 2.3 -3 0.6 -0.8 -0.8 -1.2 -5.2 -1.2 -13 0 -11.1 0.1 -11.8 2 -11.8 1.1 0 2 0.6 2 1.3 0 0.9 4 2.5 10.9 4.5 6.1 1.8 11.5 3.2 12 3.2 1.7 0 1.5 -30.4 -0.1 -31.8 -0.7 -0.5 -6.1 -2.3 -12 -4 -10.1 -2.8 -10.8 -2.8 -10.8 -1.1 0 2.2 -1.1 2.4 -2.8 0.7 -0.8 -0.8 -1.2 -5.3 -1.2 -13.5 0 -11.6 0.1 -12.3 2 -12.3 1.1 0 2 0.6 2 1.4 0 0.8 0.8 1.7 1.8 2 7.3 2.1 20.3 5.6 21.1 5.6 0.8 0 1.1 -100.2 1.1 -332.9 l0 -332.9 11.3 -8.5 c29.7 -22.3 59.3 -52 81.8 -82.2 25.2 -33.6 45.7 -75.5 49.9 -101.5 1.4 -9.1 1.2 -25.1 -0.5 -34.5 -0.8 -4.4 -1.5 -8.7 -1.5 -9.7 0 -1 3.8 -3.9 10.3 -7.8 39.6 -23.7 88.5 -41.7 136.7 -50.4 16.9 -3 36.5 -5.6 43.2 -5.6 l4.6 0 0.7 4.3 c3.1 18.5 17.3 38.7 34.4 48.9 10.2 6.1 25.8 21.2 31 30.2 5.8 9.7 7 14.7 7.1 27.7 0 17.5 2.8 25.1 16.4 43.9 4.2 5.8 8.6 13 9.8 16 2.9 7.4 3 17.7 0.1 24.1 -2.8 6.3 -13.2 14.8 -24.8 20.3 -4.9 2.4 -12.9 6.2 -17.7 8.5 -14.8 7 -22.3 16.4 -31.5 39.3 -18.9 47.4 -47.4 83.3 -72.5 91.7 -3.5 1.1 -11.2 2.7 -17.3 3.6 -6 0.8 -13.1 2.1 -15.7 2.9 -18.2 5.5 -27.3 21.3 -26.7 46.4 l0.2 8.7 -4.8 2.9 c-4.6 2.8 -4.9 2.9 -5.9 1.2 -0.6 -1 -5.7 -8.8 -11.3 -17.3 -5.7 -8.5 -10.3 -15.7 -10.3 -16.1 0 -0.4 1.6 -4.5 3.5 -9 5 -12 6.8 -19.5 6.8 -29.7 0.1 -11.7 -1.6 -19.1 -6.3 -29.1 -6.1 -12.8 -16.6 -21.4 -26 -21.4 -4.2 0 -9.8 2 -12.6 4.4 l-2.7 2.2 1.3 9 c1.5 11.5 5.2 28.5 8.5 39.9 7.7 26.4 50.9 123.1 56.6 126.8 4.1 2.7 7.7 3.1 10.4 1.3 2.3 -1.5 2.3 -1.3 -0.8 3.1 -3.8 5.3 -8.1 13.5 -5.2 9.8 0.9 -1.1 3.9 -5.1 6.7 -8.9 4.7 -6.4 5.2 -6.8 6.5 -5.1 0.7 1.1 1.3 2.5 1.3 3.2 0 2.9 6.4 21.4 10.2 29.2 l4 8.3 -5 10.7 c-8.5 18 -16.4 43.9 -16.1 52.8 0 1.6 0.9 -1.5 2 -6.7 2.8 -13.6 8.9 -31.1 14.8 -42.6 l5 -9.9 0 8.1 c0.2 19.8 7 41.5 18.6 58.6 1.9 2.9 3.5 5.6 3.5 6 0 0.4 -1 1 -2.2 1.4 -1.8 0.5 -1.9 0.8 -0.5 1.5 0.8 0.5 4 1.1 6.9 1.3 14.9 1.1 13.1 3.5 -3.3 4.3 l-11 0.6 2.8 1.9 c4 2.6 16.2 6.3 27.3 8.3 5.2 0.9 10.4 2 11.5 2.4 3.3 1.4 -8.4 2.6 -24 2.5 l-14 -0.1 5.4 2.4 c2.9 1.3 11.5 4 19 5.9 12.9 3.4 16.2 4.7 14.9 5.9 -0.2 0.3 -5.6 1.2 -11.9 2.1 -9.5 1.3 -13.4 1.4 -23.5 0.5 -6.7 -0.7 -13.7 -1.6 -15.5 -2.1 -5.9 -1.7 -5.6 -1.1 1.6 3.6 17.2 11.2 30.1 15.7 50 17.1 l11 0.9 -11 2.7 c-26.6 6.5 -43.9 5.3 -63.5 -4.2 l-4.5 -2.2 4.3 4 c5.4 5 18.1 12.4 27 15.8 4.6 1.7 9.7 2.7 16.2 3.2 l9.4 0.6 -5.9 6.1 c-5.5 5.5 -7.8 7 -19.5 12.2 -2.2 0.9 -1.7 1.1 3.6 1.1 10.3 0.1 19.8 -3.8 31.7 -13.1 2 -1.6 3.7 -2.5 3.7 -2 0 1 -24.2 32 -33.3 42.5 -2.7 3.1 -4.6 5.7 -4.2 5.7 0.8 0 17.7 -14.7 33.3 -28.8 5.1 -4.7 9.5 -8.2 9.8 -7.9 0.4 0.3 -1 3.3 -3 6.6 -3.1 5 -6.2 9.4 -19 26.1 -1.1 1.5 3.5 -1.9 13.3 -9.7 9.9 -8 7.4 -3.8 -9 15.3 -13.5 15.6 -24.1 24.6 -44.3 37.5 -5.3 3.4 -9.5 6.3 -9.3 6.6 0.7 0.6 24.1 -10.3 32 -14.8 4 -2.3 9.4 -5.8 12 -7.7 2.6 -1.9 5 -3.2 5.3 -2.9 0.9 0.9 -20.5 22.5 -27.5 27.8 -8.2 6.1 -17.2 10.9 -27.4 14.4 -4.3 1.5 -8 3.2 -8.3 3.6 -0.3 0.5 0.1 0.7 0.8 0.5 25.2 -8 38.7 -14.7 72.3 -35.9 6.6 -4.2 12.1 -7.4 12.3 -7.2 0.2 0.2 -2.1 3.7 -5.2 7.9 -13.5 17.9 -38.5 36.7 -55.6 41.7 l-4.5 1.4 3.9 0.3 c4.3 0.4 22.3 -1.4 25 -2.4 1.3 -0.5 1.6 0.1 1.6 3.3 0 3.5 -0.4 4.1 -3.6 5.7 -2.1 0.9 -5.6 3.2 -7.9 5.1 -9.1 7.5 -18.7 10.5 -42.5 13.3 l-7.5 0.9 9.2 0.2 c20.2 0.3 41.9 -4.3 63.8 -13.4 l13 -5.4 -8.5 8.2 c-4.7 4.5 -11.8 10.5 -15.9 13.2 -13.8 9.1 -35.2 17.3 -57.4 22.1 -4.3 0.9 -7.6 1.8 -7.3 2.1 0.7 0.8 34.9 -2.4 46.1 -4.3 l3 -0.5 -2.7 1.6 c-7.7 4.4 -33 12 -54.7 16.5 -16.1 3.3 -15.1 3.4 11.9 1.5 23.8 -1.7 28.2 -2.2 36.9 -4.1 3.5 -0.8 6.5 -1.3 6.7 -1.2 0.2 0.2 -5.2 3.2 -11.9 6.7 -21.7 11.4 -39.8 22.5 -29.2 18 2.8 -1.2 8.2 -3.5 12 -5.1 3.9 -1.6 14.2 -5.6 23 -8.9 8.8 -3.3 17.1 -6.4 18.4 -7 1.3 -0.5 2.5 -0.8 2.8 -0.6 0.2 0.3 -7.5 7.3 -17.1 15.6 -9.6 8.3 -17.7 15.5 -18 15.9 -0.2 0.4 32.6 0.9 73 1.1 67.3 0.3 73.4 0.2 72.8 -1.3 -0.4 -1.1 -0.1 -1.6 1 -1.6 2 0 16.6 28.8 16.6 32.7 0 3.8 -0.7 4.6 -6.9 7.7 -11.4 5.6 -24.3 17.8 -30.9 28.8 -11.8 19.9 -12.6 44.3 -2 65.2 12.5 24.8 38.1 41.1 66.3 42.3 12.9 0.6 20.5 -0.9 32.8 -6.2 4.5 -1.9 9.7 -3.5 11.8 -3.5 l3.7 0 1.6 6.8 c4.5 19.9 6.8 37.1 7.3 55.5 0.4 13.6 0.3 18.7 -0.6 18.7 -0.6 0 -1.1 -0.7 -1.1 -1.5z m-451.5 -410 c2.1 -5.5 4.9 -12.2 6.2 -15 l2.5 -5 -4.7 5 c-5.3 5.7 -5 4.6 1.1 -4.1 5.1 -7.3 19.1 -20.7 28.8 -27.6 5.6 -4 6.5 -4.9 4.1 -4.4 -3.7 0.9 -15.2 6 -22.7 10.3 -3.2 1.7 -5.8 3 -5.8 2.7 0 -1.5 15.8 -20.8 21.9 -26.9 7.1 -7 8.2 -8.5 5.9 -8.5 -2.2 0 -23.4 -10.7 -31 -15.5 -4 -2.6 -9.7 -6.7 -12.5 -9.2 l-5.3 -4.5 0.1 71.4 0 71.3 3.8 -15 c2.2 -8.2 5.6 -19.5 7.6 -25z m231.4 -513.1 c0.2 -0.2 -1.3 -0.4 -3.5 -0.4 -21 0 -37.7 -10.9 -41.3 -26.7 l-0.8 -3.8 -0.7 3.6 c-1.3 6.2 1 14.3 4.9 17.7 5.8 5.2 13 7.9 27 10.6 2.2 0.4 13.7 -0.4 14.4 -1z m25.6 -8.9 c5 -2.3 9.6 -4.9 10.4 -5.8 2 -2.5 0.9 -15.6 -1.9 -23 -1.2 -3.2 -2.4 -5.7 -2.6 -5.5 -0.2 0.3 0.2 3 0.8 6.1 2.5 11.9 -2.4 20.6 -18.2 32 l-2.5 1.8 2.5 -0.7 c1.4 -0.4 6.6 -2.5 11.5 -4.9z m-14 1.1 c7 -4.2 12.7 -9.8 16 -15.8 5.7 -10.5 2.8 -23.2 -8.1 -34.5 l-5 -5.3 -6.5 0 c-5.2 0.1 -6 0.3 -4.4 1.2 10 5.5 16.4 22.1 12 30.9 -4.1 8.1 -10.7 12.1 -20 12.2 -6.2 0.1 -8.7 -0.8 -14.4 -5.1 -7 -5.2 -10.1 -18.2 -6.5 -27.7 3.2 -8.3 3.3 -8.1 -2.5 -5 -6.9 3.8 -13.7 11.2 -15.1 16.5 -2.1 8 2 19.3 9.5 25.9 8.1 7 18 10.2 31 9.8 7.9 -0.2 9.7 -0.6 14 -3.1z m-4.1 -34.7 c3.9 -3.1 3.6 -8.1 -0.8 -12.5 -3.8 -3.8 -7.7 -4.4 -11.4 -1.8 -5.2 3.6 -4.6 11 1.2 14.5 4 2.5 7.7 2.4 11 -0.2z m55.6 -38.6 c8.1 -3.9 17.1 -13.4 19.9 -20.8 7.2 -19.1 -6.2 -50.7 -25.6 -60.1 -4.7 -2.3 -7 -2.8 -12.8 -2.8 -7.1 0 -19.6 2 -22.7 3.5 -1.3 0.7 -2.9 -0.8 -8.1 -7.4 -6.2 -7.9 -14 -13.8 -17.8 -13.6 -0.8 0 0.2 0.7 2.1 1.6 1.9 0.8 5 2.6 6.8 4 3.7 2.8 12.2 13.8 12.2 15.7 0 0.7 -2.4 2.2 -5.4 3.5 -7.3 3 -16 9.3 -18.6 13.6 l-2.1 3.4 -9.2 -4.9 c-9.3 -4.9 -26.2 -11.3 -28 -10.7 -0.6 0.2 3.2 1.8 8.4 3.6 8.8 3.1 22.2 9.5 26.1 12.5 1.4 1.1 1.6 1.9 0.8 4.7 -1.4 4.9 -1.2 11.6 0.5 14.9 2.1 4 7 6.7 15.3 8.5 4 0.8 8.7 2.1 10.6 2.9 4.8 2 11 7.9 16.4 15.5 11.7 16.8 17.5 19.1 31.2 12.4z m-73.3 -99.2 c1 -0.6 1.4 -1.1 0.9 -1.1 -1.6 0 -4.6 3.2 -4.5 4.9 0 1.1 0.3 0.9 0.9 -0.6 0.5 -1.2 1.7 -2.6 2.7 -3.2z"
       id="path338"
       style="fill:#022863;fill-opacity:1" /><path
       d="M1041.6 699.4 c-0.8 -2 1 -5.4 2.9 -5.4 2 0 4.7 3 4.1 4.7 -0.3 0.8 -0.6 1.7 -0.6 1.9 0 1.2 -5.9 0.2 -6.4 -1.2z"
       id="path340"
       style="fill:#022863;fill-opacity:1" /><path
       d="M1584 1613.7 c0 -1.5 0.8 -2.8 2.3 -3.4 2.9 -1.4 11.6 -3.7 12.2 -3.2 0.5 0.6 -9.6 7.5 -12.2 8.3 -2 0.6 -2.3 0.4 -2.3 -1.7z"
       id="path342"
       style="fill:#022863;fill-opacity:1" /><path
       d="M1545 1599 c0 -1.1 -0.6 -2 -1.2 -2 -2.7 -0.1 -7.8 -5.9 -7.8 -8.9 0 -1.7 0.4 -3.2 0.9 -3.5 0.5 -0.3 4.1 3.2 8 7.9 l7.2 8.5 -3.5 0 c-2.9 0 -3.6 -0.4 -3.6 -2z"
       id="path344"
       style="fill:#022863;fill-opacity:1" /><path
       d="M1198.7 1596 c-17.3 -2.8 -31.1 -10.1 -42.4 -22.5 -11.9 -12.9 -17.3 -27.6 -17.3 -46.9 0 -17.5 3.9 -29.8 13.3 -42.1 8.5 -11.4 23.6 -21.5 31.9 -21.5 l4.7 0 5 7.3 c2.7 3.9 8.1 11.3 12 16.2 13.1 16.8 25.1 35.5 32.6 50.9 8.9 18.2 15.5 36.8 15.5 43.7 l0 4.9 -5.2 2.6 c-11.2 5.7 -18.5 7.5 -31.8 7.9 -6.9 0.2 -15.1 0 -18.3 -0.5z"
       id="path346"
       style="fill:#022863;fill-opacity:1" /><path
       d="M1507 1566.9 c-0.7 -1.1 -1 -2.3 -0.7 -2.5 0.8 -0.9 5.7 1.9 5.7 3.3 0 2.1 -3.8 1.5 -5 -0.8z"
       id="path348"
       style="fill:#022863;fill-opacity:1" /><path
       d="M1494.1 1552.9 c-16.5 -18.9 -36.5 -46.6 -53.5 -74.3 -9.1 -14.8 -28.6 -49.5 -28.6 -50.9 0 -0.4 32.4 -0.8 72 -0.9 l72 -0.3 -8.6 -13.4 c-7.7 -12 -27.8 -40.1 -28.7 -40.1 -0.2 0 1.1 3.8 3 8.5 1.9 4.7 3.7 10.2 4 12.3 0.6 3.6 0.4 3.5 -12.8 -9.3 -11.7 -11.4 -23.9 -21 -29.2 -23.1 -1.1 -0.4 -0.2 1.7 2.4 5.5 2.3 3.4 3.9 6.4 3.7 6.6 -0.5 0.6 -11.6 -2.8 -14.6 -4.4 -3.7 -1.9 -3.8 -0.5 -0.3 3.4 4.6 5.3 4.2 6.8 -1.6 6 -5.7 -0.8 -16.1 -3.8 -20 -5.8 -1.5 -0.8 -3.9 -1.8 -5.3 -2.2 l-2.5 -0.7 2.4 2.6 c1.4 1.4 6.2 5.4 10.8 8.8 4.5 3.5 8.1 6.8 7.9 7.3 -0.4 1.3 -8.5 0.8 -20 -1.1 -4.8 -0.8 -9 -1.3 -9.3 -1.1 -0.2 0.3 4 2.3 9.4 4.6 11.7 5 14.5 6.8 12.3 8.1 -2.1 1.3 -15.4 2.3 -21.1 1.6 -2.7 -0.4 -4.9 -0.3 -4.9 0.2 0 0.4 2.8 2.5 6.3 4.5 9 5.4 12.1 8.2 11.3 10.2 -0.5 1.4 -1.5 1.6 -6.9 1 -7.6 -0.8 -34.4 -4.4 -37.3 -5 -1.7 -0.4 -2.8 -2.8 -5.9 -13.2 -11.3 -37 -23.6 -60 -57.2 -107 -6.5 -9 -8 -12.1 -13.8 -27.8 -3.6 -9.7 -6.5 -18.2 -6.5 -18.8 0 -0.7 5.9 4.9 13.1 12.3 13.6 14.1 14.6 13.9 4.7 -0.8 -2.7 -4 -4.8 -7.7 -4.6 -8.2 0.2 -0.5 6.8 6.8 14.8 16.1 8 9.3 16.2 18.8 18.4 21.2 l3.8 4.2 -2.7 -3.8 c-8.2 -11.6 -14.4 -21 -24.1 -37.2 -12 -20 -29.1 -52.5 -27.6 -52.5 0.5 0 1.5 0.7 2.2 1.5 1.8 2.1 25.1 20.2 32.5 25.2 7.4 5 20.6 12.8 26 15.4 l4 2 -2.5 -2.2 c-17.5 -15.1 -39.3 -36.6 -42.4 -41.8 -0.5 -0.7 2.4 1.1 6.5 4.2 11.5 8.5 46.2 27.7 47.7 26.3 0.3 -0.3 0.1 -0.6 -0.5 -0.6 -1.5 0 -19.9 -12.3 -29.4 -19.6 -14.1 -10.8 -22.8 -17.9 -22.8 -18.6 -0.1 -0.4 3 1 6.7 3.2 7.7 4.3 22.7 10.9 37.2 16.3 15.2 5.6 15.3 5.3 1.1 -2.3 -7.4 -3.8 -18.6 -10.5 -25 -14.6 -11.2 -7.4 -28.4 -20.4 -27.8 -21 0.2 -0.2 4.8 1.4 10.4 3.6 20 7.9 43.8 12.7 67.1 13.5 14.1 0.5 11.8 -0.5 -5.8 -2.5 -23.4 -2.6 -52.3 -12.7 -78.3 -27.3 -4.9 -2.7 -8.6 -5.1 -8.4 -5.3 0.2 -0.2 2.4 0.3 4.8 1.2 6.2 2.1 19.1 5.2 27.4 6.3 9.2 1.3 26.1 2.5 25.5 1.8 -0.3 -0.3 -4.3 -1 -9 -1.7 -13.6 -1.7 -28.3 -5.8 -39.8 -10.9 -18.2 -8.1 -20.3 -9.7 -8 -6.2 10.6 3.1 24.8 4.5 37.2 3.7 18.3 -1 20.1 -2.1 5.1 -2.9 -7.1 -0.3 -15.7 -1.3 -19 -2.2 -22.5 -5.8 -40.2 -18.3 -52.3 -36.8 -5.4 -8.3 -11.9 -24.4 -10.4 -25.9 0.5 -0.5 5.6 -1 11.3 -1.1 10 -0.1 10.7 0 18.9 3.7 4.7 2.1 10.3 4.2 12.5 4.8 2.2 0.6 4.3 1.4 4.6 1.7 0.7 0.6 -0.4 20.3 -1.5 26.3 -0.4 2.5 -0.2 2.2 0.9 -1.2 0.8 -2.4 2 -9.3 2.7 -15.1 l1.2 -10.7 4.2 -0.7 c4.9 -0.7 14.3 -6.1 19.7 -11.3 2.1 -2 5.9 -6.8 8.4 -10.5 l4.5 -6.8 -1.6 -4.4 c-3.6 -9.3 -14.1 -18.1 -25.9 -21.7 -6.1 -1.8 -8.6 -2 -22.5 -1.5 -13.8 0.4 -17.5 0.9 -30.2 4.2 -21.1 5.3 -33.1 5.8 -53.1 1.9 -8.2 -1.6 -14.9 -3.2 -14.9 -3.5 0 -1.8 19.7 -15.2 48 -32.7 5.2 -3.2 3.2 -2.7 -7.2 1.9 -11.2 4.9 -27.3 11.1 -34.7 13.3 -6.2 1.8 -16.1 2.2 -16.1 0.6 0 -1.6 2.8 -6.8 6.7 -12.4 4.1 -6 4.3 -10 0.8 -21.6 -3.2 -10.8 -3.3 -19.1 -0.2 -24.2 1.2 -2.1 4.9 -5.9 8.2 -8.5 8.4 -6.7 11.9 -13.6 11.1 -21.7 -1.1 -10.5 -5.7 -16.8 -27.3 -36.4 -12.2 -11 -14.9 -15.2 -16.4 -25.3 -2.8 -17.6 5.8 -36.9 22.2 -50.6 6.8 -5.5 22.6 -13.5 33.2 -16.8 20 -6 49.8 -8.2 68.8 -5 18 3 28.1 7.7 39.2 18.4 12.3 11.8 17.7 25.4 17.7 44.5 0 13.6 -2.3 21.5 -11.5 40.1 -6.9 13.9 -10.5 24 -10.5 29 0.1 6.3 7 15.3 19 24.6 8.8 6.8 10.9 9.7 9.2 13.3 -0.9 2.1 -7.6 6 -13.4 8 -2.5 0.8 -2.3 2.4 1.1 9.6 2.4 5 2.8 6.7 2 9.3 -2.7 9.6 -19 12.2 -41.8 6.7 -4.6 -1.1 -8.5 -1.9 -8.7 -1.7 -0.2 0.2 5.2 2.9 12 6.1 27.2 12.7 40.4 24.4 50.9 45.1 9.2 18.1 16.5 27.5 21.3 27.5 0.7 0 2.6 -1.1 4.2 -2.5 3.5 -2.9 5.2 -8.7 6.1 -21 l0.6 -8 2.2 7.1 c5.2 16.5 7.8 36.9 7 54.4 -0.3 7.4 -0.2 9.9 0.3 7 1.2 -6.6 1.2 -26.2 -0.1 -36.5 -0.6 -4.9 -2.7 -15.1 -4.6 -22.5 -2.6 -9.7 -3.9 -17.2 -4.5 -26.5 -1.1 -14.7 -0.3 -29.8 1.5 -29.2 2.2 0.7 11.5 20 15.5 32.1 4.8 14.4 7.9 29.2 9.2 43.6 l0.9 10.5 -0.4 -11 c-1.1 -26.4 -8.6 -52.1 -22 -74.5 l-3.3 -5.5 1.2 -11.4 1.1 -11.5 5.1 7 c8.2 11.1 10.9 15.4 16.2 25.4 13 24.5 22.3 59 25.1 93 l1 11.5 -0.5 -12.4 c-1 -30.3 -9.2 -63.5 -21.9 -89.6 -5.9 -12.2 -15 -26.4 -21.6 -33.9 -3.7 -4.2 -4.3 -5.6 -4.7 -10.4 l-0.5 -5.5 6.4 4.8 c18.5 14.2 33.6 33 46 57.3 7.5 14.7 7.7 13.5 0.3 -1.8 -10.8 -22.3 -26.6 -42.2 -45 -56.6 -8.1 -6.3 -8.3 -6.6 -9.7 -12.7 -0.8 -3.4 -1.3 -6.3 -1.1 -6.5 0.8 -1.1 21.7 15.9 31.5 25.7 27.4 27.5 46.6 59.5 57 94.9 2.7 9.3 3.7 8.6 1.4 -1 -10.7 -44 -44.8 -92.4 -82.3 -117.1 -8.4 -5.5 -9.4 -6.5 -11.1 -11.1 -1 -2.8 -1.8 -5.2 -1.7 -5.3 0.6 -0.6 30 9.3 42 14.1 14.8 6 35.7 16 43.4 20.9 3.3 2.1 6.6 5.5 9.6 9.9 6.1 9 14.8 25.5 18.2 34.6 1.4 4 2.9 7.1 3.1 6.8 0.8 -0.7 -6.7 -19 -11.4 -27.6 -2.5 -4.7 -6.1 -10.7 -8 -13.3 -2 -2.6 -3.3 -5 -3.1 -5.3 0.8 -0.7 20.9 13.1 29.3 20.2 4.4 3.7 6.7 5.3 5 3.5 -4.7 -5.1 -15.1 -13.2 -27 -21.2 -7.5 -4.9 -13.8 -10.2 -19.7 -16.4 -18.3 -19.3 -43.5 -33 -72.5 -39.4 -5.1 -1.2 -10.7 -2.1 -12.5 -2.1 -3.2 -0.1 -3.4 -0.4 -7.9 -10.3 -8 -17.6 -7.7 -15 -4 -37.8 4.6 -28.2 7.1 -48.2 7 -56.4 l-0.1 -7 -1.8 5.5 c-1.6 4.9 -8.9 24.8 -13.8 37.2 l-1.8 4.8 -2.2 -6.9 c-3.1 -9.5 -10 -19.6 -21.9 -32.3 -10.1 -10.8 -13 -15.8 -9.1 -15.8 6 0 24.5 7 26.3 10 0.3 0.5 1.1 1 1.7 1 0.6 0 -0.6 -1.3 -2.7 -3 -4.7 -3.8 -17.7 -8.8 -25 -9.6 -6.3 -0.8 -4.2 1.2 -24.4 -23 -18.1 -21.8 -29.3 -29 -57.5 -37 -10.5 -3 -20.7 -8 -25.7 -12.6 -5.9 -5.4 -11 -14 -23.4 -39.3 -17.7 -36.2 -21.6 -45.9 -23.5 -59.5 -1.2 -8.8 0.2 -17.3 4.7 -28 7.3 -17.4 8.6 -21.9 8.1 -29.5 -0.8 -12.3 -6.9 -21.1 -20.7 -30.2 -4.8 -3.2 -9.6 -6.4 -10.7 -7.1 -2.6 -1.8 39.8 -0.8 55.5 1.2 33.2 4.4 61.1 12 92.8 25.2 8.7 3.7 19.4 7.9 23.8 9.4 12.6 4.4 12.7 4.4 7.5 5 l-4.5 0.5 4.3 2.9 c2.4 1.6 7.8 4.2 12 5.7 4.2 1.5 7 2.9 6.2 3.2 -0.8 0.3 -2.8 0.9 -4.3 1.4 -2.8 0.8 -2.6 0.9 4 4 3.7 1.7 8.8 3.7 11.2 4.3 5.2 1.4 4 3 -2.4 3 -3.3 0 -3.7 0.2 -2.5 1.3 0.8 0.8 4.5 2.7 8.3 4.2 3.7 1.5 6.5 3 6.2 3.3 -0.3 0.3 -2.2 0.8 -4.2 1.1 l-3.8 0.7 8 4.6 c4.4 2.6 8.9 5.4 10 6.2 1.9 1.4 1.8 1.5 -2 1.6 l-4 0 9.8 9.1 c5.3 5 9.7 9.5 9.7 10 0 0.4 -1.4 0.6 -3.1 0.2 -4.3 -0.8 -4.4 -1 13 19.5 8 9.5 10.6 13 9.9 13.7 -0.2 0.2 -3.1 -1.3 -6.5 -3.5 l-6.1 -3.9 2.9 6.2 c1.6 3.4 2.9 6.9 2.9 7.8 0 2.5 27.8 37.7 65.1 82.3 52.3 62.8 81.7 120.8 78.5 155.1 -1.9 20.7 -11.1 45.3 -32.7 88 -12.6 24.9 -16.9 34.4 -26 58.4 -9.1 23.8 -14.8 33.3 -28.3 47.8 -6.5 7 -20.7 18.8 -30.6 25.4 -3.6 2.3 -6.7 4.4 -6.9 4.6 -0.3 0.2 1 2.5 2.9 5.1 6 8.4 20 29.3 20 29.7 0 0.3 1.7 3.3 3.8 6.7 24 39.4 42.2 94.5 45.8 138.2 0.4 4.8 1.2 9 1.8 9.3 0.6 0.4 7.9 3.9 16.1 7.8 8.3 3.9 20.5 10.1 27.3 13.7 l12.2 6.6 -0.2 -493.1 -0.3 -493.2 -388 0 -388 0 -0.2 98.8 c-0.1 54.3 0.1 98.7 0.5 98.7 0.3 0 1.8 -1.5 3.3 -3.3 l2.8 -3.2 0.1 3.8 c0 3 -0.3 3.7 -2 3.7 -1.1 0 -2 0.5 -2 1 0 0.6 -4.6 6.5 -10.3 13.3 -16.6 19.8 -22.7 27.5 -22.7 28.6 0 0.6 -1 1.1 -2.3 1.1 -2.2 0 -2.3 -0.2 -1.6 -6.2 0.4 -3.5 0.6 -77.1 0.6 -163.7 l-0.2 -157.5 -5.5 -1.3 c-3 -0.8 -8.5 -2.3 -12.2 -3.4 l-6.8 -2 0 -9.9 c0 -5.5 0.3 -10 0.8 -10 0.4 0 5.4 1.4 11.2 3 5.8 1.7 11.1 3 11.8 3 0.9 0 1.2 -2.8 1.2 -10.9 0 -9.6 -0.2 -11 -1.7 -11.5 -1 -0.2 -6.3 -1.7 -11.8 -3.2 -5.5 -1.5 -10.5 -3.2 -11 -3.8 -0.7 -0.7 -0.9 -4.7 -0.5 -10.7 l0.5 -9.6 11.9 3.4 c6.6 1.8 12.1 3.2 12.2 3 0.2 -0.1 0.8 -3.2 1.3 -6.9 6.8 -42.1 36.5 -76 79.4 -90.3 22.1 -7.4 -5 -6.8 331.2 -7.2 312.4 -0.4 325.6 -0.3 344 3.6 25 5.4 47.3 17.6 64.2 35.4 15.8 16.7 26.1 37.8 29.2 60.1 0.5 3.7 1.1 7 1.4 7.2 0.4 0.5 29 -7.6 29.8 -8.5 0.9 -0.9 -0.8 -18.8 -2.5 -26.8 -2.8 -13.4 -2.8 -13.1 -0.6 -8.3 1.2 2.5 3.3 8.8 4.8 14 l2.7 9.5 0.5 73.4 0.5 73.5 4 0 4 0.1 0 90.5 0 90.5 -3.2 0.3 -3.3 0.3 0 237 0 237 2.1 2.8 c1.9 2.6 2 3.3 0.9 6.5 -1.2 3.6 -8.4 13.6 -9.8 13.6 -0.4 0 -1.4 -1.3 -2.3 -2.9 -1.4 -2.4 -1.4 -3.2 -0.3 -5.2 1.9 -3.4 2.1 -484.8 0.2 -486.7 -1 -1 -1.3 -20.8 -1.5 -91.2 -0.2 -83.7 -0.1 -90.1 1.5 -91.6 1.5 -1.6 1.7 -5.4 2 -37.6 0.2 -24.1 0 -35.8 -0.7 -35.8 -1.7 0 -28.5 8.2 -29.4 8.9 -0.4 0.4 -0.6 249.5 -0.5 553.7 0.3 450 0.5 551.9 1.6 547.5 1.7 -7.2 4 -9.1 11.1 -9.1 l5.6 0.1 -4.5 4.1 c-2.5 2.2 -7 6.4 -10 9.2 -7.7 7.1 -29.5 40.2 -39.7 60.1 -13.1 25.8 -20.8 46.8 -27.7 75.6 -3.2 13 -3.8 14.5 -7.3 18.1 -10 10.4 -31.1 23.3 -40 24.5 l-4 0.5 -8.2 -9.3z m-139.9 -825 c5.2 -1.1 14.2 -5.1 15.2 -6.7 0.2 -0.4 -2.8 0.3 -6.7 1.6 -6.1 2.1 -8.5 2.4 -15.8 1.9 -17.3 -0.9 -29.4 -10.1 -34.5 -26.2 l-1.3 -4 0 3.6 c-0.1 4.1 3 13.7 6.2 19.3 3 5.3 6.4 7.6 14.4 9.7 8 2.1 15.2 2.3 22.5 0.8z m15.1 -8.7 c4.1 -1.8 5.1 -2.9 7.4 -7.8 2.3 -5.1 2.5 -6.5 2.1 -14.3 -0.6 -9.5 -2.5 -15.1 -7.9 -22.6 -4.2 -5.9 -6.9 -7.5 -12.9 -7.9 -6 -0.4 -6.9 0.4 -3 2.7 3.9 2.3 8.7 8.6 10.5 13.7 3.3 9.4 1.2 17.8 -5.8 23.4 -9.6 7.7 -27.5 2.7 -33.8 -9.5 -2.1 -4.3 -2.6 -14.7 -0.8 -18 2 -3.8 0.3 -4 -4.2 -0.5 -5.6 4.2 -8.3 9.5 -7.6 14.3 2 11.9 15 24.9 28.4 28.3 6.5 1.6 22.2 0.6 27.6 -1.8z m-13.1 -30.9 c3.5 -4.2 2.9 -8.4 -1.8 -12.8 -3.7 -3.4 -7.8 -3.3 -11.5 0.4 -1.6 1.6 -2.9 3.7 -2.9 4.6 0 2.4 1.9 5.7 4.4 7.7 2.8 2.3 9.8 2.4 11.8 0.1z m-52.6 -38.2 c11.8 -5.3 28.4 -20.6 30.4 -28.3 0.7 -2.3 0.9 -6.1 0.5 -8.4 -0.5 -3.8 -0.3 -4.5 2.7 -7.4 7.1 -6.8 25.8 -18 35.1 -21 2.1 -0.6 3.6 -1.4 3.3 -1.7 -0.6 -0.6 -10.1 2.9 -16.9 6.3 -6.2 3.1 -15.7 9.4 -21.1 14 l-3.9 3.4 -1.7 -3.8 c-3.9 -8.4 -13.3 -16.3 -26.5 -22.2 -8.5 -3.9 -15.8 -5.4 -25 -5.4 -10.3 0 -18.4 3.4 -25 10.6 -9.5 10.1 -14.3 27.4 -10 35.9 4.4 8.6 19 22.1 29.8 27.6 9 4.5 18.6 4.6 28.3 0.4z m338.2 -399.9 l6.2 -1.7 0 -11.3 c0 -10.3 -0.2 -11.4 -1.7 -10.8 -3.5 1.4 -25.5 7.6 -26.8 7.6 -1 0 -1.4 2.6 -1.7 10.8 -0.2 5.9 -0.2 11 0 11.4 0.1 0.4 4.2 -0.5 9 -1.8 4.8 -1.4 11.5 -3.2 15 -4.2z m-593.3 -19.1 c1.6 -0.9 4 -3.3 5.3 -5.2 2 -2.8 2.3 -4.4 2 -9.4 -0.4 -7.2 -3.1 -11.6 -8.8 -14.5 -13.3 -6.8 -28.3 5.2 -24.1 19.1 3.3 10.9 15.8 15.8 25.6 10z m223 -3.1 c0 -2.4 -0.2 -2.5 -7 -2.5 -145.5 0.3 -154.5 0.4 -154.5 2.3 0 1 0.3 2.2 0.7 2.5 0.3 0.4 36.7 0.6 80.7 0.5 l80.1 -0.3 0 -2.5z"
       id="path350"
       style="fill:#022863;fill-opacity:1" /><path
       d="M1346 684.5 c-0.6 -0.8 -0.9 -2.3 -0.5 -3.5 1 -3.1 5.9 -2.4 6.3 0.9 0.6 3.7 -3.4 5.5 -5.8 2.6z"
       id="path352"
       style="fill:#022863;fill-opacity:1" /><path
       d="M1035.7 227.9 c-4.3 -2.5 -6 -10.6 -3.2 -15.9 2.3 -4.5 6.9 -6.5 11.7 -5.1 8.6 2.6 10.6 14.5 3.4 20.3 -2.3 1.9 -9.1 2.3 -11.9 0.7z m9.3 -7.9 c1.4 -2.6 0.5 -5.7 -2 -7 -4.3 -2.3 -10 3.9 -7 7.5 1.9 2.3 7.7 1.9 9 -0.5z"
       id="path354"
       style="fill:#022863;fill-opacity:1" /><path
       d="M1549 1560.3 c0 -0.5 1.6 -2.1 3.5 -3.6 l3.5 -2.8 0 3.6 c0 3.3 -0.2 3.5 -3.5 3.5 -1.9 0 -3.5 -0.3 -3.5 -0.7z"
       id="path356"
       style="fill:#022863;fill-opacity:1" /><path
       d="M1564.7 1545.8 c2.1 -2.4 5 -5.8 6.3 -7.5 1.3 -1.8 2.7 -3.3 3.2 -3.3 0.4 0 0.8 1.5 0.8 3.3 -0.1 3.1 -2.9 7.7 -4.8 7.7 -0.5 0 -1.2 0.9 -1.5 2 -0.4 1.5 -1.4 2 -4.2 2 l-3.8 0 4 -4.2z"
       id="path358"
       style="fill:#022863;fill-opacity:1" /><path
       d="M524.8 1518.3 c-2.9 -0.7 -2 -3 1.3 -3.7 6.2 -1.2 7.9 -0.8 7.9 1.9 0 2.2 -0.4 2.5 -3.7 2.4 -2.1 -0.1 -4.6 -0.3 -5.5 -0.6z"
       id="path360"
       style="fill:#022863;fill-opacity:1" /><path
       d="M508.3 1515.8 c-6.6 -1.4 -5.3 -4.8 1.8 -4.8 2.6 0 2.9 0.4 2.9 3 0 1.7 -0.1 3 -0.2 2.9 -0.2 -0.1 -2.2 -0.5 -4.5 -1.1z"
       id="path362"
       style="fill:#022863;fill-opacity:1" /><path
       d="M527 1444.6 c0 -1.4 -0.9 -3.5 -2.1 -4.7 -1.2 -1.2 -1.9 -3 -1.7 -4.5 l0.3 -2.5 5.6 4 c8.3 5.9 8.7 8.6 1.6 9.8 -3.5 0.5 -3.7 0.4 -3.7 -2.1z"
       id="path364"
       style="fill:#022863;fill-opacity:1" /><path
       d="M505.5 1444.5 c-0.5 -0.2 -2.7 -0.6 -4.7 -1 -4.2 -0.7 -5.1 -2.9 -1.7 -4 1.1 -0.4 4.2 -0.4 7 0 4.3 0.6 4.9 1 4.9 3.1 0 1.8 -0.5 2.4 -2.2 2.3 -1.3 0 -2.7 -0.2 -3.3 -0.4z"
       id="path366"
       style="fill:#022863;fill-opacity:1" /><path
       d="M1270 1427.1 c0 -1.2 -0.4 -2.1 -1 -2.1 -0.5 0 -1 -0.6 -1 -1.3 0 -0.7 2.2 -2 4.9 -3 4.3 -1.5 7 -3.6 18.2 -14.2 4.4 -4.2 17.7 -7.4 30.4 -7.4 l9 0 -11.5 3.8 c-14 4.7 -38.2 16.8 -44.4 22.3 -4 3.5 -4.6 3.7 -4.6 1.9z"
       id="path368"
       style="fill:#022863;fill-opacity:1" /><path
       d="M506.8 1416.3 c-2.9 -0.7 -2 -3 1.3 -3.7 6.2 -1.2 7.9 -0.8 7.9 1.9 0 2.2 -0.4 2.5 -3.7 2.4 -2.1 -0.1 -4.6 -0.3 -5.5 -0.6z"
       id="path370"
       style="fill:#022863;fill-opacity:1" /><path
       d="M522 1414.5 c0 -2.4 0.3 -2.5 6 -2.5 5.7 0 6 0.1 6 2.5 0 2.4 -0.3 2.5 -6 2.5 -5.7 0 -6 -0.1 -6 -2.5z"
       id="path372"
       style="fill:#022863;fill-opacity:1" /><path
       d="M535 1414.6 c0 -3.6 1.2 -4.6 5.6 -4.6 3.7 0 4.4 0.3 4.4 2 0 1.4 -1.1 2.2 -3.7 2.9 -5.1 1.4 -6.3 1.4 -6.3 -0.3z"
       id="path374"
       style="fill:#022863;fill-opacity:1" /><path
       d="M549.4 1377.5 c-0.4 -0.8 -1.2 -1.5 -2 -1.5 -0.8 0 -1.4 -1 -1.4 -2.6 0 -2.1 0.3 -2.5 1.8 -1.9 0.9 0.4 3.6 1.4 6 2.2 4.9 1.7 5.2 2.5 1.7 4.1 -3.5 1.6 -5.4 1.5 -6.1 -0.3z"
       id="path376"
       style="fill:#022863;fill-opacity:1" /><path
       d="M1251.6 1373.3 c-0.3 -0.3 -0.6 -2.1 -0.6 -3.9 0 -2.9 0.4 -3.3 4.6 -4.8 5 -1.7 21.2 -4.1 22 -3.3 0.3 0.3 -2.7 1.5 -6.7 2.8 -4 1.3 -9.5 3.8 -12.3 5.6 -2.7 1.9 -5.2 3.6 -5.6 3.8 -0.4 0.2 -1 0.2 -1.4 -0.2z"
       id="path378"
       style="fill:#022863;fill-opacity:1" /><path
       d="M1621.5 1362.3 c1.1 -8.6 1.6 -10.3 3.1 -10.3 1 0 1.4 1.3 1.4 4.4 0 7.2 -1 10.6 -3.2 10.6 -1.7 0 -1.9 -0.5 -1.3 -4.7z"
       id="path380"
       style="fill:#022863;fill-opacity:1" /><path
       d="M1637.3 1365.5 c-0.7 -0.8 -1.3 -2.8 -1.3 -4.5 0 -2.5 0.4 -3 2.4 -3 1.3 0 2.6 -0.5 2.8 -1.1 0.2 -0.6 1.8 -0.9 3.5 -0.7 l3.1 0.3 -4.7 5.2 c-3.8 4.3 -4.8 4.9 -5.8 3.8z"
       id="path382"
       style="fill:#022863;fill-opacity:1" /><path
       d="M1626.8 1348.6 c-2.7 -2.4 -2.7 -2.6 -2.1 -11.3 0.6 -9.9 2.2 -14.7 2.3 -7 0 7.9 1.9 13.4 5.6 16.7 1.9 1.6 3.4 3.2 3.4 3.5 0 1.6 -6.8 0.1 -9.2 -1.9z"
       id="path384"
       style="fill:#022863;fill-opacity:1" /><path
       d="M740 1312 c0 -5.3 0.2 -6 2 -6 1.8 0 2 0.7 2 6 0 5.3 -0.2 6 -2 6 -1.8 0 -2 -0.7 -2 -6z"
       id="path386"
       style="fill:#022863;fill-opacity:1" /><path
       d="M1209 1304.2 c0 -1.1 0.3 -3.4 0.6 -5.1 0.6 -2.9 0.9 -3.1 5 -3.1 5.5 0 5.7 1.6 0.7 5.6 -5.7 4.5 -6.3 4.8 -6.3 2.6z"
       id="path388"
       style="fill:#022863;fill-opacity:1" /><path
       d="M495 1303.7 c0 -0.8 -1.1 -2 -2.5 -2.7 -1.9 -1 -2.5 -2.1 -2.5 -4.6 0 -1.8 0.4 -3.5 0.9 -3.8 0.9 -0.6 4.9 4 8.6 9.7 l1.7 2.7 -3.1 0 c-1.9 0 -3.1 -0.5 -3.1 -1.3z"
       id="path390"
       style="fill:#022863;fill-opacity:1" /><path
       d="M461.2 1277.6 c-1.7 -3 -3.2 -5.7 -3.2 -6.1 0 -0.3 1.2 -0.5 2.8 -0.3 1.9 0.2 2.8 0.9 3 2.6 0.2 1.2 0.8 2.2 1.3 2.2 0.5 0 0.9 1.6 0.9 3.5 0 1.9 -0.3 3.5 -0.8 3.5 -0.4 0 -2.2 -2.4 -4 -5.4z"
       id="path392"
       style="fill:#022863;fill-opacity:1" /><path
       d="M452 1278.5 c0 -3 0.3 -3.5 2.3 -3.5 1.8 0 2.6 0.8 3.4 3.5 l1.1 3.5 -3.4 0 c-3.2 0 -3.4 -0.2 -3.4 -3.5z"
       id="path394"
       style="fill:#022863;fill-opacity:1" /><path
       d="M452.4 1250.5 c-0.4 -0.8 -1.2 -1.5 -2 -1.5 -0.9 0 -1.4 -1.2 -1.4 -3.4 0 -6.3 1.3 -5.6 9.3 5.2 0.7 0.9 0.1 1.2 -2.2 1.2 -1.9 0 -3.4 -0.6 -3.7 -1.5z"
       id="path396"
       style="fill:#022863;fill-opacity:1" /><path
       d="M1271 1236 c0 -1.1 -0.7 -2 -1.5 -2 -1.1 0 -1.5 -1.1 -1.5 -4 0 -3.5 0.3 -4 2.4 -4 2 0 2.5 0.7 3.5 4.4 1.6 6.3 1.4 7.6 -0.9 7.6 -1.3 0 -2 -0.7 -2 -2z"
       id="path398"
       style="fill:#022863;fill-opacity:1" /><path
       d="M1261 1207 c0 -0.5 -0.7 -1 -1.5 -1 -0.9 0 -1.5 -0.9 -1.5 -2.4 0 -3.5 -1 -5.6 -2.6 -5.6 -1 0 -1.4 -1.2 -1.4 -4 0 -2.2 0.3 -4 0.6 -4 2.2 0 4.8 2.9 7 7.8 4.7 10.4 4.7 10.2 1.9 10.2 -1.4 0 -2.5 -0.4 -2.5 -1z"
       id="path400"
       style="fill:#022863;fill-opacity:1" /><path
       d="M1240 1188.3 c-2.9 -4.9 -5.5 -9.1 -5.7 -9.5 -0.2 -0.5 1 -0.8 2.6 -0.8 2.4 0 3.1 0.4 3.1 2 0 1.1 0.7 2 1.5 2 0.8 0 1.5 0.7 1.5 1.5 0 0.8 0.4 1.5 0.8 1.5 1.1 0 3.2 6.1 3.2 9.3 0 1.5 -0.4 2.7 -0.9 2.7 -0.4 0 -3.2 -3.9 -6.1 -8.7z"
       id="path402"
       style="fill:#022863;fill-opacity:1" /><path
       d="M1049.5 1116.6 c-3.6 -3.8 -11.5 -19.4 -14.5 -28.6 -1.2 -3.6 -2.8 -9.8 -3.6 -13.7 -1.6 -8.7 -3 -26.3 -2 -26.3 0.4 0 1.8 1.3 3.2 2.9 1.4 1.7 4.6 4.3 7.2 5.8 3.9 2.4 5.4 2.8 8.8 2.3 l4.1 -0.6 1.2 15.6 c0.7 8.5 1.9 19.1 2.7 23.5 1.1 6.6 1.2 7 0.8 2.2 -0.2 -3.2 -0.7 -9.9 -1 -15 l-0.6 -9.2 2.6 4.3 c6.3 10.6 15.4 18.6 25.2 21.9 5.9 2 5.2 2.7 -8.9 9.8 -11.3 5.6 -14.2 6.4 -15 4.3 -0.3 -0.7 -0.6 -0.3 -0.6 0.8 -0.1 1.7 -0.9 2.3 -3.3 2.7 -2.7 0.4 -3.8 -0.1 -6.3 -2.7z"
       id="path404"
       style="fill:#022863;fill-opacity:1" /><path
       d="M411.3 1100.4 c-1.7 -1.8 -2.3 -3.7 -2.3 -6.9 0 -2.5 0.4 -4.5 0.8 -4.5 0.5 0 1.8 1.7 3 3.8 1.2 2 3.1 5.2 4.3 7 l2.1 3.2 -2.9 -0.1 c-1.6 -0.1 -3.8 -1.2 -5 -2.5z"
       id="path406"
       style="fill:#022863;fill-opacity:1" /><path
       d="M1090.6 1086.5 c-12.1 -4.6 -23.2 -18.9 -27 -34.7 -0.5 -2.3 -0.1 -2.9 2.6 -4.3 2.7 -1.3 4.1 -1.4 8.3 -0.5 6.8 1.5 12 4.2 11.9 6.2 -0.1 1.3 0.2 1.4 1.6 0.6 1.4 -0.9 3.9 0.4 14.4 7.5 6.9 4.7 15.1 10.5 18.2 12.8 l5.6 4.1 -3.4 2.5 c-7.1 5.3 -10.9 6.6 -19.8 7 -5.8 0.2 -9.7 -0.2 -12.4 -1.2z"
       id="path408"
       style="fill:#022863;fill-opacity:1" /><path
       d="M586.3 1031 c-1.3 -0.5 -2.3 -1.8 -2.3 -2.9 0 -1.8 0.6 -2 7 -1.9 6.1 0.1 7 0.4 7 2 0 1.1 -0.7 1.8 -2 1.8 -1.1 0 -2 0.5 -2 1 0 1.2 -4.7 1.2 -7.7 0z"
       id="path410"
       style="fill:#022863;fill-opacity:1" /><path
       d="M602 1029.6 c0 -2.4 0.3 -2.6 4.6 -2.6 4.1 0 4.5 0.2 4.2 2.3 -0.2 1.8 -1 2.3 -4.5 2.5 -4 0.3 -4.3 0.1 -4.3 -2.2z"
       id="path412"
       style="fill:#022863;fill-opacity:1" /><path
       d="M575.7 1026.3 c-3.1 -2 -5.5 -3.9 -5.3 -4.1 0.2 -0.2 2.5 0.4 5 1.2 2.6 0.9 5.3 1.6 6.1 1.6 0.9 0 1.5 1 1.5 2.5 0 1.4 -0.4 2.5 -0.9 2.5 -0.4 0 -3.3 -1.7 -6.4 -3.7z"
       id="path414"
       style="fill:#022863;fill-opacity:1" /><path
       d="M997.1 964.4 l-9.2 -18.8 2.3 -1.8 c1.3 -1 3.5 -2.2 4.9 -2.7 2.6 -0.9 2.7 -0.9 3.4 5.2 0.3 3.4 2.4 12.9 4.5 21.2 2.2 8.2 3.7 15.1 3.5 15.3 -0.1 0.2 -4.4 -8.1 -9.4 -18.4z"
       id="path416"
       style="fill:#022863;fill-opacity:1" /><path
       d="M1475 947.5 c-21.4 -11 -47.8 -21.6 -64.5 -25.9 -4.5 -1.2 -5.2 -1.8 -7.7 -6.6 l-2.7 -5.2 6 0.6 c20.2 2.3 48.7 14.1 66.6 27.5 7.8 5.9 19.6 17.1 17.8 17 -0.6 0 -7.5 -3.3 -15.5 -7.4z"
       id="path418"
       style="fill:#022863;fill-opacity:1" /><path
       d="M741 836.5 c0 -2.4 0.5 -3.5 1.5 -3.5 0.8 0 1.5 -0.4 1.5 -1 0 -0.5 1.7 -1 3.8 -1 l3.7 0 -3.7 3.5 c-2.1 1.8 -3.8 3.9 -3.8 4.4 0 0.6 -0.7 1.1 -1.5 1.1 -1 0 -1.5 -1.1 -1.5 -3.5z"
       id="path420"
       style="fill:#022863;fill-opacity:1" /><path
       d="M608.8 761.7 c-5.4 -2.9 -5.8 -3.4 -5.8 -6.6 l0 -3.5 6.5 6.4 c3.6 3.5 6.5 6.6 6.5 6.7 0 0.7 -1.9 -0.1 -7.2 -3z"
       id="path422"
       style="fill:#022863;fill-opacity:1" /><path
       d="M676.7 760.1 c-6.4 -3.8 -6.9 -4.4 -6.5 -7.5 0.3 -2.6 0.5 -2.5 6.8 3.9 3.5 3.6 6 6.5 5.5 6.4 -0.6 0 -3.2 -1.3 -5.8 -2.8z"
       id="path424"
       style="fill:#022863;fill-opacity:1" /><path
       d="M590 742 c0 -0.5 -0.9 -1 -2.1 -1 l-2 0 2.1 -3 c2.4 -3.4 3.3 -3.1 6.3 1.9 l1.8 3.1 -3 0 c-1.7 0 -3.1 -0.4 -3.1 -1z"
       id="path426"
       style="fill:#022863;fill-opacity:1" /><path
       d="M593.3 734.2 c-0.8 -0.5 -0.7 -1.4 0.7 -3.1 1.6 -2.3 1.9 -2.3 3.4 -0.9 2.3 2.4 2 4.8 -0.6 4.8 -1.3 0 -2.8 -0.4 -3.5 -0.8z"
       id="path428"
       style="fill:#022863;fill-opacity:1" /><path
       d="M846 621.7 c0 -4 2.8 -5.7 9.1 -5.7 5.6 0 4.9 2.7 -1.6 6.2 -6.5 3.6 -7.5 3.5 -7.5 -0.5z"
       id="path430"
       style="fill:#022863;fill-opacity:1" /><path
       d="M839 547.8 c0 -1.3 0.3 -4 0.6 -6 0.5 -3 1.1 -3.8 2.8 -3.8 1.2 0 2.8 -0.9 3.6 -2 0.9 -1.3 2.6 -2 4.7 -2 2.9 0 3.3 -0.3 3.3 -2.5 0 -1.5 0.6 -2.5 1.4 -2.5 3.1 0 2.3 1.9 -3.5 7.6 -3.3 3.2 -7.1 7.6 -8.6 9.7 -2.9 4.2 -4.3 4.7 -4.3 1.5z"
       id="path432"
       style="fill:#022863;fill-opacity:1" /></g><g
     fill="#072f8c"
     id="g462"><path
       d="M1358 2041.8 c-1.2 -3.5 -12.7 -34.6 -25.5 -69.3 -12.8 -34.6 -23.8 -64.7 -24.4 -66.7 -0.7 -2.1 -1.6 -4 -2.1 -4.3 -0.4 -0.3 -3.9 2.9 -7.7 7 -3.8 4.1 -7.5 7.5 -8.1 7.5 -2.2 0 -22.9 -9.3 -35.8 -16.1 -23.6 -12.4 -48.2 -28.7 -70.9 -47 -14.5 -11.7 -34.5 -29.6 -34.5 -30.9 0 -0.6 -0.4 -1 -0.9 -1 -0.5 0 1.4 5.1 4.4 11.3 2.9 6.1 6.8 15.4 8.6 20.6 3.1 9 3.2 9.7 2.2 16.5 -2.2 15 -9 26.3 -21.2 35.6 -6.8 5.1 -7.2 5.7 -10.1 13.7 -1.6 4.6 -4.8 15.2 -7.1 23.6 -2.2 8.3 -5.9 19 -8.1 23.5 -9.4 19.7 -28.8 31.2 -57.7 34.3 -5.8 0.6 -15 2 -20.4 3.1 -5.5 1 -10.1 1.7 -10.3 1.5 -0.2 -0.2 2.2 -2 5.5 -4 7.3 -4.6 14.6 -12.5 18.8 -20.3 1.7 -3.2 5.1 -11.5 7.6 -18.4 7.9 -21.8 16 -41.2 28.9 -69 5.5 -11.8 10.2 -23.1 10.5 -25 0.3 -2.7 -0.9 -6.5 -5.5 -17 -10.1 -22.9 -16.5 -46.2 -17.8 -64.7 -0.7 -10 0.3 -13.6 5.6 -19.7 3.2 -3.6 3.3 -3.8 2.7 -10.9 -0.6 -8.4 -5.4 -23.5 -15.1 -47.5 -3.6 -9 -6.6 -16.7 -6.6 -17.3 0 -0.5 38.1 -0.9 100.5 -0.9 90.8 0 100.6 -0.2 101.2 -1.6 0.3 -0.9 0.1 -12.9 -0.5 -26.7 -0.8 -18.6 -1.8 -29.2 -3.7 -40.2 -3.3 -19.1 -5.4 -28.5 -6.5 -28.5 -0.4 0 -3.8 1.3 -7.4 3 -9.7 4.3 -16 6 -26.6 7 -28.2 2.7 -56.5 -9.5 -73 -31.6 -14.5 -19.4 -18.6 -46.4 -10.5 -69.7 5.8 -16.8 20.3 -33.2 36.6 -41.3 3 -1.5 5.7 -3.2 6.1 -3.7 0.3 -0.6 -2.5 -7.3 -6.4 -15 -3.8 -7.7 -7.1 -14.7 -7.3 -15.6 -0.2 -0.9 -8 -18.5 -17.5 -39.1 -29.9 -65.1 -36.9 -81.4 -42.8 -100.1 -7.9 -24.8 -9.9 -47.3 -5.3 -61.9 6.6 -21.4 20.6 -37.2 42.6 -48 9.3 -4.5 20.5 -8.6 20.5 -7.4 0 0.3 -1.3 3.6 -2.9 7.2 -5.2 12 -6.4 18.3 -5.8 32.2 0.6 14.8 2.7 23.6 11.6 48.3 3.4 9.2 6.9 20.4 7.9 25 l1.8 8.2 14 0.3 c7.6 0.2 16.7 -0.2 20.1 -0.8 8.2 -1.4 23.6 -6.5 30.1 -10 2.8 -1.5 5.2 -2.5 5.2 -2.2 0 2.1 -28.3 23.8 -28.8 22.2 -0.2 -0.6 -1 -1 -1.8 -1 -0.7 0 -1.1 0.6 -0.8 1.3 0.3 0.8 -2.2 4.1 -5.5 7.5 -6.3 6.5 -12.3 17.3 -13.6 24.4 -0.8 4.2 1.9 11.1 7.6 19.5 11.9 17.8 25.3 22.1 46.8 15.2 5.3 -1.7 10.4 -3.2 11.4 -3.4 2.2 -0.5 3.4 2.2 1.8 3.8 -0.8 0.8 -1.1 0.8 -1.1 -0.1 0 -0.7 -0.6 -1.2 -1.4 -1.2 -0.8 0 -1.3 0.8 -1.2 1.8 0.1 1.2 -0.5 1.6 -2.1 1.4 -1.7 -0.2 -2.1 0.1 -1.7 1.2 0.3 0.9 -0.9 2.8 -3.3 5 -6.5 5.8 -9.6 12.7 -10.1 22.3 -0.4 7.5 -0.2 8.8 2.3 13.8 4.6 9.6 12.3 12.7 25.6 10.5 7.7 -1.3 9.5 -0.8 6.3 1.8 -3.8 3.1 -7.3 8.7 -8.4 13.5 -1.1 5.3 -0.1 11.4 4.5 26 1.4 4.3 3.6 14 5 21.5 1.4 7.5 3 15.3 3.6 17.2 2.1 6.8 7.3 13 17 20.5 15.5 11.9 21.3 19.2 26.2 32.5 1.8 4.8 2.1 9 2.7 35 0.7 26.1 1 30.4 2.9 37 5 16.7 13.4 27.3 34 42.2 17.7 12.8 26 20.5 34.8 32.2 13.7 18.4 24.4 43.7 31.1 73.7 3.6 15.6 4.8 26.7 6.2 54.4 1.7 34.7 5.4 49.3 22.5 89.5 17 39.8 23.2 63.4 26.5 100 0.5 6.3 1 15.4 1 20.3 l0 8.7 -62.4 0 -62.3 0 -2.3 -6.2z m-91.9 -200.2 c3.7 -0.8 9 -2.5 11.9 -3.7 6 -2.6 6 -0.5 0.2 -20.4 -5.7 -19.4 -9.9 -39.8 -10.7 -51.3 -0.2 -3.1 -0.4 -5.7 -0.5 -5.7 -0.1 0 -0.3 -1.8 -0.6 -4 -0.9 -8.7 -1.6 -12.5 -2.2 -12.5 -2.3 0 -13.2 8.8 -22.7 18.4 -22.6 22.6 -30.9 41.2 -26 58.2 2 7 6.6 14.6 10.5 17.4 6.5 4.6 26.7 6.4 40.1 3.6z m-32.5 -250.9 c10.5 -3.6 17.4 -7.4 17.4 -9.6 0 -4.1 -8.5 -26.4 -15.5 -40.7 -7.5 -15.4 -19.5 -34.1 -32.6 -50.9 -3.9 -4.9 -9.3 -12.3 -12 -16.2 -2.9 -4.3 -5.7 -7.3 -6.7 -7.3 -5.3 0 -22.1 12.5 -28.9 21.5 -28 36.9 -9.8 89.3 35.9 103.1 13.1 4 30.7 4 42.4 0.1z"
       id="path436"
       mask="url(#mask5373)" /><path
       d="M481.8 2006.3 c-1.6 -1.6 -2.8 -3.5 -2.8 -4.2 0 -0.7 5.3 -8.8 11.8 -17.9 6.5 -9.2 16.5 -23.4 22.1 -31.5 23.4 -33.8 52.8 -66.8 69.1 -77.7 17.9 -11.9 27.9 -22.7 35 -37.5 2.4 -5 5.7 -14.8 8.1 -24.1 5.1 -19.9 7.1 -25.7 12.5 -36.8 7.6 -15.4 21.5 -31.5 31.7 -36.8 8.9 -4.6 19.1 -5.3 26 -1.7 3 1.6 7.7 6.1 7.2 6.9 -0.2 0.4 0.6 1.3 1.9 2 5.4 2.9 10.8 17.6 13.2 36.4 1.8 14.7 2.9 18.6 6 22 7.4 8 21.3 1.2 36.8 -18 13.4 -16.8 22 -33 26.9 -50.8 1.9 -6.9 2.2 -10.6 2.2 -25.6 0 -15.4 -0.3 -18.5 -2.4 -25.5 -3.5 -12 -5.9 -16.6 -17.7 -35.1 -33.5 -52.4 -49.4 -99.6 -49.4 -146.7 0 -16.2 4.5 -47.9 10.4 -73.8 6.2 -26.9 9.6 -61.4 9.8 -98.1 0.1 -32 -1.5 -52.3 -7.7 -96.8 -1.9 -13.5 -4 -29 -4.6 -34.5 -1.7 -13.9 -1.7 -39.1 0.1 -50 1.7 -10.7 1.8 -33.2 0.2 -43.1 -4.4 -26.7 -17.2 -51.1 -33.9 -64.9 -20.8 -17.1 -43.5 -20.6 -79.3 -12.1 -4 0.9 -6.6 1.2 -6.8 0.6 -0.5 -1.4 -3 -1.2 -3.5 0.3 -0.4 1.4 -13 1.4 -13.5 -0.1 -0.1 -0.4 -1.5 -0.7 -3 -0.4 -3.8 0.5 -11.2 -2.7 -10.4 -4.7 0.3 -0.9 0.1 -1.2 -0.6 -0.7 -0.6 0.3 -1.3 0.2 -1.6 -0.3 -0.7 -1.1 6.4 -0.4 9.9 0.9 3.1 1.2 13.6 0.4 20.4 -1.5 19.3 -5.6 32.7 -20.4 42.6 -47.1 10.8 -29.5 13.1 -33.1 33.8 -52.7 16.1 -15.2 24.8 -25.9 30.1 -37 4.5 -9.6 5.8 -14.6 5.8 -23.7 0.1 -12.7 -3.5 -22.3 -13.6 -36.4 -3.1 -4.3 -5.1 -7.6 -4.3 -7.3 6.8 2.6 20 6.1 29.1 7.8 17.9 3.2 18.1 3.3 18.4 5.1 0.2 1 -0.6 1.9 -1.9 2.3 l-2.1 0.7 0.6 205.7 c0.5 203.1 0.5 205.7 2.6 215.6 6.1 29.4 8.7 58.2 7.6 85 -0.9 24.8 -2.5 36.3 -8.2 60.2 l-2.4 10.1 -0.2 78.4 c-0.1 70.2 0 79.2 1.6 87.1 5.7 29.4 21.6 60.6 38.9 76.3 16.9 15.3 32.1 21.8 65.7 28.3 21 4.1 54.2 7 79.4 7.1 l8.9 0 -8 5.3 c-31.1 20.9 -98.6 69.9 -120.3 87.6 -5.8 4.6 -16.1 13.8 -23 20.3 -16.3 15.3 -24.1 21.5 -35.4 27.7 -18 10 -37.3 16 -77.1 24.1 -49.9 10.2 -51.6 10.9 -74 28.9 -23.6 19.1 -61 55.8 -81.5 80.1 -9.7 11.5 -27.9 35.1 -33 42.9 l-1.5 2.2 -2.7 -2.8z"
       id="path440" /><path
       d="M72.5 1722.1 c-1.1 -0.5 -5.3 -1.6 -9.2 -2.6 -4 -1 -7.3 -2.1 -7.3 -2.5 0 -0.5 -0.9 -0.6 -2 -0.3 -3.1 0.8 -2.4 -1.6 2.2 -7.7 2.3 -3 6.7 -8.9 9.9 -13 3.1 -4.1 24.4 -35.6 47.2 -70 56.9 -85.4 55.6 -83.6 87.6 -127 26.2 -35.6 29.7 -39.8 45.6 -56 19.6 -20 29.7 -32.3 42.9 -52.4 15.9 -24.1 33.4 -57.1 39.1 -73.6 4.1 -11.9 9.6 -33.9 11.9 -48 3.8 -22.9 4 -28.1 4.1 -91.5 0 -67.9 0.1 -69.5 6.1 -108.5 10.2 -66.6 31.7 -133 43 -133 12 0 16.7 41.4 10.4 92 -1.1 9.1 -2.3 22.4 -2.7 29.5 l-0.6 13 6.2 11.9 c3.4 6.5 6 12.1 5.7 12.3 -0.2 0.3 0.9 1.7 2.5 3.2 3.9 3.8 14.2 21.7 17.8 31.1 5.6 14.3 6.4 22.1 6.5 57.5 0.1 36.3 0 35.7 9.1 50.3 2.5 4 4.3 7.7 4 8.3 -0.4 0.5 0 0.9 0.7 0.9 0.7 0.1 6.9 6.9 13.8 15.2 21.4 26 27.1 33.2 26.6 34.4 -0.2 0.6 0.6 1.7 2 2.4 1.3 0.8 2.4 1.9 2.4 2.6 0 0.7 0.4 1.4 0.8 1.6 1.5 0.6 6.9 9.2 11.5 18.3 4.1 8.2 12.1 30.4 11.3 31.2 -0.2 0.2 -2.1 -2 -4.4 -4.9 -4.1 -5.3 -7.3 -9.1 -30 -34.5 -14.7 -16.5 -21.3 -25.9 -31.6 -45.3 -4.2 -7.8 -4.4 -7.2 -1 2.7 2.1 6.2 2.4 7.7 1.3 8.5 -1.1 0.8 -1 0.9 0.4 0.4 0.9 -0.3 1.7 -0.1 1.7 0.5 0 2 11.6 25.3 15.6 31.4 10.6 16.2 20.3 27.1 33.3 37.4 8.2 6.4 21.5 14.8 29.1 18.3 15.8 7.2 17.9 8.5 18 11.4 0 1.2 -15 6.4 -25 8.6 -7.8 1.8 -31.6 1.4 -41.5 -0.6 -13.9 -2.8 -13.7 -1.7 0.8 3.5 4.5 1.7 16.9 5.2 27.4 7.9 25.6 6.6 33.4 10 31.8 14.2 -0.7 1.8 -5.5 4.2 -5.5 2.8 0 -1.5 -2.1 -1.2 -3.4 0.4 -1.4 1.8 -7.6 3.2 -7.6 1.7 0 -0.6 -1.3 -1.1 -3 -1.1 -1.6 0 -3 0.5 -3 1 0 0.6 -2.7 1 -6 1 -3.3 0 -6 -0.3 -6 -0.8 0 -0.4 -1.9 -0.6 -4.2 -0.4 -2.3 0.3 -7.9 -0.3 -12.5 -1.3 -4.6 -1 -8.6 -1.5 -8.9 -1.2 -0.3 0.3 6.2 4 14.5 8.1 15.1 7.6 22.4 11.7 24.9 14.3 0.7 0.7 1.8 1.3 2.3 1.3 0.5 0 0.8 0.6 0.6 1.3 -0.1 0.6 0.6 1.1 1.6 1 1.1 0 1.6 0.4 1.3 1.2 -0.2 0.7 0.4 1.5 1.5 1.8 1 0.3 1.9 1.1 1.8 1.9 0 1 -0.2 1 -0.6 0.1 -0.2 -0.7 -1.2 -1.3 -2.1 -1.3 -1.4 0 -1.5 0.2 -0.2 1 3.9 2.4 -4 3.5 -15.7 2.1 -4.8 -0.6 -8.9 -1.5 -9.1 -1.9 -0.1 -0.5 -1.4 -0.7 -2.7 -0.4 -1.4 0.2 -2.5 0 -2.5 -0.4 0 -0.5 -2.1 -1 -4.8 -1 -4.6 -0.2 -21.8 -4.9 -38.1 -10.4 -4.7 -1.6 -8.7 -2.8 -8.9 -2.6 -0.6 0.7 15.2 11.7 30.5 21.3 15.5 9.7 26.1 15.2 45 23.4 42.7 18.3 55.9 34.8 33.8 42.4 -5.7 2 -29.5 3.4 -29.5 1.8 0 -0.5 -1.4 -0.8 -3 -0.5 -4.4 0.6 -15.8 -0.8 -17.3 -2.1 -0.6 -0.7 -3.1 -1.3 -5.4 -1.4 -11.7 -0.5 -43.2 -14.5 -68.3 -30.3 -8 -5.1 -14.9 -9.4 -15.5 -9.7 -0.5 -0.2 2.6 3.1 7 7.4 4.5 4.3 15.5 13.4 24.5 20.2 30.3 22.9 57.6 53.9 52.2 59.3 -1.6 1.6 -13.2 1.1 -21 -0.8 -52.5 -13.1 -114.2 -68.2 -140.3 -125.3 -2.7 -5.8 -5 -9.8 -5.3 -9 -0.2 0.8 -1.7 7 -3.1 13.9 -6.2 28.5 -16.4 50 -30.5 64 -7.9 7.9 -16.5 13.2 -39.5 24.8 -28.1 14.2 -45.9 26.1 -67.5 45.2 -4.7 4.1 -9.1 7.9 -9.8 8.5 -0.7 0.5 -6.8 7 -13.7 14.3 -22.8 24.3 -40.4 46.5 -66.3 83.4 -22.1 31.6 -30.5 42.8 -32.2 42.7 -0.8 0 -2.4 -0.4 -3.5 -0.8z"
       id="path442"
       mask="url(#mask5369)" /><path
       d="M1558.8 1618.1 c-15.1 -5 -29.2 -17.8 -45 -41 -8 -11.7 -7.9 -12.7 1.1 -10.4 10.8 2.9 22 0.5 34.5 -7.4 5.9 -3.7 20.7 -17.9 22.9 -21.9 0.7 -1.2 4.5 -6.4 8.5 -11.5 4 -5.2 11 -14 15.4 -19.7 4.4 -5.7 8.3 -10 8.6 -9.7 2.4 2.3 -33.1 59.9 -45.1 73 -5.7 6.3 -14.2 11.5 -18.8 11.5 -3.6 0 -4.2 0.9 -2.4 3.7 0.9 1.3 1.4 2.7 1.2 3.1 -0.3 0.4 1.3 2.1 3.4 3.7 2.1 1.7 4.1 3.7 4.4 4.5 1 2.7 13.7 11 19.4 12.7 4.1 1.2 7.9 1.4 14.7 1 8 -0.5 9.1 -0.3 9.1 1.1 0 1.6 -2.5 4.8 -3.6 4.6 -0.3 0 -2.6 0.8 -5.1 1.9 -6.3 2.8 -16.1 3.2 -23.2 0.8z"
       id="path444" /><path
       d="M1282 1419 c0 -0.8 -0.8 -1 -2.1 -0.7 -1.6 0.4 -1.8 0.3 -0.8 -0.9 0.6 -0.8 1.7 -1.4 2.3 -1.4 0.6 0 2.2 -1.8 3.5 -4 2.5 -4 10.4 -9 14.2 -9 1 0 1.9 -0.5 1.9 -1.1 0 -0.5 0.4 -0.7 1 -0.4 0.5 0.3 1.9 0.1 3 -0.5 2.6 -1.4 14 -2.2 14 -0.9 0 0.5 -0.7 0.9 -1.5 0.9 -0.8 0 -1.5 0.4 -1.5 1 0 0.5 -0.7 0.7 -1.5 0.3 -2 -0.7 -16.7 5.6 -15.9 6.9 0.3 0.5 -0.2 1.5 -1.2 2.3 -1.2 0.9 -2.1 1 -2.5 0.3 -0.4 -0.6 -1.6 -0.7 -2.8 -0.3 -1.2 0.3 -1.9 1.1 -1.6 1.6 0.4 0.5 0.3 1.4 -0.1 2 -0.5 0.8 -0.9 0.8 -1.4 -0.1 -1 -1.6 -5.1 -0.3 -4.4 1.4 0.3 0.7 -0.2 1.9 -1.1 2.6 -1.2 1 -1.5 1 -1.5 0z"
       id="path446" /><path
       d="M1618.8 1382.8 c-0.2 -0.6 -0.1 -2.8 0.4 -4.7 1.8 -8.6 3.8 -21.2 3.8 -24.6 0 -6 2 -12.5 3.9 -12.4 1 0 1.1 0.2 0.4 0.6 -1.6 0.6 -1.7 2.3 -0.2 2.3 0.6 0 2.4 1.1 3.9 2.4 4.8 3.9 10.8 4.2 21.8 0.7 l3.4 -1 -3.8 4.7 c-5.7 7.2 -9.1 10.2 -11.6 10.3 -1.3 0 -1.7 0.3 -1 0.6 2.3 0.9 1.2 2.9 -4.8 8.7 -3.3 3.2 -5.8 5.1 -5.4 4.2 0.8 -2.1 -1.9 -2.1 -4.1 0 -1.1 1.2 -1.3 1.9 -0.5 2.4 0.7 0.4 0.1 1.8 -1.9 3.8 -3.2 3.5 -3.7 3.8 -4.3 2z"
       id="path448" /><path
       d="M1263.5 1282.8 c6.1 -5.3 7.8 -9.9 7.2 -19.2 -0.6 -10.1 -2.6 -16.1 -13.9 -41.1 -4.9 -11 -10.4 -23.1 -12.1 -27 -1.8 -3.8 -3.5 -7.1 -3.9 -7.3 -0.5 -0.2 -0.8 -0.9 -0.8 -1.5 0 -0.7 -0.9 -1.8 -2 -2.5 -1.2 -0.7 -1.8 -1.7 -1.5 -2.2 0.3 -0.6 0.2 -1 -0.2 -1 -0.5 0 -1.7 -1.3 -2.6 -3 -2.3 -3.8 -1.6 -3.7 5.6 0.3 9.5 5.2 18.7 12.9 18.1 15 -0.4 1.2 0 1.7 1.5 1.7 1.2 0 2 0.3 1.9 0.8 -0.1 0.4 0.4 1.8 1.1 3.1 1.1 2 1.1 2.5 0 3.3 -1.1 0.8 -1.1 0.9 0.1 0.6 1.7 -0.5 4.3 4.6 8.6 17.1 2.1 6.2 2.6 8.5 1.7 8.8 -1.7 0.6 -1.7 2.3 0 2.3 3.6 0 6.3 27.8 3.7 37.2 -1.5 5.1 -6.8 12.8 -10.9 15.5 -4.9 3.3 -5.8 2.8 -1.6 -0.9z"
       id="path450" /><path
       d="M1083.1 1228 c-1.9 -1.1 -0.6 -4.1 1.4 -3.4 1.6 0.6 2 2.9 0.7 3.8 -0.4 0.2 -1.4 0.1 -2.1 -0.4z"
       id="path452" /><path
       d="M1421.3 1100 c0 -2.5 0.2 -3.5 0.4 -2.2 0.2 1.2 0.2 3.2 0 4.5 -0.2 1.2 -0.4 0.2 -0.4 -2.3z"
       id="path454" /><path
       d="M605.8 760.4 c-1.3 -1.2 -15.5 -7.2 -21.3 -8.9 -3 -0.8 -5.5 -1.9 -5.5 -2.3 0 -0.4 2.3 -3.3 5.1 -6.4 6.2 -7.1 7.2 -7 13.2 1.7 1.5 2.2 5.5 6.9 9 10.5 3.4 3.6 5.3 5.7 4.1 4.7 -2.5 -2.1 -3.2 -2.1 -3.6 -0.1 -0.2 0.9 -0.6 1.2 -1 0.8z"
       id="path456" /><path
       d="M663.2 752.5 c-19.6 -11.1 -42 -17.5 -61.7 -17.5 -5.7 0 -7.9 -1 -7.3 -3.3 0.5 -2.4 22.6 -26.4 27.9 -30.3 5.3 -3.8 5.9 -4 5.9 -1.9 0 5.6 8.7 16.4 34.2 42.2 12.5 12.7 15.3 16.6 11.5 16.2 -0.7 -0.1 -5.4 -2.5 -10.5 -5.4z"
       id="path458" /><path
       d="M768.3 661 c-3.4 -0.5 -9 -1.6 -12.5 -2.5 -7.6 -2.1 -23.8 -9.8 -26.4 -12.6 -1.7 -1.9 -1.7 -2 0.5 -3.6 7.7 -5.3 15 -12.7 22.7 -22.5 4.8 -6.2 10.2 -13 12.1 -15.1 1.8 -2 3.3 -4.2 3.3 -4.8 0 -1.8 31.4 -39.7 33.5 -40.5 0.7 -0.3 3.7 -3.8 6.6 -7.7 11.8 -15.9 17.9 -20.5 30 -22.7 7.4 -1.4 18.9 -0.5 18.9 1.4 0 2 -9.8 10.6 -12.3 10.7 -1.2 0 -1.6 0.3 -0.9 0.6 0.6 0.2 1.2 0.8 1.2 1.3 0 0.5 -0.6 1.5 -1.2 2.2 -1.7 1.7 -6.3 9.9 -9.3 16.5 -6 12.9 -7.6 29.7 -3.6 38.1 3.2 6.8 6.2 8.6 14.8 9 10.5 0.6 18.9 -2.5 33.8 -12.3 l2.9 -2 -1.9 3.3 c-5.1 8.7 -23.7 25.2 -24.7 22 -0.3 -0.9 -1.2 -0.9 -3.6 0.1 -1.7 0.7 -2.9 1.8 -2.5 2.4 0.3 0.5 -0.2 1.6 -1.3 2.4 -1 0.8 -7.3 6.7 -13.9 13.1 -13.6 13.3 -21.2 18 -34.2 21.1 -9.4 2.3 -23.5 3.2 -32 2.1z"
       id="path460" /></g></svg>
