<?xml version="1.0" encoding="UTF-8" standalone="no"?>
<svg
   id="visual"
   viewBox="0 0 900 100"
   width="900"
   height="100"
   version="1.1"
   sodipodi:docname="Wave.svg"
   inkscape:version="1.2.2 (732a01da63, 2022-12-09)"
   xmlns:inkscape="http://www.inkscape.org/namespaces/inkscape"
   xmlns:sodipodi="http://sodipodi.sourceforge.net/DTD/sodipodi-0.dtd"
   xmlns="http://www.w3.org/2000/svg"
   xmlns:svg="http://www.w3.org/2000/svg">
  <defs
     id="defs14" />
  <sodipodi:namedview
     id="namedview12"
     pagecolor="#ffffff"
     bordercolor="#000000"
     borderopacity="0.25"
     inkscape:showpageshadow="2"
     inkscape:pageopacity="0.0"
     inkscape:pagecheckerboard="true"
     inkscape:deskcolor="#d1d1d1"
     showgrid="false"
     inkscape:zoom="1.3444444"
     inkscape:cx="448.5124"
     inkscape:cy="121.23967"
     inkscape:window-width="2560"
     inkscape:window-height="1009"
     inkscape:window-x="-8"
     inkscape:window-y="-8"
     inkscape:window-maximized="1"
     inkscape:current-layer="visual" />
  <path
     d="m 0,61 8.8,2.5 c 8.9,2.5 26.5,7.5 44.2,2.8 17.7,-4.6 35.3,-19 53,-26.5 17.7,-7.5 35.3,-8.1 53,-3.1 17.7,5 35.3,15.6 53,27 17.7,11.3 35.3,23.3 53,21.3 17.7,-2 35.3,-18 53,-17.2 17.7,0.9 35.3,18.5 53,16 17.7,-2.5 35.3,-25.1 52.8,-36 17.5,-10.8 34.9,-9.8 52.4,0.7 17.5,10.5 35.1,30.5 52.8,38.3 17.7,7.9 35.3,3.5 53,-10.5 17.7,-14 35.3,-37.6 53,-36.6 17.7,1 35.3,26.6 53,31.1 17.7,4.5 35.3,-12.1 53,-12.5 17.7,-0.3 35.3,15.7 53,13.7 17.7,-2 35.3,-22 53,-30 17.7,-8 35.3,-4 44.2,-2 l 8.8,2 V 0 h -8.8 C 882.3,0 864.7,0 847,0 829.3,0 811.7,0 794,0 776.3,0 758.7,0 741,0 723.3,0 705.7,0 688,0 670.3,0 652.7,0 635,0 617.3,0 599.7,0 582,0 564.3,0 546.7,0 529,0 511.3,0 493.7,0 476.2,0 458.7,0 441.3,0 423.8,0 406.3,0 388.7,0 371,0 353.3,0 335.7,0 318,0 300.3,0 282.7,0 265,0 247.3,0 229.7,0 212,0 194.3,0 176.7,0 159,0 141.3,0 123.7,0 106,0 88.3,0 70.7,0 53,0 35.3,0 17.7,0 8.8,0 H 0 Z"
     fill="#022863"
     stroke-linecap="round"
     stroke-linejoin="miter"
     id="path9" />
</svg>
