<?xml version="1.0" encoding="UTF-8" standalone="no"?>
<svg
   version="1.1"
   x="0px"
   y="0px"
   viewBox="0 0 90 90"
   enable-background="new 0 0 100 100"
   xml:space="preserve"
   id="svg248"
   sodipodi:docname="WhiteLotus.svg"
   width="90"
   height="90"
   inkscape:version="1.2.2 (732a01da63, 2022-12-09)"
   xmlns:inkscape="http://www.inkscape.org/namespaces/inkscape"
   xmlns:sodipodi="http://sodipodi.sourceforge.net/DTD/sodipodi-0.dtd"
   xmlns="http://www.w3.org/2000/svg"
   xmlns:svg="http://www.w3.org/2000/svg"><defs
     id="defs252" /><sodipodi:namedview
     id="namedview250"
     pagecolor="#ffffff"
     bordercolor="#000000"
     borderopacity="0.25"
     inkscape:showpageshadow="2"
     inkscape:pageopacity="0.0"
     inkscape:pagecheckerboard="true"
     inkscape:deskcolor="#d1d1d1"
     showgrid="false"
     inkscape:zoom="6.448"
     inkscape:cx="46.836228"
     inkscape:cy="50.093052"
     inkscape:window-width="2560"
     inkscape:window-height="1009"
     inkscape:window-x="-8"
     inkscape:window-y="-8"
     inkscape:window-maximized="1"
     inkscape:current-layer="g240" /><g
     id="g242"
     transform="translate(-5.117866,-4.6526054)"><g
       id="g240"><path
         d="M 50,5.76 C 25.565,5.76 5.76,25.57 5.76,50 5.76,74.435 25.566,94.24 50,94.24 74.43,94.24 94.24,74.434 94.24,50 94.24,25.57 74.43,5.76 50,5.76 Z m 36.519,49.208 c 0.349,1.951 0.691,3.908 0.508,5.933 -0.148,1.65 -0.856,2.834 -2.303,3.605 -0.168,0.088 -0.298,0.241 -0.396,0.318 -0.028,0.135 -0.061,0.193 -0.05,0.23 0.849,2.346 0.037,4.088 -1.953,5.402 -0.705,0.475 -1.381,0.999 -2.11,1.43 -2.908,1.704 -5.178,4.042 -7.135,6.763 -1.103,1.535 -2.377,2.958 -3.626,4.387 -0.721,0.815 -1.691,1.295 -2.769,1.355 -0.775,0.045 -1.565,-0.139 -2.43,-0.229 -0.004,0 -0.086,0.049 -0.123,0.122 -1.29,2.659 -2.604,2.651 -5.514,2.307 -1.183,-0.139 -2.335,-0.528 -3.51,-0.77 -2.933,-0.611 -5.854,-0.46 -8.779,0.135 -1.855,0.372 -3.707,0.741 -5.628,0.774 -2.081,0.024 -3.576,-0.738 -4.465,-2.72 -0.343,0.09 -0.675,0.146 -0.988,0.263 -1.49,0.531 -2.797,0.154 -3.837,-0.948 -0.893,-0.933 -1.75,-1.937 -2.457,-3.014 -1.956,-2.974 -4.409,-5.428 -7.382,-7.369 -0.836,-0.55 -1.626,-1.168 -2.409,-1.794 -2.568,-2.053 -3.256,-3.303 -2.585,-6.42 -0.061,-0.069 -0.115,-0.176 -0.192,-0.213 -2.466,-1.044 -2.704,-2.851 -2.323,-5.075 0.25,-1.42 0.573,-2.835 0.894,-4.248 0.52,-2.322 0.389,-4.645 0.036,-6.979 -0.308,-2.024 -0.59,-4.048 -0.738,-6.088 -0.156,-2.129 0.111,-3.584 2.798,-5.033 0,-0.156 0.011,-0.201 0,-0.246 -0.725,-2.63 -0.393,-3.679 1.769,-5.306 0.799,-0.602 1.634,-1.159 2.494,-1.667 2.855,-1.696 5.08,-4.031 6.965,-6.733 0.742,-1.07 1.519,-2.118 2.359,-3.102 1.048,-1.229 2.171,-2.426 3.937,-2.503 0.774,-0.041 1.556,0.102 2.483,0.171 0.122,-0.2 0.331,-0.524 0.52,-0.864 0.609,-1.113 1.565,-1.634 2.814,-1.691 1.368,-0.065 2.692,0.151 4.002,0.512 2.482,0.685 5.01,0.959 7.574,0.713 1.531,-0.151 3.051,-0.504 4.58,-0.733 1.232,-0.181 2.469,-0.348 3.706,-0.467 2.163,-0.213 3.826,0.557 4.798,2.683 0.306,-0.082 0.581,-0.143 0.852,-0.225 1.921,-0.623 3.428,0.085 4.657,1.52 0.68,0.794 1.331,1.634 1.885,2.526 1.88,3.044 4.456,5.371 7.394,7.353 1.036,0.701 2.048,1.45 2.978,2.282 2.171,1.954 2.482,3.052 1.831,5.891 0.151,0.073 0.308,0.176 0.483,0.253 1.557,0.684 2.331,1.876 2.154,3.572 -0.158,1.483 -0.336,2.978 -0.691,4.425 -0.791,3.179 -0.644,6.322 -0.078,9.512 z"
         id="path218"
         style="fill:#ffffff" /><path
         fill-rule="evenodd"
         clip-rule="evenodd"
         d="m 36.694,54.51 c -0.22,0.97 -0.962,1.696 -1.917,2.199 -1.449,0.767 -2.896,1.578 -4.419,2.175 -0.311,0.124 -0.627,0.243 -0.942,0.36 -0.312,0.119 -0.626,0.238 -0.947,0.35 -0.314,0.114 -0.634,0.226 -0.954,0.331 -0.478,0.156 -0.958,0.308 -1.446,0.442 -0.159,0.046 -0.323,0.091 -0.487,0.131 -0.483,0.127 -0.971,0.238 -1.462,0.336 -0.167,0.033 -0.335,0.062 -0.504,0.091 -0.332,0.053 -0.668,0.103 -1.003,0.14 -0.119,0.012 -0.238,0.024 -0.357,0.032 -0.721,0.062 -1.457,0.057 -2.179,-0.017 -0.012,0 -0.025,0 -0.033,-0.004 C 19.856,61.059 19.667,61.035 19.483,61.007 19.29,60.973 19.098,60.941 18.905,60.901 18.766,60.872 18.63,60.835 18.509,60.795 18.421,60.766 18.341,60.733 18.262,60.7 l -0.004,-0.005 c -0.081,-0.035 -0.16,-0.072 -0.229,-0.118 -0.074,-0.041 -0.139,-0.086 -0.2,-0.131 -0.004,0 -0.004,0 -0.004,-0.004 C 17.763,60.397 17.701,60.344 17.649,60.29 17.6,60.245 17.555,60.196 17.51,60.144 17.498,60.127 17.489,60.115 17.478,60.102 17.439,60.049 17.404,59.996 17.37,59.943 17.367,59.939 17.367,59.939 17.363,59.935 17.325,59.869 17.289,59.804 17.26,59.738 c -0.033,-0.069 -0.058,-0.143 -0.082,-0.217 -0.012,-0.045 -0.023,-0.09 -0.037,-0.135 -0.02,-0.083 -0.036,-0.168 -0.045,-0.255 -0.029,-0.184 -0.033,-0.381 -0.02,-0.589 -0.005,-0.005 -0.005,-0.005 0,-0.008 0.012,-0.14 0.029,-0.288 0.049,-0.435 0,0 -0.004,-0.005 0,-0.005 0.008,-0.072 0.024,-0.151 0.041,-0.229 0.049,-0.222 0.106,-0.443 0.173,-0.652 0.069,-0.209 0.147,-0.418 0.229,-0.618 0.085,-0.196 0.179,-0.394 0.278,-0.585 0.049,-0.099 0.099,-0.193 0.155,-0.283 0.213,-0.374 0.456,-0.729 0.718,-1.077 0.328,-0.432 0.679,-0.845 1.044,-1.254 0.5,-0.554 1.107,-1.007 1.691,-1.532 -1.123,-1.409 -2.118,-2.531 -2.958,-3.76 -0.105,-0.151 -0.204,-0.311 -0.299,-0.471 -0.054,-0.085 -0.106,-0.176 -0.151,-0.266 -0.164,-0.291 -0.308,-0.589 -0.442,-0.893 -0.099,-0.23 -0.193,-0.459 -0.279,-0.692 C 17.28,45.667 17.235,45.553 17.2,45.434 L 17.195,45.43 C 17.166,45.348 17.141,45.266 17.121,45.184 17.105,45.119 17.085,45.049 17.071,44.983 17.063,44.963 17.06,44.946 17.06,44.93 17.043,44.836 17.027,44.742 17.018,44.652 17.004,44.56 17,44.47 17,44.38 c 0,-0.004 0,-0.008 0,-0.008 0,-0.062 0.004,-0.124 0.009,-0.185 0.005,-0.065 0.011,-0.127 0.025,-0.189 0.008,-0.061 0.02,-0.122 0.036,-0.179 0.025,-0.086 0.054,-0.168 0.09,-0.25 0.034,-0.082 0.074,-0.164 0.119,-0.241 0.062,-0.099 0.131,-0.197 0.213,-0.288 0.042,-0.045 0.086,-0.085 0.131,-0.13 0.181,-0.173 0.397,-0.315 0.651,-0.439 0.066,-0.029 0.131,-0.062 0.201,-0.085 0.065,-0.029 0.134,-0.054 0.208,-0.079 0.074,-0.024 0.148,-0.049 0.226,-0.069 0.073,-0.021 0.152,-0.041 0.226,-0.058 0.115,-0.024 0.229,-0.049 0.344,-0.065 0.188,-0.037 0.373,-0.062 0.557,-0.074 0.152,-0.012 0.3,-0.02 0.451,-0.024 0.36,-0.012 0.721,0 1.085,0.032 0.144,0.013 0.286,0.025 0.434,0.042 0.144,0.016 0.291,0.032 0.438,0.053 4.068,0.536 7.817,1.966 11.446,3.769 0.445,0.221 0.884,0.455 1.278,0.736 0.061,0.046 0.125,0.091 0.188,0.144 0.164,0.127 0.319,0.266 0.462,0.417 0.119,0.124 0.225,0.255 0.323,0.398 0.102,0.139 0.188,0.291 0.266,0.45 0.078,0.164 0.144,0.335 0.201,0.524 0.024,0.09 0.049,0.188 0.069,0.287 -0.36,1.294 -1.483,1.896 -2.646,2.596 0.086,0.104 0.177,0.196 0.275,0.283 0.049,0.049 0.102,0.094 0.156,0.136 0.09,0.081 0.184,0.151 0.278,0.221 0.085,0.065 0.172,0.127 0.258,0.188 0.246,0.177 0.492,0.345 0.721,0.538 0.034,0.023 0.065,0.053 0.099,0.081 0.286,0.25 0.537,0.541 0.696,0.913 0.016,0.034 0.029,0.062 0.041,0.095 0.004,0.017 0.014,0.032 0.021,0.054 0.024,0.073 0.048,0.156 0.066,0.236 0.006,0.029 0.016,0.059 0.02,0.087 0.012,0.069 0.026,0.139 0.032,0.213 z"
         id="path220"
         style="fill:#ffffff" /><path
         fill-rule="evenodd"
         clip-rule="evenodd"
         d="m 42.036,63.26 c 0.53,0.841 0.519,1.879 0.199,2.91 -0.482,1.567 -0.932,3.163 -1.586,4.663 -0.132,0.308 -0.272,0.615 -0.411,0.92 -0.137,0.306 -0.275,0.612 -0.423,0.917 -0.142,0.304 -0.289,0.608 -0.44,0.909 -0.228,0.448 -0.46,0.895 -0.709,1.335 -0.081,0.145 -0.165,0.293 -0.252,0.438 -0.252,0.431 -0.518,0.854 -0.797,1.271 -0.095,0.143 -0.194,0.282 -0.292,0.421 -0.198,0.273 -0.4,0.545 -0.611,0.809 -0.075,0.093 -0.151,0.185 -0.229,0.274 -0.466,0.554 -0.989,1.071 -1.552,1.529 -0.008,0.009 -0.018,0.018 -0.025,0.021 -0.145,0.121 -0.296,0.236 -0.446,0.347 -0.16,0.113 -0.318,0.226 -0.484,0.333 -0.119,0.079 -0.241,0.148 -0.355,0.206 -0.083,0.041 -0.163,0.075 -0.241,0.107 h -0.006 c -0.083,0.031 -0.165,0.061 -0.247,0.077 -0.081,0.023 -0.159,0.038 -0.233,0.05 -0.002,0.003 -0.002,0.003 -0.006,0 -0.075,0.012 -0.156,0.018 -0.232,0.018 -0.067,0.002 -0.133,0 -0.202,-0.006 -0.021,-0.003 -0.036,-0.005 -0.053,-0.006 -0.064,-0.011 -0.127,-0.024 -0.188,-0.037 -0.006,0 -0.006,0 -0.011,0 -0.073,-0.021 -0.145,-0.041 -0.212,-0.067 -0.072,-0.026 -0.141,-0.06 -0.211,-0.095 -0.04,-0.023 -0.08,-0.047 -0.121,-0.069 -0.073,-0.045 -0.145,-0.094 -0.212,-0.148 -0.151,-0.11 -0.292,-0.246 -0.431,-0.403 -0.006,0 -0.006,0 -0.006,-0.005 -0.089,-0.106 -0.182,-0.224 -0.272,-0.342 0,0 -0.006,0 -0.003,-0.003 -0.046,-0.058 -0.09,-0.125 -0.133,-0.191 -0.122,-0.19 -0.238,-0.388 -0.339,-0.583 -0.098,-0.196 -0.191,-0.398 -0.275,-0.6 -0.079,-0.198 -0.15,-0.404 -0.217,-0.609 -0.035,-0.105 -0.066,-0.207 -0.09,-0.31 -0.113,-0.416 -0.193,-0.839 -0.253,-1.27 -0.074,-0.537 -0.117,-1.078 -0.149,-1.626 -0.038,-0.744 0.071,-1.493 0.113,-2.279 C 27.603,71.964 26.105,71.874 24.643,71.6 24.461,71.567 24.279,71.523 24.099,71.477 24,71.455 23.899,71.428 23.804,71.396 23.483,71.307 23.17,71.197 22.86,71.078 22.628,70.985 22.399,70.89 22.172,70.786 22.06,70.737 21.947,70.687 21.838,70.629 h -0.007 c -0.079,-0.037 -0.154,-0.077 -0.226,-0.121 -0.057,-0.034 -0.121,-0.07 -0.177,-0.107 -0.02,-0.009 -0.034,-0.019 -0.045,-0.029 -0.079,-0.055 -0.157,-0.11 -0.226,-0.167 -0.073,-0.057 -0.14,-0.116 -0.203,-0.18 -0.003,-0.004 -0.006,-0.006 -0.006,-0.006 -0.044,-0.044 -0.084,-0.09 -0.125,-0.137 -0.042,-0.05 -0.082,-0.098 -0.116,-0.151 -0.038,-0.049 -0.072,-0.101 -0.102,-0.152 -0.044,-0.078 -0.082,-0.156 -0.113,-0.241 -0.034,-0.08 -0.064,-0.167 -0.087,-0.255 -0.026,-0.113 -0.046,-0.23 -0.052,-0.354 -0.002,-0.061 0,-0.121 0,-0.185 0.006,-0.249 0.059,-0.504 0.15,-0.771 0.026,-0.067 0.049,-0.137 0.082,-0.203 0.026,-0.066 0.057,-0.132 0.092,-0.203 0.036,-0.069 0.07,-0.139 0.111,-0.209 0.037,-0.064 0.079,-0.136 0.119,-0.199 0.063,-0.098 0.127,-0.196 0.197,-0.289 0.107,-0.159 0.22,-0.308 0.341,-0.446 0.099,-0.117 0.197,-0.226 0.301,-0.336 0.246,-0.264 0.509,-0.51 0.791,-0.745 0.111,-0.092 0.22,-0.184 0.337,-0.277 0.112,-0.091 0.229,-0.183 0.347,-0.272 3.256,-2.496 6.918,-4.137 10.758,-5.429 0.471,-0.158 0.947,-0.303 1.425,-0.382 0.075,-0.011 0.153,-0.025 0.235,-0.032 0.206,-0.026 0.414,-0.038 0.622,-0.032 0.172,0.003 0.339,0.021 0.51,0.054 0.171,0.026 0.339,0.072 0.507,0.131 0.17,0.061 0.339,0.136 0.512,0.228 0.082,0.046 0.168,0.099 0.253,0.154 0.66,1.17 0.292,2.389 -0.036,3.707 0.134,0.012 0.264,0.014 0.395,0.005 0.07,0 0.139,-0.005 0.207,-0.013 0.121,-0.007 0.237,-0.023 0.353,-0.041 0.106,-0.015 0.211,-0.032 0.315,-0.05 0.298,-0.05 0.591,-0.104 0.89,-0.13 0.041,-0.008 0.083,-0.009 0.127,-0.013 0.379,-0.025 0.762,0.003 1.138,0.154 0.036,0.013 0.065,0.022 0.096,0.038 0.015,0.008 0.033,0.014 0.053,0.022 0.069,0.034 0.144,0.076 0.214,0.121 0.025,0.017 0.052,0.029 0.075,0.047 0.05,0.039 0.109,0.078 0.166,0.127 z"
         id="path222"
         style="fill:#ffffff" /><path
         fill-rule="evenodd"
         clip-rule="evenodd"
         d="m 59.527,81.91 c -0.028,0.204 -0.069,0.393 -0.118,0.572 -0.029,0.087 -0.054,0.173 -0.086,0.255 -0.029,0.082 -0.062,0.164 -0.099,0.238 -0.033,0.077 -0.07,0.15 -0.11,0.22 0,0.005 0,0.005 0,0.005 -0.04,0.069 -0.082,0.139 -0.127,0.2 -0.045,0.065 -0.09,0.127 -0.139,0.186 -0.05,0.056 -0.1,0.114 -0.152,0.163 -0.422,0.418 -0.979,0.631 -1.631,0.631 -0.085,0 -0.176,-0.004 -0.263,-0.013 -0.088,-0.008 -0.183,-0.016 -0.273,-0.032 -0.249,-0.041 -0.508,-0.107 -0.778,-0.205 -0.065,-0.024 -0.131,-0.049 -0.2,-0.078 -0.308,-0.127 -0.606,-0.266 -0.897,-0.421 -0.099,-0.05 -0.192,-0.104 -0.287,-0.156 -0.188,-0.111 -0.376,-0.221 -0.562,-0.335 -0.224,-0.148 -0.449,-0.3 -0.671,-0.46 -0.136,-0.099 -0.263,-0.192 -0.394,-0.295 -0.131,-0.099 -0.262,-0.201 -0.394,-0.308 -0.098,-0.074 -0.196,-0.154 -0.29,-0.232 -0.111,-0.094 -0.225,-0.185 -0.336,-0.279 -0.168,-0.144 -0.337,-0.286 -0.499,-0.43 -0.095,-0.082 -0.186,-0.164 -0.279,-0.254 -0.046,-0.041 -0.091,-0.086 -0.139,-0.131 -0.233,-0.222 -0.48,-0.468 -0.774,-0.75 -0.427,0.39 -0.829,0.737 -1.209,1.114 -1.184,1.168 -2.506,2.146 -4.046,2.785 -0.537,0.221 -1.144,0.361 -1.725,0.39 -0.058,0.004 -0.111,0.004 -0.167,0.004 -0.066,0 -0.132,-0.004 -0.197,-0.009 -0.045,-0.003 -0.095,-0.008 -0.144,-0.016 -0.045,0 -0.094,-0.008 -0.139,-0.017 -0.077,-0.016 -0.15,-0.033 -0.224,-0.053 -0.029,-0.008 -0.054,-0.018 -0.083,-0.025 -0.069,-0.021 -0.134,-0.049 -0.2,-0.073 -0.045,-0.025 -0.094,-0.045 -0.135,-0.07 -0.054,-0.027 -0.103,-0.057 -0.148,-0.09 -0.155,-0.102 -0.291,-0.226 -0.413,-0.372 -0.079,-0.095 -0.148,-0.196 -0.209,-0.312 -0.062,-0.109 -0.119,-0.233 -0.164,-0.368 -0.025,-0.066 -0.046,-0.131 -0.066,-0.205 -0.017,-0.069 -0.032,-0.143 -0.049,-0.217 -0.02,-0.099 -0.037,-0.193 -0.057,-0.291 -0.037,-0.196 -0.07,-0.393 -0.102,-0.594 -0.05,-0.3 -0.086,-0.598 -0.111,-0.896 -0.016,-0.197 -0.025,-0.394 -0.025,-0.591 0,-0.25 0.014,-0.491 0.045,-0.732 0.059,-0.442 0.124,-0.877 0.202,-1.312 0.023,-0.155 0.053,-0.308 0.081,-0.462 0.238,-1.233 0.55,-2.441 0.929,-3.634 0.124,-0.39 0.255,-0.778 0.394,-1.168 0.345,-0.967 0.733,-1.921 1.16,-2.862 0.471,-1.041 0.991,-2.065 1.544,-3.064 0.065,-0.119 0.135,-0.233 0.213,-0.348 0.07,-0.108 0.147,-0.214 0.225,-0.316 0.09,-0.118 0.184,-0.229 0.283,-0.344 0.089,-0.099 0.179,-0.196 0.273,-0.291 v -0.004 c 0.124,-0.127 0.25,-0.242 0.382,-0.336 0.061,-0.05 0.127,-0.09 0.193,-0.132 0.065,-0.045 0.13,-0.082 0.2,-0.109 0.062,-0.033 0.123,-0.058 0.188,-0.082 0.11,-0.042 0.221,-0.069 0.332,-0.082 0.033,-0.009 0.061,-0.013 0.094,-0.017 0.671,-0.07 1.322,0.295 1.855,1.073 0.282,0.414 0.529,0.848 0.798,1.266 0.013,0.016 0.029,0.032 0.049,0.05 0.062,0.045 0.156,0.081 0.283,0.155 0.373,-0.565 0.685,-1.078 1.036,-1.561 0.055,-0.074 0.111,-0.147 0.169,-0.214 0.032,-0.04 0.064,-0.082 0.106,-0.119 0.028,-0.037 0.061,-0.072 0.098,-0.106 0.05,-0.048 0.095,-0.093 0.144,-0.13 0.037,-0.033 0.074,-0.062 0.111,-0.087 0.021,-0.02 0.04,-0.037 0.065,-0.049 0.037,-0.028 0.073,-0.053 0.114,-0.074 0.119,-0.073 0.242,-0.127 0.369,-0.158 0.053,-0.021 0.11,-0.034 0.168,-0.042 h 0.012 c 0.066,-0.012 0.128,-0.017 0.193,-0.017 0.467,-0.003 0.95,0.226 1.453,0.673 0.087,0.073 0.168,0.151 0.246,0.233 0.054,0.049 0.103,0.102 0.151,0.154 0.086,0.091 0.164,0.181 0.242,0.271 0.082,0.095 0.159,0.193 0.233,0.296 0.045,0.062 0.09,0.118 0.132,0.181 0.114,0.163 0.225,0.331 0.327,0.499 0.045,0.074 0.086,0.147 0.127,0.221 0.078,0.127 0.147,0.254 0.212,0.386 l 0.148,0.282 c 0.069,0.144 0.135,0.286 0.204,0.434 0.164,0.361 0.32,0.729 0.479,1.095 1.237,2.888 2.314,5.846 2.807,8.963 0.178,1.121 0.207,2.313 0.042,3.435 z"
         id="path224"
         style="fill:#ffffff" /><path
         fill-rule="evenodd"
         clip-rule="evenodd"
         d="m 59.658,22.567 c 0,0.098 0,0.196 -0.003,0.291 -0.005,0.098 -0.013,0.192 -0.017,0.291 0,0.003 0,0.008 0,0.008 -0.008,0.099 -0.016,0.193 -0.024,0.291 -0.021,0.238 -0.045,0.472 -0.078,0.705 -0.385,2.875 -1.271,5.632 -2.421,8.295 -0.631,1.458 -1.381,2.875 -2.158,4.264 -0.07,0.127 -0.156,0.25 -0.246,0.365 -0.091,0.114 -0.193,0.226 -0.3,0.332 -0.106,0.105 -0.217,0.209 -0.331,0.307 -0.114,0.099 -0.229,0.193 -0.349,0.278 -0.356,0.266 -0.729,0.373 -1.085,0.315 C 52.609,38.306 52.572,38.297 52.535,38.284 52.473,38.273 52.413,38.252 52.351,38.223 52.297,38.202 52.245,38.174 52.195,38.144 52.073,38.075 51.954,37.98 51.84,37.866 V 37.863 C 51.758,37.784 51.684,37.707 51.61,37.625 51.459,37.461 51.311,37.293 51.16,37.121 51.086,37.031 51.009,36.94 50.939,36.85 50.713,36.579 50.488,36.301 50.25,36.01 50.169,35.911 50.086,35.814 50.001,35.712 l -0.004,-0.004 c -0.061,0.086 -0.123,0.179 -0.184,0.274 -0.124,0.185 -0.25,0.377 -0.389,0.565 -0.066,0.094 -0.139,0.188 -0.213,0.278 -0.258,0.312 -0.509,0.652 -0.804,0.926 -0.049,0.045 -0.098,0.09 -0.147,0.131 -0.053,0.04 -0.107,0.082 -0.161,0.119 -0.076,0.053 -0.155,0.098 -0.229,0.139 -0.041,0.021 -0.078,0.037 -0.115,0.053 -0.074,0.033 -0.147,0.058 -0.221,0.079 0,0 0,0 -0.003,0 -0.07,0.016 -0.136,0.028 -0.206,0.036 -0.435,0.037 -0.848,-0.139 -1.274,-0.495 -0.988,-0.827 -1.605,-1.934 -2.126,-3.056 -1.327,-2.851 -2.494,-5.78 -3.1,-8.881 -0.034,-0.16 -0.063,-0.319 -0.091,-0.479 -0.045,-0.212 -0.082,-0.422 -0.119,-0.634 -0.028,-0.168 -0.057,-0.34 -0.078,-0.508 -0.02,-0.127 -0.037,-0.254 -0.049,-0.38 -0.004,-0.013 -0.004,-0.025 -0.004,-0.037 -0.016,-0.107 -0.025,-0.213 -0.033,-0.323 -0.012,-0.124 -0.023,-0.25 -0.028,-0.377 -0.014,-0.176 -0.017,-0.348 -0.017,-0.524 0,-0.288 0.017,-0.582 0.045,-0.874 0.033,-0.294 0.082,-0.589 0.152,-0.889 0.024,-0.098 0.049,-0.192 0.079,-0.282 0.036,-0.131 0.081,-0.255 0.134,-0.37 0.025,-0.069 0.054,-0.134 0.085,-0.196 0.045,-0.094 0.094,-0.181 0.148,-0.263 0.213,-0.348 0.479,-0.594 0.779,-0.757 0.053,-0.028 0.11,-0.058 0.167,-0.082 0.058,-0.025 0.119,-0.048 0.181,-0.065 0.056,-0.02 0.119,-0.037 0.179,-0.053 0,0 0.005,0 0.009,0 0.606,-0.139 1.302,-0.037 2.002,0.217 0.103,0.037 0.201,0.074 0.298,0.11 0.202,0.079 0.394,0.165 0.586,0.255 0.193,0.09 0.382,0.184 0.566,0.283 0.004,0.003 0.004,0.003 0.004,0.003 0.135,0.074 0.266,0.148 0.397,0.226 0.139,0.086 0.278,0.172 0.413,0.263 0.159,0.105 0.315,0.212 0.471,0.327 0.188,0.136 0.373,0.28 0.552,0.431 0.132,0.105 0.263,0.217 0.386,0.328 0.008,0.008 0.016,0.011 0.02,0.021 0.065,0.057 0.13,0.114 0.197,0.179 0.119,0.107 0.237,0.221 0.352,0.337 0.418,0.417 0.852,0.823 1.294,1.245 0.221,-0.176 0.438,-0.348 0.651,-0.52 0.299,-0.238 0.591,-0.471 0.873,-0.7 0.164,-0.131 0.328,-0.263 0.487,-0.39 0.159,-0.131 0.32,-0.258 0.479,-0.38 0.32,-0.25 0.635,-0.492 0.959,-0.73 0.159,-0.119 0.323,-0.238 0.486,-0.352 0.976,-0.684 2.032,-1.262 3.323,-1.175 1.212,0.082 1.684,0.405 2.121,1.54 0.139,0.36 0.233,0.725 0.291,1.093 0.034,0.216 0.055,0.433 0.068,0.652 0.005,0.109 0.007,0.217 0.008,0.326 0.006,0.063 0.012,0.129 0.01,0.195 z"
         id="path226"
         style="fill:#ffffff" /><path
         fill-rule="evenodd"
         clip-rule="evenodd"
         d="m 83.266,59.827 c -0.078,0.102 -0.159,0.196 -0.258,0.286 -0.332,0.315 -0.787,0.565 -1.339,0.742 -1.771,0.564 -3.479,0.13 -5.175,-0.177 -2.911,-0.533 -5.656,-1.631 -8.348,-2.835 -0.39,-0.172 -0.77,-0.368 -1.143,-0.585 C 66.38,56.902 65.774,56.499 65.185,56.094 64.816,55.84 64.54,55.562 64.357,55.267 64.32,55.205 64.288,55.144 64.254,55.083 64.14,54.845 64.082,54.599 64.082,54.349 c 0,-0.073 0.005,-0.143 0.016,-0.217 0,0 0,0 0,-0.003 0.009,-0.07 0.025,-0.145 0.045,-0.218 0.018,-0.07 0.047,-0.145 0.074,-0.217 0.025,-0.069 0.058,-0.136 0.095,-0.201 0.004,-0.013 0.012,-0.024 0.017,-0.037 0.037,-0.058 0.073,-0.119 0.114,-0.181 0.008,-0.008 0.013,-0.021 0.021,-0.032 0.05,-0.065 0.099,-0.135 0.156,-0.201 0.061,-0.069 0.127,-0.143 0.191,-0.212 0.037,-0.033 0.074,-0.07 0.111,-0.104 0.037,-0.032 0.073,-0.069 0.114,-0.103 0.058,-0.049 0.115,-0.094 0.172,-0.139 0.087,-0.069 0.177,-0.135 0.271,-0.201 0.069,-0.049 0.14,-0.098 0.214,-0.146 0.146,-0.1 0.303,-0.197 0.462,-0.308 0.156,-0.103 0.315,-0.209 0.484,-0.323 0,-0.005 0.004,-0.005 0.004,-0.005 -0.066,-0.05 -0.131,-0.098 -0.196,-0.147 -0.066,-0.049 -0.128,-0.099 -0.193,-0.144 -0.123,-0.099 -0.241,-0.188 -0.36,-0.278 -0.237,-0.181 -0.467,-0.353 -0.696,-0.521 -0.89,-0.646 -1.258,-1.417 -1.069,-2.179 0.013,-0.049 0.025,-0.099 0.045,-0.147 0.004,-0.014 0.008,-0.025 0.013,-0.037 0.017,-0.054 0.041,-0.103 0.065,-0.156 0.004,-0.012 0.012,-0.024 0.021,-0.037 0.021,-0.045 0.045,-0.09 0.073,-0.135 0.033,-0.062 0.069,-0.119 0.111,-0.176 0.045,-0.062 0.09,-0.124 0.147,-0.184 0.103,-0.128 0.221,-0.25 0.359,-0.369 0.021,-0.016 0.042,-0.037 0.062,-0.053 0.082,-0.07 0.164,-0.136 0.25,-0.201 0.127,-0.099 0.249,-0.193 0.381,-0.287 0.131,-0.09 0.261,-0.18 0.393,-0.27 0.181,-0.116 0.361,-0.226 0.541,-0.333 0.095,-0.053 0.184,-0.106 0.278,-0.156 0.114,-0.062 0.233,-0.127 0.348,-0.184 0.729,-0.377 1.492,-0.696 2.267,-0.991 2.519,-0.966 5.018,-2.007 7.714,-2.359 0.229,-0.034 0.466,-0.062 0.699,-0.086 0.004,0 0.004,0 0.009,0 0.581,-0.069 1.167,-0.119 1.753,-0.135 0.336,-0.009 0.671,-0.004 1.004,0.012 0.049,0.003 0.098,0.003 0.144,0.008 0.053,0.004 0.102,0.008 0.151,0.012 0.037,0.004 0.077,0.008 0.114,0.012 0.204,0.021 0.397,0.053 0.582,0.098 0.09,0.025 0.181,0.049 0.263,0.082 0.77,0.263 1.302,0.767 1.556,1.402 0.029,0.07 0.054,0.143 0.073,0.217 0.025,0.074 0.042,0.147 0.054,0.226 0.017,0.073 0.028,0.151 0.033,0.233 0.008,0.078 0.013,0.155 0.013,0.237 0,0.082 -0.005,0.168 -0.013,0.255 -0.021,0.217 -0.066,0.445 -0.144,0.676 -0.029,0.106 -0.069,0.216 -0.119,0.328 -0.111,0.249 -0.221,0.5 -0.34,0.745 -0.058,0.123 -0.119,0.246 -0.18,0.368 -0.111,0.226 -0.23,0.451 -0.357,0.668 -0.04,0.079 -0.09,0.156 -0.135,0.233 -0.181,0.303 -0.377,0.598 -0.59,0.885 -0.095,0.128 -0.192,0.255 -0.294,0.377 -0.116,0.139 -0.235,0.275 -0.361,0.41 -0.307,0.323 -0.614,0.643 -0.93,0.963 -0.308,0.32 -0.618,0.639 -0.922,0.954 1.081,1.339 2.171,2.577 3.126,3.912 0.508,0.717 0.885,1.573 1.142,2.421 0.017,0.062 0.034,0.119 0.051,0.181 0.011,0.058 0.023,0.114 0.036,0.172 0.012,0.058 0.02,0.11 0.029,0.168 0.089,0.644 -0.046,1.194 -0.378,1.636 z"
         id="path228"
         style="fill:#ffffff" /><path
         fill-rule="evenodd"
         clip-rule="evenodd"
         d="m 41.824,39.935 c -0.787,0.156 -1.348,0.213 -2.004,0.164 -0.151,-0.012 -0.306,-0.032 -0.475,-0.053 -0.082,-0.012 -0.168,-0.029 -0.258,-0.042 -0.131,-0.024 -0.274,-0.049 -0.422,-0.077 -0.029,-0.008 -0.057,-0.013 -0.09,-0.021 -0.037,-0.009 -0.079,-0.017 -0.119,-0.024 -0.029,-0.004 -0.057,-0.012 -0.09,-0.017 -0.054,-0.012 -0.107,-0.024 -0.159,-0.037 -0.042,0.221 -0.042,0.442 -0.014,0.668 0.005,0.09 0.021,0.184 0.037,0.275 0.062,0.352 0.161,0.704 0.221,1.053 0.012,0.053 0.021,0.105 0.029,0.159 0.008,0.041 0.012,0.078 0.016,0.119 0.004,0.045 0.009,0.09 0.014,0.135 0.003,0.004 0.003,0.012 0,0.017 0.045,0.532 -0.059,1.053 -0.555,1.548 -0.098,0.07 -0.2,0.127 -0.298,0.176 -0.049,0.025 -0.099,0.049 -0.144,0.07 -0.053,0.029 -0.105,0.049 -0.159,0.065 -0.102,0.037 -0.2,0.071 -0.303,0.094 -0.049,0.012 -0.099,0.021 -0.151,0.034 -0.564,0.106 -1.139,0.033 -1.696,-0.104 C 34.827,44.048 34.458,43.929 34.101,43.819 33.303,43.565 32.512,43.295 31.735,43 30.161,42.406 28.632,41.721 27.162,40.931 26.933,40.804 26.7,40.677 26.471,40.546 26.228,40.41 25.992,40.271 25.754,40.129 25.517,39.985 25.284,39.838 25.05,39.69 24.817,39.543 24.586,39.392 24.356,39.235 24.353,39.231 24.345,39.227 24.34,39.223 24.147,39.092 23.958,38.96 23.771,38.826 c -0.488,-0.348 -0.966,-0.708 -1.438,-1.09 -1.044,-0.843 -1.913,-1.92 -1.803,-3.448 0.054,-0.746 0.34,-1.298 0.979,-1.745 0.345,-0.238 0.701,-0.43 1.07,-0.59 0.229,-0.098 0.462,-0.184 0.701,-0.257 0,0 0,0 0.003,0 0.247,-0.074 0.5,-0.136 0.754,-0.188 0.127,-0.025 0.254,-0.045 0.382,-0.066 0.31,-0.049 0.626,-0.085 0.942,-0.122 1.02,-0.102 2.048,-0.139 3.072,-0.226 0.049,-0.004 0.099,-0.008 0.152,-0.012 0.048,-0.008 0.102,-0.013 0.164,-0.021 0.118,-0.012 0.262,-0.029 0.446,-0.049 v -0.004 c 0.029,-0.475 0.034,-0.95 0.094,-1.426 0.091,-0.688 0.177,-1.376 0.271,-2.064 0.094,-0.688 0.192,-1.376 0.303,-2.061 0.007,-0.053 0.02,-0.106 0.031,-0.163 0.014,-0.054 0.029,-0.106 0.045,-0.161 0.034,-0.106 0.071,-0.213 0.111,-0.315 0.077,-0.213 0.168,-0.417 0.241,-0.631 0.07,-0.201 0.153,-0.389 0.247,-0.564 0.065,-0.116 0.135,-0.222 0.208,-0.324 0.05,-0.07 0.105,-0.139 0.16,-0.201 0.057,-0.065 0.114,-0.126 0.176,-0.184 0.053,-0.053 0.111,-0.102 0.171,-0.151 0.005,-0.003 0.013,-0.012 0.017,-0.012 0.065,-0.053 0.131,-0.103 0.201,-0.147 0.07,-0.045 0.144,-0.09 0.217,-0.131 0.004,-0.005 0.012,-0.008 0.021,-0.013 0.065,-0.032 0.135,-0.065 0.204,-0.099 0.049,-0.023 0.102,-0.045 0.16,-0.061 0.049,-0.021 0.099,-0.037 0.148,-0.054 0.056,-0.021 0.119,-0.037 0.18,-0.053 0.09,0.005 0.18,0.008 0.271,0.016 0.053,0.004 0.106,0.009 0.159,0.017 0.091,0.008 0.176,0.021 0.263,0.037 0.066,0.012 0.127,0.028 0.188,0.041 0.029,0.004 0.054,0.012 0.079,0.021 0.074,0.016 0.144,0.036 0.213,0.061 0.626,0.197 1.147,0.536 1.614,0.943 0.061,0.057 0.119,0.11 0.18,0.171 0.188,0.176 0.369,0.37 0.545,0.566 0.09,0.102 0.18,0.204 0.266,0.311 0.09,0.102 0.176,0.208 0.262,0.315 0.02,0.02 0.038,0.04 0.054,0.062 0.07,0.085 0.139,0.167 0.209,0.254 0.029,0.032 0.054,0.065 0.079,0.102 0.121,0.151 0.24,0.303 0.351,0.459 0.127,0.176 0.25,0.353 0.369,0.532 0.032,0.049 0.065,0.094 0.09,0.144 0.102,0.147 0.197,0.3 0.288,0.451 0.135,0.225 0.265,0.45 0.393,0.676 1.053,1.88 2.061,3.78 2.862,5.771 0.485,1.195 0.894,2.421 1.192,3.69 0.024,0.11 0.049,0.213 0.069,0.315 v 0.003 c 0.021,0.104 0.038,0.206 0.049,0.3 0.014,0.085 0.021,0.172 0.029,0.254 0.065,0.814 -0.131,1.431 -0.651,2.23 z"
         id="path230"
         style="fill:#ffffff" /><path
         fill-rule="evenodd"
         clip-rule="evenodd"
         d="m 80.612,34.282 c -0.034,0.145 -0.076,0.29 -0.128,0.435 -0.017,0.045 -0.032,0.094 -0.053,0.139 -0.5,1.266 -1.495,2.13 -2.499,2.941 -1.953,1.577 -4.203,2.687 -6.48,3.715 -1.225,0.553 -2.486,1.036 -3.765,1.455 -0.467,0.151 -0.95,0.283 -1.434,0.388 -0.241,0.057 -0.483,0.107 -0.729,0.152 -0.246,0.042 -0.491,0.082 -0.737,0.119 -1.102,0.161 -1.917,-0.425 -2.089,-1.425 -0.024,-0.139 -0.037,-0.291 -0.032,-0.446 0.004,-0.193 0.017,-0.389 0.032,-0.586 0.017,-0.148 0.032,-0.295 0.05,-0.443 0.053,-0.442 0.122,-0.897 0.181,-1.367 -1.025,0.053 -1.864,0.143 -2.704,0.13 -1.061,-0.012 -1.41,-0.401 -1.5,-1.441 -0.119,-1.43 0.21,-2.793 0.713,-4.097 1.049,-2.7 2.163,-5.375 3.744,-7.819 0.229,-0.357 0.458,-0.712 0.696,-1.065 0.106,-0.161 0.218,-0.315 0.324,-0.467 0.082,-0.111 0.164,-0.221 0.249,-0.333 0.058,-0.077 0.116,-0.151 0.173,-0.221 0.086,-0.11 0.176,-0.216 0.27,-0.323 0.091,-0.106 0.186,-0.208 0.283,-0.312 0.069,-0.073 0.144,-0.147 0.218,-0.216 0.069,-0.074 0.146,-0.144 0.221,-0.213 0.155,-0.135 0.315,-0.266 0.483,-0.393 0.086,-0.062 0.173,-0.124 0.258,-0.181 0.021,-0.016 0.04,-0.028 0.058,-0.045 0.028,-0.024 0.057,-0.049 0.086,-0.074 0.028,-0.023 0.058,-0.044 0.09,-0.065 0.824,-0.471 1.492,-0.717 2.081,-0.663 0.032,0 0.066,0.004 0.099,0.012 0.132,0.016 0.258,0.053 0.381,0.102 0.032,0.012 0.064,0.029 0.099,0.045 0.037,0.017 0.077,0.037 0.114,0.062 0.058,0.028 0.11,0.065 0.164,0.103 0.053,0.037 0.106,0.077 0.159,0.123 0.053,0.045 0.106,0.09 0.156,0.143 0.049,0.046 0.094,0.091 0.139,0.144 0.233,0.253 0.463,0.581 0.696,0.983 0.045,0.082 0.091,0.164 0.14,0.25 0.036,0.07 0.073,0.135 0.106,0.204 0.032,0.065 0.062,0.131 0.094,0.197 0.062,0.148 0.123,0.291 0.177,0.442 0.024,0.074 0.049,0.144 0.074,0.218 0.024,0.073 0.045,0.147 0.069,0.226 0.04,0.147 0.077,0.299 0.11,0.45 0.099,0.455 0.16,0.926 0.188,1.401 0.008,0.16 0.017,0.315 0.017,0.475 0.021,1.032 -0.106,2.085 0.172,3.252 0.639,0.037 1.217,0.107 1.798,0.094 1.663,-0.024 3.258,0.299 4.834,0.82 0.103,0.032 0.2,0.074 0.295,0.114 0.004,0 0.004,0 0.004,0 0.377,0.172 0.692,0.402 0.976,0.668 0.098,0.094 0.192,0.188 0.282,0.286 0.11,0.114 0.213,0.238 0.314,0.36 0.062,0.074 0.116,0.148 0.156,0.226 0.021,0.037 0.041,0.069 0.058,0.106 0.017,0.037 0.033,0.074 0.045,0.111 0.017,0.036 0.029,0.073 0.037,0.11 0.012,0.037 0.021,0.074 0.029,0.111 0.017,0.088 0.024,0.18 0.027,0.271 0.003,0.048 0.002,0.098 -10e-4,0.146 -0.002,0.045 -0.006,0.088 -0.01,0.133 -0.006,0.052 -0.01,0.104 -0.02,0.157 -0.009,0.058 -0.024,0.117 -0.038,0.176 z"
         id="path232"
         style="fill:#ffffff" /><path
         fill-rule="evenodd"
         clip-rule="evenodd"
         d="m 79.402,68.358 c -0.008,0.055 -0.02,0.104 -0.032,0.152 -0.049,0.2 -0.13,0.385 -0.254,0.561 -0.029,0.046 -0.062,0.091 -0.094,0.132 -0.062,0.074 -0.127,0.144 -0.201,0.218 -0.016,0.012 -0.037,0.032 -0.058,0.048 -0.037,0.034 -0.072,0.066 -0.109,0.095 -0.071,0.057 -0.145,0.11 -0.222,0.165 -0.094,0.064 -0.197,0.127 -0.308,0.188 -0.16,0.091 -0.319,0.176 -0.483,0.255 -0.164,0.077 -0.328,0.154 -0.495,0.22 -0.168,0.069 -0.336,0.136 -0.504,0.192 -0.14,0.05 -0.279,0.09 -0.422,0.132 -0.066,0.021 -0.132,0.037 -0.201,0.053 -0.114,0.032 -0.233,0.062 -0.348,0.086 -0.058,0.013 -0.11,0.025 -0.169,0.037 -0.109,0.025 -0.221,0.045 -0.331,0.061 -0.054,0.01 -0.111,0.018 -0.164,0.025 -0.151,0.024 -0.3,0.041 -0.455,0.054 -0.02,0.005 -0.041,0.008 -0.061,0.008 -0.164,0.017 -0.336,0.024 -0.504,0.032 -0.951,0.037 -1.9,0.05 -3.011,0.074 -0.16,0.005 -0.324,0.008 -0.488,0.013 -0.016,0.971 -0.016,1.777 -0.037,2.548 -0.008,0.176 -0.011,0.348 -0.021,0.524 -0.016,0.364 -0.045,0.725 -0.085,1.081 -0.045,0.361 -0.104,0.717 -0.176,1.064 -0.037,0.177 -0.082,0.35 -0.129,0.521 -0.023,0.09 -0.048,0.176 -0.077,0.261 -0.024,0.087 -0.053,0.169 -0.082,0.255 -0.074,0.222 -0.159,0.442 -0.253,0.659 -0.05,0.119 -0.103,0.233 -0.161,0.348 -0.102,0.21 -0.212,0.402 -0.331,0.574 -0.078,0.115 -0.159,0.218 -0.246,0.315 -0.041,0.046 -0.085,0.094 -0.131,0.136 -0.053,0.053 -0.11,0.106 -0.167,0.156 -0.058,0.043 -0.116,0.089 -0.177,0.13 -0.049,0.037 -0.106,0.069 -0.159,0.104 -0.132,0.077 -0.275,0.139 -0.422,0.18 -0.062,0.02 -0.124,0.036 -0.186,0.049 -0.065,0.013 -0.135,0.024 -0.209,0.028 C 66.903,80.146 66.301,79.997 65.641,79.65 65.383,79.515 65.142,79.359 64.908,79.192 64.757,79.077 64.613,78.959 64.47,78.835 64.319,78.701 64.167,78.557 64.028,78.41 63.975,78.356 63.922,78.299 63.874,78.245 63.779,78.142 63.685,78.036 63.599,77.926 63.546,77.869 63.496,77.808 63.448,77.745 63.353,77.627 63.26,77.504 63.17,77.377 63.064,77.233 62.956,77.087 62.858,76.939 62.748,76.78 62.64,76.621 62.539,76.46 62.03,75.675 61.543,74.875 61.085,74.061 c -0.16,-0.287 -0.32,-0.573 -0.471,-0.861 -0.025,-0.04 -0.05,-0.085 -0.07,-0.13 -0.151,-0.283 -0.3,-0.569 -0.442,-0.856 0,0 -0.004,0 -0.004,-0.005 -0.14,-0.278 -0.275,-0.557 -0.405,-0.839 -0.034,-0.065 -0.066,-0.132 -0.096,-0.201 -0.13,-0.283 -0.262,-0.569 -0.384,-0.855 -0.278,-0.644 -0.537,-1.294 -0.774,-1.954 -0.119,-0.332 -0.233,-0.663 -0.34,-1 -0.111,-0.336 -0.214,-0.671 -0.312,-1.012 -0.236,-0.814 -0.29,-1.626 -0.261,-2.416 0.004,-0.124 0.009,-0.242 0.017,-0.361 0.011,-0.242 0.032,-0.479 0.057,-0.717 0.532,-0.672 1.197,-0.827 1.926,-0.758 0.675,0.065 1.343,0.185 2.166,0.304 -0.094,-0.815 -0.222,-1.483 -0.241,-2.151 -0.005,-0.144 -0.005,-0.278 0,-0.404 0,-0.042 0.004,-0.078 0.004,-0.119 0.005,-0.045 0.008,-0.09 0.013,-0.132 0.032,-0.311 0.103,-0.561 0.221,-0.758 0.053,-0.094 0.123,-0.181 0.2,-0.25 0.316,-0.286 0.819,-0.405 1.573,-0.426 1.332,-0.036 2.568,0.349 3.777,0.811 2.986,1.152 5.919,2.417 8.544,4.281 1.095,0.779 2.274,1.479 2.942,2.72 0.184,0.35 0.39,0.692 0.517,1.065 0.064,0.184 0.109,0.36 0.143,0.528 0.052,0.282 0.059,0.549 0.017,0.793 z"
         id="path234"
         style="fill:#ffffff" /><path
         fill-rule="evenodd"
         clip-rule="evenodd"
         d="M 50.462,39.763 C 44.223,39.661 38.358,44.559 38.328,51.56 38.305,58.029 43.302,63.448 50.151,63.549 56.594,63.644 62.305,58.286 62.035,51.732 62.42,45.019 56.477,39.861 50.462,39.763 Z m 6.936,14.926 c 1.064,1.843 0.971,2.941 -0.344,4.133 -1.214,1.099 -2.241,1.037 -4.117,-0.344 -0.357,1.605 -1.144,2.732 -2.953,2.72 -1.762,-0.003 -2.508,-1.143 -2.959,-2.608 -2.101,1.122 -3.19,1.122 -4.276,0.045 -1.167,-1.167 -1.195,-2.195 -0.105,-4.234 -1.45,-0.496 -2.588,-1.271 -2.588,-3.021 -0.004,-1.704 1.097,-2.445 2.646,-2.932 -0.705,-0.849 -0.655,-1.807 -0.5,-2.712 0.078,-0.442 0.45,-0.881 0.795,-1.213 1.125,-1.11 2.076,-1.093 4.112,0 0.303,-1.491 0.97,-2.613 2.703,-2.646 1.716,-0.037 2.262,0.38 3.22,2.646 1.557,-0.827 3.158,-1.089 4.379,0.476 0.86,1.093 0.995,1.716 0,3.703 2.482,0.52 3.068,1.63 3.113,3.199 0.04,1.482 -1.11,2.441 -3.126,2.788 z"
         id="path236"
         style="fill:#ffffff" /><path
         fill-rule="evenodd"
         clip-rule="evenodd"
         d="m 55.37,49.926 c -0.803,-0.405 -1.65,-0.618 -2.171,-1.147 -0.537,-0.54 -0.749,-1.396 -1.115,-2.146 -1.245,1.217 -2.666,1.172 -4.304,0.024 -0.139,1.736 -1.455,2.273 -2.622,3.052 1.139,1.384 0.442,2.653 -0.175,3.89 1.581,0.801 1.74,0.647 2.732,2.86 1.942,-1.331 2.789,-1.286 4.518,0.017 0.684,-1.549 1.023,-2.527 3.348,-2.68 -0.939,-1.244 -0.989,-2.556 -0.211,-3.87 z m -5.305,4.363 c -0.119,0 -0.237,-0.005 -0.352,-0.013 -0.2,-0.017 -0.393,-0.054 -0.577,-0.104 C 48.968,54.129 48.808,54.07 48.66,54.001 48.629,53.989 48.599,53.973 48.566,53.956 48.436,53.894 48.309,53.816 48.193,53.73 48.14,53.694 48.092,53.657 48.043,53.611 47.949,53.538 47.862,53.456 47.78,53.366 47.739,53.325 47.701,53.28 47.67,53.235 47.649,53.214 47.636,53.198 47.625,53.177 47.576,53.111 47.526,53.041 47.484,52.972 47.456,52.931 47.431,52.89 47.411,52.849 47.328,52.705 47.263,52.554 47.213,52.395 47.193,52.333 47.173,52.272 47.16,52.207 47.148,52.165 47.136,52.125 47.132,52.083 47.123,52.038 47.115,51.997 47.107,51.948 47.103,51.916 47.098,51.884 47.094,51.849 47.083,51.764 47.073,51.673 47.069,51.583 V 51.52 c 0,-0.07 0.004,-0.14 0.014,-0.21 0.045,-0.43 0.229,-0.863 0.507,-1.257 0.045,-0.065 0.094,-0.131 0.144,-0.192 0.07,-0.086 0.144,-0.168 0.218,-0.25 l 0.13,-0.131 c 0.069,-0.065 0.139,-0.13 0.218,-0.188 0.032,-0.032 0.069,-0.057 0.102,-0.082 0.093,-0.069 0.192,-0.139 0.295,-0.196 0.065,-0.041 0.13,-0.078 0.195,-0.11 0.042,-0.025 0.083,-0.042 0.124,-0.062 0.156,-0.074 0.32,-0.126 0.479,-0.168 0.033,-0.008 0.062,-0.016 0.094,-0.021 0.033,-0.008 0.062,-0.012 0.094,-0.017 0.082,-0.016 0.164,-0.024 0.246,-0.028 0.213,-0.008 0.43,0.021 0.647,0.082 0.038,0.008 0.074,0.02 0.107,0.033 0.09,0.024 0.175,0.062 0.266,0.102 0.044,0.021 0.089,0.042 0.131,0.062 0.065,0.029 0.127,0.065 0.188,0.102 0.037,0.021 0.078,0.046 0.114,0.07 0.079,0.049 0.156,0.104 0.23,0.164 0.151,0.115 0.291,0.242 0.422,0.381 0.032,0.033 0.062,0.07 0.095,0.102 0.003,0.005 0.008,0.005 0.008,0.008 0.064,0.074 0.126,0.148 0.184,0.226 0.059,0.074 0.114,0.151 0.164,0.233 0.049,0.077 0.099,0.159 0.139,0.246 0.021,0.041 0.042,0.082 0.062,0.123 0.041,0.082 0.073,0.173 0.102,0.258 0.034,0.086 0.058,0.173 0.079,0.26 0.02,0.085 0.035,0.175 0.045,0.262 0.003,0.045 0.008,0.086 0.012,0.13 0.083,1.522 -1.22,2.817 -2.859,2.837 z"
         id="path238"
         style="fill:#ffffff" /></g></g></svg>
